<svg xmlns="http://www.w3.org/2000/svg" width="100" height="100" viewBox="0 0 1400 1400" xmlns:v="https://vecta.io/nano"><linearGradient id="A" gradientUnits="userSpaceOnUse" x1="0" y1="1399.206" x2="1399.206" y2="0"><stop offset=".011" stop-color="#0058a8"/><stop offset=".516" stop-color="#001850"/><stop offset="1" stop-color="#ff1850"/></linearGradient><path fill="url(#A)" d="M0 0h1399.2v1399.2H0z"/><linearGradient id="B" gradientUnits="userSpaceOnUse" x1="331.916" y1="768.982" x2="535.936" y2="786.984"><stop offset=".005" stop-color="#c6e9fa"/><stop offset=".479" stop-color="#00aee6"/><stop offset="1" stop-color="#00346c"/></linearGradient><path fill="url(#B)" d="M428 754l36.8 12.9-25.7 35z"/><linearGradient id="C" gradientUnits="userSpaceOnUse" x1="334.842" y1="1001.847" x2="336.681" y2="1000.008" gradientTransform="matrix(14 0 0 -26 -4247 26811.7207)"><stop offset="0" stop-color="#111"/><stop offset="1" stop-color="#0a0a0a"/></linearGradient><path fill="url(#C)" d="M439.1 801.9l25.7-35-11 47.8z"/><linearGradient id="D" gradientUnits="userSpaceOnUse" x1="346.085" y1="1002.105" x2="347.924" y2="1000.266" gradientTransform="matrix(17 0 0 -26 -5473 26804.7207)"><stop offset="0" stop-color="#010101"/><stop offset="1"/></linearGradient><path fill="url(#D)" d="M428 754l11.1 47.9-31.3-33.1z"/><linearGradient id="E" gradientUnits="userSpaceOnUse" x1="377.336" y1="1000.679" x2="379.175" y2="998.84" gradientTransform="matrix(38 0 0 -64 -13942 64646.7188)"><stop offset="0" stop-color="#fff"/><stop offset="1" stop-color="#ade4f9"/></linearGradient><path fill="url(#E)" d="M428 713.6l38.6-110.4-69.8 117.7z"/><path fill="#fff" d="M396.8 720.9l-14.7 64.4 25.7-16.5L428 754v-40.4z"/><linearGradient id="F" gradientUnits="userSpaceOnUse" x1="371.302" y1="1003.309" x2="373.141" y2="1001.47" gradientTransform="matrix(31 0 0 -18 -11129 18828.7207)"><stop offset="0" stop-color="#484848"/><stop offset="1" stop-color="#7d7d7d"/></linearGradient><path fill="url(#F)" d="M407.8 768.8l31.3 33.1-57-16.6z"/><linearGradient id="G" gradientUnits="userSpaceOnUse" x1="258.913" y1="1266.126" x2="632.613" y2="892.426"><stop offset="0" stop-color="#a8a7a7"/><stop offset="1" stop-color="#b2b2b2"/></linearGradient><path fill="url(#G)" d="M672.6 1162.3l-12.9-47.8-23.9-46-22-55.2 36.7-51.5-38.6-90.1-99.3 16.6-58.8-73.6-14.7-12.8-57-16.6-40.5 40.5L126.4 960l49.7 31.3-35 34.9h-20.2l36.8 36.8 97.5 75.4 40.4 20.2 136.1-34.9 167.4 5.5 22 42.3 14.7 71.7-23.9 92 64.4-47.9v-60.6z"/><path fill="#fff" d="M439.1 801.9l-57-16.6-40.5 40.5L126.4 960l49.7 31.3 33.1-42.3 82.7-42.3 121.4-68.1 40.5-23.9z"/><linearGradient id="H" gradientUnits="userSpaceOnUse" x1="368.151" y1="998.048" x2="369.99" y2="996.209" gradientTransform="matrix(32 0 0 -20 -11676 20928.7207)"><stop offset="0" stop-color="#161616"/><stop offset="1" stop-color="#141414"/></linearGradient><path fill="url(#H)" d="M126.4 960l49.7 31.3-58.9 5.5z"/><linearGradient id="I" gradientUnits="userSpaceOnUse" x1="368.726" y1="997.895" x2="370.565" y2="996.056" gradientTransform="matrix(32 0 0 -19 -11676 19947.7207)"><stop offset="0" stop-color="#0c0c0c"/><stop offset="1" stop-color="#101010"/></linearGradient><path fill="url(#I)" d="M141.1 1026.2l35-34.9-58.9 5.5z"/><linearGradient id="J" gradientUnits="userSpaceOnUse" x1="302.542" y1="998.686" x2="304.381" y2="996.847" gradientTransform="matrix(11 0 0 -20 -3219 20928.7207)"><stop offset="0" stop-color="#111"/><stop offset="1" stop-color="#0a0a0a"/></linearGradient><path fill="url(#J)" d="M117.2 996.8l9.2-36.8-20.2 16.6z"/><linearGradient id="K" gradientUnits="userSpaceOnUse" x1="264.683" y1="998.201" x2="266.522" y2="996.362" gradientTransform="matrix(8 0 0 -27 -2010 27923.7207)"><stop offset="0" stop-color="#6c6c6c"/><stop offset="1" stop-color="#5c5d5d"/></linearGradient><path fill="url(#K)" d="M106.2 976.6l11 20.2 3.7 29.4z"/><linearGradient id="L" gradientUnits="userSpaceOnUse" x1="317.783" y1="997.107" x2="319.622" y2="995.268" gradientTransform="matrix(13 0 0 -16 -4019 16956.7207)"><stop offset="0" stop-color="#1f1f1f"/><stop offset="1" stop-color="#161616"/></linearGradient><path fill="url(#L)" d="M117.2 996.8l23.9 29.4h-20.2z"/><linearGradient id="M" gradientUnits="userSpaceOnUse" x1="470.323" y1="845.992" x2="577.266" y2="739.048"><stop offset=".043" stop-color="#8a959d"/><stop offset="1" stop-color="#d5d9dc"/></linearGradient><path fill="url(#M)" d="M503.4 777.9l-38.6-11-11 47.8 58.8 73.6 29.4-103z"/><linearGradient id="N" gradientUnits="userSpaceOnUse" x1="197.234" y1="1082.3" x2="564.111" y2="715.424"><stop offset="0" stop-color="#fff"/><stop offset=".263" stop-color="#d3f1fc"/><stop offset="1" stop-color="#5bcaf4"/></linearGradient><path fill="url(#N)" d="M453.8 814.7l-40.5 23.9-121.4 68.1-82.7 42.3-33.1 42.3-35 34.9 40.5-3.7 104.8-18.4L417 954.5l95.6-66.2z"/><linearGradient id="O" gradientUnits="userSpaceOnUse" x1="332.409" y1="935.951" x2="653.442" y2="794.937"><stop offset=".005" stop-color="#c6e9fa"/><stop offset=".479" stop-color="#00aee6"/><stop offset="1" stop-color="#00346c"/></linearGradient><path fill="url(#O)" d="M599.1 768.8L542 785.3l-29.4 103 99.3-16.6 64.4-84.6z"/><linearGradient id="P" gradientUnits="userSpaceOnUse" x1="373" y1="997.625" x2="374.839" y2="995.786" gradientTransform="matrix(35 0 0 -56 -12815 56880.7188)"><stop offset=".043" stop-color="#8a959d"/><stop offset="1" stop-color="#d5d9dc"/></linearGradient><path fill="url(#P)" d="M246 1107.1l40.4-103 23.9 57.1z"/><linearGradient id="Q" gradientUnits="userSpaceOnUse" x1="324.043" y1="1077.783" x2="512.822" y2="889.005"><stop offset=".043" stop-color="#8a959d"/><stop offset="1" stop-color="#d5d9dc"/></linearGradient><path fill="url(#Q)" d="M285 1005.6l23.9 57 106.6-44.1L524 989.1 415.5 956z"/><linearGradient id="R" gradientUnits="userSpaceOnUse" x1="399.464" y1="1042.821" x2="548.396" y2="893.888"><stop offset=".043" stop-color="#8a959d"/><stop offset="1" stop-color="#d5d9dc"/></linearGradient><path fill="url(#R)" d="M415.5 956l110 31.6-14.3-97.9z"/><linearGradient id="S" gradientUnits="userSpaceOnUse" x1="457.937" y1="1048.711" x2="644.103" y2="862.546"><stop offset=".005" stop-color="#c6e9fa"/><stop offset=".479" stop-color="#00aee6"/><stop offset="1" stop-color="#00346c"/></linearGradient><path fill="url(#S)" d="M611.9 871.7l-99.3 16.6 12.9 99.3 125-25.8z"/><linearGradient id="T" gradientUnits="userSpaceOnUse" x1="321.216" y1="1214.304" x2="228.206" y2="1058.288"><stop offset="0" stop-color="#fff"/><stop offset="1" stop-color="#ade4f9"/></linearGradient><path fill="url(#T)" d="M246 1107.1l-.8-.3 39.8-101.2-103 18.1-.4-1.2-40.5 3.7h-20.2l36.8 36.8 97.5 75.4-19.9-20.7 19.9 20.7z"/><linearGradient id="U" gradientUnits="userSpaceOnUse" x1="200.475" y1="1289.623" x2="656.452" y2="833.646"><stop offset="0" stop-color="#fff"/><stop offset=".263" stop-color="#d3f1fc"/><stop offset="1" stop-color="#5bcaf4"/></linearGradient><path fill="url(#U)" d="M525.5 987.6L417 1017l.5 1.1-107.2 43.1-64.3 45.9 87.3-19.3 99.3-34.9-.4-1 102.5-20.2 79.1-18.4 36.7-51.5z"/><linearGradient id="V" gradientUnits="userSpaceOnUse" x1="261.337" y1="1084.4" x2="943.062" y2="1174.589"><stop offset=".005" stop-color="#c6e9fa"/><stop offset=".479" stop-color="#00aee6"/><stop offset="1" stop-color="#00346c"/></linearGradient><path fill="url(#V)" d="M476.4 1043.2l-44.7 8.8-99.3 34.9-86.4 20.2 9.2 31.3 40.5 20.2 85.2-21.9a3646.44 3646.44 0 0 1 95.5-93.5z"/><linearGradient id="W" gradientUnits="userSpaceOnUse" x1="269.062" y1="1044.852" x2="762.087" y2="1110.077"><stop offset=".005" stop-color="#c6e9fa"/><stop offset=".479" stop-color="#00aee6"/><stop offset="1" stop-color="#00346c"/></linearGradient><path fill="url(#W)" d="M534.7 1031.7l-58.3 11.4c-32.2 30.4-64.1 61.5-95.6 93.6l50.9-13.1 167.3 5.5 36.8-60.7-22.1-55.2-79 18.5z"/><linearGradient id="X" gradientUnits="userSpaceOnUse" x1="386.846" y1="998.016" x2="388.685" y2="996.177" gradientTransform="matrix(55 0 0 -33 -20675 33903.7188)"><stop offset="0" stop-color="#fff"/><stop offset=".263" stop-color="#d3f1fc"/><stop offset="1" stop-color="#5bcaf4"/></linearGradient><path fill="url(#X)" d="M613.8 1013.3l36.7-51.5 64.4 60.7z"/><linearGradient id="Y" gradientUnits="userSpaceOnUse" x1="640.949" y1="999.025" x2="764.559" y2="875.415"><stop offset=".005" stop-color="#c6e9fa"/><stop offset=".479" stop-color="#00aee6"/><stop offset="1" stop-color="#00346c"/></linearGradient><path fill="url(#Y)" d="M740.7 936.1l-31.3-71.7-33.1-77.3-64.4 84.6 38.6 90.1 64.4 60.7 68 11.1z"/><linearGradient id="Z" gradientUnits="userSpaceOnUse" x1="608.36" y1="1138.276" x2="722.508" y2="1024.127"><stop offset=".005" stop-color="#c6e9fa"/><stop offset=".479" stop-color="#00aee6"/><stop offset="1" stop-color="#00346c"/></linearGradient><path fill="url(#Z)" d="M714.9 1022.5l-101.1-9.2 22 55.2 23.9 46 66.2 25.7 3.7-75.4z"/><path fill="#fff" d="M672.6 1162.3l-12.9-47.8-23.9-46-36.7 60.7 22 42.3 14.7 71.7-23.9 92 64.4-47.9v-60.6z"/><linearGradient id="a" gradientUnits="userSpaceOnUse" x1="637.21" y1="1248.268" x2="772.49" y2="1112.988"><stop offset=".043" stop-color="#8a959d"/><stop offset="1" stop-color="#d5d9dc"/></linearGradient><path fill="url(#a)" d="M742.5 1254.2l-18.4-45.9 1.8-68.1-66.2-25.7 12.9 47.8 3.7 64.4v60.6z"/><linearGradient id="b" gradientUnits="userSpaceOnUse" x1="586.482" y1="1429.801" x2="795.246" y2="1221.038"><stop offset="0" stop-color="#fff"/><stop offset=".263" stop-color="#d3f1fc"/><stop offset="1" stop-color="#5bcaf4"/></linearGradient><path fill="url(#b)" d="M676.3 1287.3l-64.4 47.9 8 64.8h65.6l25.7-68.5 31.3-77.3z"/><linearGradient id="c" gradientUnits="userSpaceOnUse" x1="559.977" y1="580.035" x2="700.991" y2="250.002"><stop offset=".005" stop-color="#c6e9fa"/><stop offset=".479" stop-color="#00aee6"/><stop offset="1" stop-color="#00346c"/></linearGradient><path fill="url(#c)" d="M670.8 277.7l-12.9-69.8-18 89-5.5 88.2-13.3 82.1 68.1-51.5 14.7-29.5z"/><linearGradient id="d" gradientUnits="userSpaceOnUse" x1="407.207" y1="733.223" x2="685.383" y2="455.047"><stop offset=".005" stop-color="#c6e9fa"/><stop offset=".479" stop-color="#00aee6"/><stop offset="1" stop-color="#00346c"/></linearGradient><path fill="url(#d)" d="M622 489l10.4-18.8-11.3-3.1-31.3 29.4-123.2 106.7L428 713.6V754l38.6-25.7 41.5-25.5L522 678l100-189z"/><linearGradient id="e" gradientUnits="userSpaceOnUse" x1="511.061" y1="705.778" x2="749.54" y2="467.299"><stop offset=".005" stop-color="#c6e9fa"/><stop offset=".479" stop-color="#00aee6"/><stop offset="1" stop-color="#00346c"/></linearGradient><path fill="url(#e)" d="M777.4 553.6l-88.3-68-56.7-15.3-10.4 18.8c-36 64-66 125-100 189l-13.9 24.8L628.5 629l148.9-75.4z"/><linearGradient id="f" gradientUnits="userSpaceOnUse" x1="666.517" y1="543.136" x2="763.64" y2="446.014"><stop offset=".011" stop-color="#0058a8"/><stop offset="1" stop-color="#001850"/></linearGradient><path fill="url(#f)" d="M742.5 454.3l-38.6-68.1-14.7 29.5-68.1 51.5 68.1 18.4 88.2 68z"/><linearGradient id="g" gradientUnits="userSpaceOnUse" x1="439.535" y1="593.507" x2="715.562" y2="695.518"><stop offset=".011" stop-color="#0058a8"/><stop offset="1" stop-color="#001850"/></linearGradient><path fill="url(#g)" d="M628.5 629l-161.9 99.3L428 754l36.8 12.9 38.6 11 38.6 7.4 57.1-16.5 77.2 18.3 57-125 44.1-108.5z"/><linearGradient id="h" gradientUnits="userSpaceOnUse" x1="656.519" y1="432.681" x2="771.455" y2="317.745"><stop offset="0"/><stop offset=".995" stop-color="#006"/></linearGradient><path fill="url(#h)" d="M781.1 389.9l-51.5-101.1-79.1-92 20.3 80.9 33.1 108.5 38.6 68.1 34.9 99.3 64.4-101.1z"/><linearGradient id="i" gradientUnits="userSpaceOnUse" x1="701.539" y1="918.156" x2="1121.581" y2="396.104"><stop offset="0"/><stop offset=".995" stop-color="#006"/></linearGradient><path fill="url(#i)" d="M797.7 678.6l-64.4-16.5-57 125 33.1 77.3 31.3 71.7 42.2 97.5 5.6-88.3 9.2-46 40.4-114 69.9-103z"/><linearGradient id="j" gradientUnits="userSpaceOnUse" x1="593.086" y1="784.82" x2="962.122" y2="427.784"><stop offset=".011" stop-color="#0058a8"/><stop offset=".516" stop-color="#001850"/><stop offset="1" stop-color="#ff1850"/></linearGradient><path fill="url(#j)" d="M841.8 452.5l-64.4 101.1-44.1 108.5 64.4 16.5 31.2-77.2 66.2-84.6z"/><linearGradient id="k" gradientUnits="userSpaceOnUse" x1="724.636" y1="866.551" x2="1075.671" y2="500.515"><stop offset=".011" stop-color="#0058a8"/><stop offset=".516" stop-color="#001850"/><stop offset="1" stop-color="#ff1850"/></linearGradient><path fill="url(#k)" d="M935.6 584.9l-40.5-68.1-66.2 84.6-31.2 77.2 110.3 3.7 160-1.8z"/><linearGradient id="l" gradientUnits="userSpaceOnUse" x1="655.048" y1="1175.547" x2="1168.099" y2="413.471"><stop offset="0"/><stop offset=".995" stop-color="#006"/></linearGradient><path fill="url(#l)" d="M908 682.3l-69.9 103-40.4 114-9.2 46-5.6 88.3 86.5-77.3 97.4-207.8 101.2-68z"/><linearGradient id="m" gradientUnits="userSpaceOnUse" x1="788.779" y1="1049.805" x2="1075.312" y2="763.273"><stop offset="0"/><stop offset=".995" stop-color="#006"/></linearGradient><path fill="url(#m)" d="M1068 680.5l-101.2 68-97.4 207.8 167.3-53.3 90.1-68z"/><linearGradient id="n" gradientUnits="userSpaceOnUse" x1="861.874" y1="1105.439" x2="1129.597" y2="837.716"><stop offset=".011" stop-color="#0058a8"/><stop offset="1" stop-color="#001850"/></linearGradient><path fill="url(#n)" d="M1126.8 835l-90.1 68-167.3 53.3 53.3 55.2 145.3 22.1 88.3-80.9z"/><linearGradient id="o" gradientUnits="userSpaceOnUse" x1="388.507" y1="996.231" x2="390.346" y2="994.392" gradientTransform="matrix(46 0 0 -34 -16790 34976.7188)"><stop offset="0" stop-color="#161616"/><stop offset="1" stop-color="#0b0b0b"/></linearGradient><path fill="url(#o)" d="M1088.2 1162.3l84.6-16.6-27.6-45.9z"/><linearGradient id="p" gradientUnits="userSpaceOnUse" x1="948.868" y1="1045.701" x2="1278.901" y2="802.677"><stop offset=".011" stop-color="#0058a8"/><stop offset=".516" stop-color="#001850"/><stop offset="1" stop-color="#ff1850"/></linearGradient><path fill="url(#p)" d="M1257.4 743L1068 680.5l58.8 154.5 115.9 22L1400 991z"/><linearGradient id="q" gradientUnits="userSpaceOnUse" x1="1032.276" y1="1113.808" x2="1068.279" y2="717.768"><stop offset=".011" stop-color="#0058a8"/><stop offset=".516" stop-color="#001850"/><stop offset="1" stop-color="#ff1850"/></linearGradient><path fill="url(#q)" d="M1095.6 601.4l-123.2-84.6h-77.3l40.5 68.1 132.4 95.6 189.4 62.5z"/><linearGradient id="r" gradientUnits="userSpaceOnUse" x1="678.493" y1="721.9" x2="915.517" y2="475.875"><stop offset=".011" stop-color="#0058a8"/><stop offset=".516" stop-color="#001850"/><stop offset="1" stop-color="#ff1850"/></linearGradient><path fill="url(#r)" d="M904.3 465.3l-62.5-12.8 53.3 64.3h77.3z"/><linearGradient id="s" gradientUnits="userSpaceOnUse" x1="596.003" y1="567.329" x2="869.031" y2="345.307"><stop offset=".011" stop-color="#0058a8"/><stop offset=".516" stop-color="#001850"/><stop offset="1" stop-color="#ff1850"/></linearGradient><path fill="url(#s)" d="M856.5 353.1l-42.3-58.8-40.4-20.2 7.3 115.8 60.7 62.6 62.5 12.8z"/><linearGradient id="t" gradientUnits="userSpaceOnUse" x1="943.058" y1="1533.89" x2="1467.35" y2="1009.598"><stop offset="0"/><stop offset=".995" stop-color="#006"/></linearGradient><path fill="url(#t)" d="M1310.7 1274.5l-137.9-128.8-3.7 106.7-93.8 147.6h160 0z"/><linearGradient id="u" gradientUnits="userSpaceOnUse" x1="396.212" y1="995.651" x2="398.049" y2="993.814" gradientTransform="matrix(91 0 0 -65 -34845 66009.7188)"><stop offset="0" stop-color="#080808"/><stop offset="1" stop-color="#070707"/></linearGradient><path fill="url(#u)" d="M1310.7 1274.5l89.3 89.9-164.7 35.6z"/><linearGradient id="v" gradientUnits="userSpaceOnUse" x1="396.96" y1="988.943" x2="398.506" y2="987.397" gradientTransform="matrix(95 0 0 -20 -36457 21147.7207)"><stop offset="0" stop-color="#0e0e0e"/><stop offset="1" stop-color="#020202"/></linearGradient><path fill="url(#v)" d="M1400 1364.4v35.6h-164.7z"/><linearGradient id="w" gradientUnits="userSpaceOnUse" x1="873.817" y1="1489.114" x2="1275.295" y2="1087.637"><stop offset="0" stop-color="#1c3b6e"/><stop offset=".979" stop-color="#014bb6"/></linearGradient><path fill="url(#w)" d="M1088.2 1162.3l-55.1 64.4-112.2 114-55.2 59.3h209.6l93.8-147.6 3.7-106.7z"/><linearGradient id="x" gradientUnits="userSpaceOnUse" x1="1122.877" y1="1100.371" x2="1347.899" y2="800.341"><stop offset=".011" stop-color="#0058a8"/><stop offset=".516" stop-color="#001850"/><stop offset="1" stop-color="#ff1850"/></linearGradient><path fill="url(#x)" d="M1242.7 857l-115.9-22 29.5 117.7 62.5 27.5 73.5 92L1400 991z"/><linearGradient id="y" gradientUnits="userSpaceOnUse" x1="1034.179" y1="1397.96" x2="1385.214" y2="1055.926"><stop offset=".011" stop-color="#0058a8"/><stop offset=".516" stop-color="#001850"/><stop offset="1" stop-color="#ff1850"/></linearGradient><path fill="url(#y)" d="M1399.5 1232l-107.6-157.6-73.6-92-62.5-27.6-11 147.1 27.5 46 138 128.7 89.2 90-.3-1.7z"/><linearGradient id="z" gradientUnits="userSpaceOnUse" x1="1247.428" y1="1346.827" x2="1427.446" y2="989.791"><stop offset=".011" stop-color="#0058a8"/><stop offset=".516" stop-color="#001850"/><stop offset="1" stop-color="#ff1850"/></linearGradient><path fill="url(#z)" d="M1400 991v238.8l-107.7-157.6z"/><linearGradient id="AA" gradientUnits="userSpaceOnUse" x1="388.32" y1="994.924" x2="390.159" y2="993.085" gradientTransform="matrix(57 0 0 -42 -21428 43044.7188)"><stop offset=".043" stop-color="#8a959d"/><stop offset="1" stop-color="#d5d9dc"/></linearGradient><path fill="url(#AA)" d="M711.2 1331.5l31.3-77.3 73.6 14.8z"/><linearGradient id="AB" gradientUnits="userSpaceOnUse" x1="621.06" y1="1416.134" x2="1109.871" y2="927.323"><stop offset="0"/><stop offset=".995" stop-color="#006"/></linearGradient><path fill="url(#AB)" d="M922.7 1011.5l-42.3 136.1-64.3 121.4 91.9-36.8 82.8-88.3 77.2-110.3z"/><linearGradient id="AC" gradientUnits="userSpaceOnUse" x1="626.159" y1="1528.048" x2="1178.908" y2="975.299"><stop offset="0"/><stop offset=".995" stop-color="#006"/></linearGradient><path fill="url(#AC)" d="M1068 1033.6l-77.2 110.3-82.8 88.3-91.9 36.8h0l-104.8 62.5-25.7 68.5h180.2l55.2-59.3 112.2-114 55.2-64.4 57-62.5 11-147.1-88.4 80.9zm-270.3 342l9.2-53.3-9.2 53.3h0z"/><linearGradient id="AD" gradientUnits="userSpaceOnUse" x1="590.234" y1="971.42" x2="806.256" y2="1187.442"><stop offset="0" stop-color="#0ff"/><stop offset=".393" stop-color="#0058a8"/><stop offset="1" stop-color="#001850"/></linearGradient><path fill="url(#AD)" d="M805 1143.9l-22.1-110.3-68-11.1 14.7 42.3-3.7 75.4-1.8 68.1 18.4 45.9 73.6 14.8z"/><linearGradient id="AE" gradientUnits="userSpaceOnUse" x1="673.213" y1="1277.549" x2="931.906" y2="1018.856"><stop offset="0" stop-color="#283453"/><stop offset="1" stop-color="#6a748f"/></linearGradient><path fill="url(#AE)" d="M869.4 956.3l-86.5 77.3 22.1 110.3 11.1 125.1 64.3-121.4 42.3-136.1z"/></svg>