<svg xmlns="http://www.w3.org/2000/svg" xmlns:xlink="http://www.w3.org/1999/xlink" width="100" height="100" viewBox="0 0 1400 1400" xmlns:v="https://vecta.io/nano"><style><![CDATA[.B{fill-rule:evenodd}.C{fill:#e5b982}.D{fill:#fff}.E{fill:#fdce95}.F{fill:#b7976b}.G{fill:#a88962}.H{fill:#f39dc3}.I{fill:#8c979f}.J{fill:#86d0d3}.K{fill:#aedee4}.L{fill:#d6edf9}.M{fill:#fbfbfb}]]></style><linearGradient id="A" gradientUnits="userSpaceOnUse" x1="700" y1="1387.051" x2="700" y2="15.593"><stop offset="0" stop-color="#4fbbbf"/><stop offset=".06" stop-color="#4ab4ba"/><stop offset=".146" stop-color="#3ea2ac"/><stop offset=".21" stop-color="#318f9e"/><stop offset=".591" stop-color="#4fbbbf"/><stop offset="1" stop-color="#86d0d3"/></linearGradient><path fill="url(#A)" d="M0 0h1400v1398.3H0z"/><radialGradient id="B" cx="615.435" cy="1362.329" r="131.088" gradientTransform="matrix(1.072 0 0 0.1758 -262.3363 855.8935)" gradientUnits="userSpaceOnUse"><stop offset="0" stop-color="#226061"/><stop offset=".957" stop-color="#226061" stop-opacity="0"/></radialGradient><ellipse fill="url(#B)" cx="397.4" cy="1095.4" rx="140.5" ry="23"/><radialGradient id="C" cx="1254.502" cy="1362.329" r="131.088" gradientTransform="matrix(1.072 0 0 0.1758 -262.3363 855.8935)" gradientUnits="userSpaceOnUse"><stop offset="0" stop-color="#226061"/><stop offset=".957" stop-color="#226061" stop-opacity="0"/></radialGradient><ellipse fill="url(#C)" cx="1082.5" cy="1095.4" rx="140.5" ry="23"/><linearGradient id="D" gradientUnits="userSpaceOnUse" x1="633.597" y1="527.728" x2="573.171" y2="376.662"><stop offset=".059" stop-color="#fdce95"/><stop offset="1" stop-color="#fee2c0"/></linearGradient><path fill="url(#D)" d="M742.2 291.5L428.6 483.4c-19 12.8-8.1 22.3 6.3 22.2l367.6-2.5-60.3-211.6z" class="B"/><g class="C"><path d="M435 479.5l46.5 25.8 14.9-.1-54.2-30.1zm347.3-47.2l-.7-2.8-2.1-7.3-131.5-73-7.2 4.4 133.2 74zm17.5 61.3l-14.1-7.9-180.8-100.4-8.3-4.7-3 1.8-4.2 2.6L758 478.8l43.7 24.3h.9zm-40.7-142.8l-59.6-33.1-7.3 4.4 69.7 38.7zm-265.4 92.8l-5.7 3.5-1.5.9 101.7 56.6 15-.1-93.4-52zm95.2-7.2l-43.8-24.3-7.2 4.4 23.3 13 117.7 65.4 16.1 8.9 15-.1-3.4-1.9z"/><path d="M673.6 333.5l-12.8 7.8-38.6 69.5-52.2 93.9 8.5-.1 51.1-92zm-91 55.7l-12.8 7.9-.3.5-59.8 107.5 8.5-.1 58.7-105.6zm-103.9 63.6l-29.3 52.7h8.4l33.7-60.5zm268.5-143.6l-2.8-10.1L674.9 424l-44.6 80.3 8.4-.1 43.6-78.3zm40.6 143.1l.2-.4-2.9-10-4.7 8.5-29.5 53.1 8.5-.1zm-20.2-71.7l-2.9-10.1-37.1 66.7-37 66.7 8.5-.1 36-64.7z"/></g><linearGradient id="E" gradientUnits="userSpaceOnUse" x1="842.751" y1="477.088" x2="842.751" y2="195.273"><stop offset="0" stop-color="#e283ad"/><stop offset="1" stop-color="#ecaec9"/></linearGradient><path fill="url(#E)" d="M959 360.8c5.7-22.3-32.8 30.5-50.9-8.9-22.5-49.1-47.6-54.1-55.7-42.7 0 0-15.9-48-45.5-24.3 0 0-19.7-30.5-40.9 4.9 0 0-15.7-33.9-35.7-1-20 33 32.4 201.6 55.2 218.9 22.9 17.2 27.7-6.5 24.7-18.9 0 0 42.5 9.5 47.2-29.5 0 0 32.6.1 26-34.9 15.9 18.8 57.7 7.5 75.6-63.6h0z"/><linearGradient id="F" gradientUnits="userSpaceOnUse" x1="804.572" y1="496.726" x2="804.572" y2="385.423"><stop offset="0" stop-color="#e283ad"/><stop offset="1" stop-color="#ecaec9"/></linearGradient><path fill="url(#F)" d="M852.4 309.2s-15.9-48-45.5-24.3c0 0-19.7-30.5-40.9 4.9 0 0-15.7-33.9-35.7-1-20 33 32.4 201.6 55.2 218.9-23.4-29.4-49.3-134.6-54.3-175.8-5-41.3 9.5-44.6 19.2-39.8 7.3 3.6 21.9 106.6 40.9 152.1s15.8 31.5-8.6-56.6-7.1-105.1-.5-104.4 14.5 15.5 30.5 92.4c16 77 51.6 97.2 31.9 62.3s-44.3-142.7-33.9-152c10.4-9.2 25.6 3.1 37.8 40 12.3 36.9 31.4 73.4 20.1 30.8s-.5-51.9 14.6-42.5c-13.8-12.9-25.7-12.2-30.8-5z"/><path opacity=".11" d="M950.6 370.6c-3.2-4.1-24.6 30.3-37.9 28.9s-18.9-56.4-26.1-60.9c-7.1-4.5-1.4 58.3 12.4 76.4 13.7 18.2 58.3-35.7 51.6-44.4zm-76.5 57.2c-6.3-4.9-15.4-7.5-23.8-41-8.5-33.4-19.3-76.6-28.6-76.1s24.7 125.9 39.1 134.2c14.5 8.4 21.6-10.7 13.3-17.1zm-32.6 28.3c-6.6-6.2-16-9.9-26.4-50.6s-23.7-93.2-33.1-93.2c-9.4.1 31.9 152.9 46.9 163.7 15.2 10.9 21.3-11.8 12.6-19.9zm-97.7-141.6c-10.1-2.8 31.6 176 45.3 182.7 13.6 6.8-35.2-179.9-45.3-182.7z" class="D"/><path fill="#2a3e4d" d="M227.3 903.1h969.5v107.6H227.3z"/><linearGradient id="G" gradientUnits="userSpaceOnUse" x1="1082.471" y1="1099.447" x2="1082.471" y2="948.268"><stop offset="0" stop-color="#304352"/><stop offset="1" stop-color="#566672"/></linearGradient><circle fill="url(#G)" cx="1082.5" cy="1026.1" r="81.6"/><linearGradient id="H" gradientUnits="userSpaceOnUse" x1="1082.471" y1="998.67" x2="1082.471" y2="1104.894"><stop offset=".059" stop-color="#2a3e4d"/><stop offset=".532" stop-color="#304352"/><stop offset="1" stop-color="#566672"/></linearGradient><circle fill="url(#H)" cx="1082.5" cy="1026.1" r="46.2"/><linearGradient id="I" gradientUnits="userSpaceOnUse" x1="1082.471" y1="1088.302" x2="1082.471" y2="979.53"><stop offset=".043" stop-color="#8a959d"/><stop offset="1" stop-color="#d5d9dc"/></linearGradient><circle fill="url(#I)" cx="1082.5" cy="1026.1" r="39.6"/><circle fill="#566672" cx="1082.5" cy="1026.1" r="15.4"/><circle fill="url(#I)" cx="1082.5" cy="1026.1" r="10.2"/><path fill="#425461" d="M1082.7 1061.6h-.3c-6.4 0-12.8-1.7-18.3-5.1-3-1.8-4-5.7-2.2-8.7s5.7-4 8.7-2.2c3.5 2.1 7.5 3.2 11.6 3.3h.2c3.5 0 6.3 2.8 6.3 6.3 0 3.4-2.6 6.1-5.9 6.3l-.1.1zm24.8-14.1c-1.1 0-2.2-.3-3.3-.9-3-1.8-4-5.7-2.2-8.7 2.1-3.5 3.3-7.6 3.3-11.8v-.1c0-3.5 2.8-6.3 6.3-6.3s6.3 2.8 6.3 6.3v.1c0 6.5-1.8 12.8-5.1 18.3-1.1 2-3.2 3.1-5.3 3.1zm-54.2-15c-3.5 0-6.3-2.8-6.3-6.3v-.1c0-6.4 1.7-12.7 5-18.2 1.8-3 5.7-4 8.7-2.2s4 5.7 2.2 8.7c-2.1 3.5-3.2 7.6-3.2 11.7-.1 3.5-2.9 6.4-6.4 6.4zm44.1-25.1c-1.1 0-2.2-.3-3.2-.9-3.5-2.1-7.6-3.2-11.7-3.2h-.1c-3.5 0-6.3-2.8-6.3-6.3s2.8-6.3 6.3-6.3h.1c6.4 0 12.7 1.7 18.2 5 3 1.8 4 5.7 2.2 8.7-1.2 1.9-3.3 3-5.5 3z"/><linearGradient id="J" gradientUnits="userSpaceOnUse" x1="397.4" y1="1099.447" x2="397.4" y2="948.268"><stop offset="0" stop-color="#304352"/><stop offset="1" stop-color="#566672"/></linearGradient><circle fill="url(#J)" cx="397.4" cy="1026.1" r="81.6"/><linearGradient id="K" gradientUnits="userSpaceOnUse" x1="397.4" y1="998.67" x2="397.4" y2="1104.894"><stop offset=".059" stop-color="#2a3e4d"/><stop offset=".532" stop-color="#304352"/><stop offset="1" stop-color="#566672"/></linearGradient><circle fill="url(#K)" cx="397.4" cy="1026.1" r="46.2"/><linearGradient id="L" gradientUnits="userSpaceOnUse" x1="397.4" y1="1088.302" x2="397.4" y2="979.53"><stop offset=".043" stop-color="#8a959d"/><stop offset="1" stop-color="#d5d9dc"/></linearGradient><circle fill="url(#L)" cx="397.4" cy="1026.1" r="39.6"/><circle fill="#566672" cx="397.4" cy="1026.1" r="15.4"/><circle fill="url(#L)" cx="397.4" cy="1026.1" r="10.2"/><path fill="#425461" d="M397.7 1061.6h-.3c-6.4 0-12.8-1.7-18.3-5.1-3-1.8-4-5.7-2.2-8.7s5.7-4 8.7-2.2c3.5 2.1 7.5 3.2 11.6 3.3h.2c3.5 0 6.3 2.8 6.3 6.3 0 3.4-2.6 6.1-5.9 6.3l-.1.1zm24.7-14.1c-1.1 0-2.2-.3-3.3-.9-3-1.8-4-5.7-2.2-8.7 2.1-3.5 3.3-7.6 3.3-11.8v-.1c0-3.5 2.8-6.3 6.3-6.3s6.3 2.8 6.3 6.3v.1c0 6.5-1.8 12.8-5.1 18.3-1.1 2-3.2 3.1-5.3 3.1zm-54.2-15c-3.5 0-6.3-2.8-6.3-6.3v-.1c0-6.4 1.7-12.7 5-18.2 1.8-3 5.7-4 8.7-2.2s4 5.7 2.2 8.7c-2.1 3.5-3.2 7.6-3.2 11.7-.1 3.5-2.9 6.4-6.4 6.4zm44.2-25.1c-1.1 0-2.2-.3-3.2-.9-3.5-2.1-7.6-3.2-11.7-3.2h-.1c-3.5 0-6.3-2.8-6.3-6.3s2.8-6.3 6.3-6.3h.1c6.4 0 12.7 1.7 18.2 5 3 1.8 4 5.7 2.2 8.7-1.3 1.9-3.4 3-5.5 3z"/><linearGradient id="M" gradientUnits="userSpaceOnUse" x1="717.294" y1="1086.288" x2="717.294" y2="791.38"><stop offset="0" stop-color="#c1c7cb"/><stop offset="1" stop-color="#fff"/></linearGradient><path fill="url(#M)" d="M1271.8 833.5v192.6h-75.6c-9.9 0-18.3-7.2-20-17-8-44.8-47.2-78.9-94.3-78.9-28.2 0-53.6 12.2-71.1 31.6-2.5 2.8-24.2 28.7-39.5 47-9.5 11.4-23.5 17.9-38.3 17.9H492.4v-.7c0-52.9-42.9-95.9-95.8-95.9s-95.8 42.9-95.8 95.9v.7h-138v-491c0-4.3.7-8.4 2-12.3 5.1-14.8 19.1-25.4 35.7-25.4h836c15.9 0 30.1 10 35.5 25l.2.4 89.7 251.2 92.5 34c10.4 3.9 17.4 13.8 17.4 24.9z"/><linearGradient id="N" gradientUnits="userSpaceOnUse" x1="644.763" y1="571.251" x2="1197.635" y2="1021.404"><stop offset="0" stop-color="#c1c7cb"/><stop offset="1" stop-color="#fff" stop-opacity="0"/></linearGradient><path fill="url(#N)" d="M825.9 582.7h184.3a7.6 7.6 0 0 1 7.6 7.6v330.2c0 1.7-.6 3.4-1.7 4.8l-62.5 76.8c-1.4 1.8-3.6 2.8-5.9 2.8H825.9a7.6 7.6 0 0 1-7.6-7.6v-407c.1-4.2 3.4-7.6 7.6-7.6z"/><linearGradient id="O" gradientUnits="userSpaceOnUse" x1="554.722" y1="300.762" x2="554.722" y2="876.201"><stop offset="0" stop-color="#c1c7cb"/><stop offset="1" stop-color="#fff" stop-opacity="0"/></linearGradient><path fill="url(#O)" d="M266.7 588.8l130.7 293.8h445.4L731.6 563.9z"/><defs><path id="P" d="M1272.4 833.5v192.6h-75.6c-9.9 0-18.3-7.2-20-17-8-44.8-47.2-78.9-94.3-78.9-28.2 0-53.6 12.2-71.1 31.6-2.5 2.8-24.2 28.7-39.5 47-9.5 11.4-23.5 17.9-38.3 17.9H493.1v-.7c0-52.9-42.9-95.9-95.8-95.9s-95.8 42.9-95.8 95.9v.7h-138v-491c0-4.3.7-8.4 2-12.3 5.1-14.8 19.1-25.4 35.7-25.4h836c15.9 0 30.1 10 35.5 25l.2.4 89.7 251.2 92.5 34c10.4 3.9 17.3 13.8 17.3 24.9z"/><path id="Q" d="M498.8 763.3l12.9 43.1c.9 2.6 2.4 1.7 2.8 0l11.2-43.6-26.9.5z"/><path id="R" d="M498.8 763.3l26.9-.5-1 3.7c-3.4 1.7-7.8 2.7-12.7 2.8-4.5.1-8.7-.6-12-1.9l-1.2-4.1z"/><path id="S" d="M524.5 762.8l-1.4 1.5-17.6 18.2-.8.8.1.4.2.6 16.4-17 4.3-4.4v-.1z"/><path id="T" d="M506.3 763.2l-5.8 6 .3 1 6.8-7z"/><path id="U" d="M508.9 797.5l.3.8v.2l9.9-10.3.5-1.8-9.1 9.5z"/><path id="V" d="M511.1 786l-4.3 4.4.3 1 2.3-2.4 11.4-11.8 1.6-1.6.4-1.8-.3.3z"/><path id="W" d="M501.6 772.7l.5 1.8 7 6.7 9.5 9.2.2-1-9.3-9z"/><path id="X" d="M505.3 785.3l.5 1.7.1.1 10.8 10.4.3-1-10.7-10.2z"/><path id="Y" d="M501 763.3h-1.3l12.6 12.1 8.1 7.8.3-1-7.9-7.6z"/><path id="Z" d="M510.5 769.4h-1.2l6.1-6.3h1.3l-6.2 6.3zm10.1-1.3c-.5.2-1.1.3-1.7.4l5.5-5.7h1.2v.1l-5 5.2zm-14.3-4.9h1.3l-4.9 5.1-1-.3 4.6-4.8z"/><path id="a" d="M516.2 769c-.4.1-.8.1-1.2.1l-6.3-6h1.3l6.2 5.9zm7.3-1.9c-.3.1-.6.2-.9.4l-4.7-4.5h1.3l4.3 4.1zm-23.8-3.8h1.3l6.1 5.8c-.5-.1-1-.1-1.5-.2l-5.9-5.6z"/><path id="b" d="M513.8 739.8c-2.5-1.4 2.6 4.8-2.7 5.7-6.5 1.1-7.9 3.9-6.8 5.2 0 0-6.2.4-4.3 4.6 0 0-4.2 1.4-.7 5 0 0-4.5.8-1.2 4.2s24.9 2.5 27.6.3c2.8-2.2.1-3.5-1.5-3.5 0 0 2.5-4.7-2-6.5 0 0 1-3.9-3.3-4.2 2.7-1.1 2.7-6.4-5.1-10.8h0z"/><path id="c" d="M504.3 750.8s-6.2.4-4.3 4.6c0 0-4.2 1.4-.7 5 0 0-4.5.8-1.2 4.2s24.9 2.5 27.6.3c-4.2 1.9-17.5 1.6-22.5.9s-5-2.5-4.1-3.5c.7-.7 13.3.8 19.3-.1 6-.8 4.2-.9-7-.8s-12.7-2.5-12.4-3.2c.3-.8 2.3-1.2 11.9-.7s13.1-3 8.4-1.8-18.3.8-19-.8 1.2-2.9 5.9-3.2 9.7-1.4 4.3-1.4-6.1-1.6-4.6-3.1c-2 1.4-2.3 2.8-1.6 3.6z"/><path id="d" d="M514.7 741.1c-.6.2 2.8 3.9 2.2 5.4s-7.3.5-8 1.2c-.8.7 6.9 2 9.4.9 2.6-1-2.4-8-3.6-7.5z"/><path id="e" d="M519 752c-.8.6-1.4 1.6-5.6 1.5-4.2 0-9.7-.1-9.9 1s15.7 1 17.1-.4-.6-2.9-1.6-2.1z"/><path id="f" d="M521.3 756.7c-.9.6-1.7 1.6-6.8 1.5-5.1 0-11.8-.1-12.1 1s19.1 1 20.8-.4c1.9-1.4-.6-2.8-1.9-2.1z"/><path id="g" d="M501.5 763.8c-.6 1.1 21.8 1.8 23 .4 1.3-1.4-22.3-1.5-23-.4z"/><path id="h" d="M545.8 805.5l4.5-4.6.5-1.8-5.3 5.5z"/><path id="i" d="M559 762.8l-1.4 1.5-17.6 18.2-.8.8.1.4.2.6 16.4-17 4.2-4.4.1-.1z"/><path id="j" d="M544.6 763.1h-1.3l6.7 6.5 6.7 6.5.3-1-6.5-6.3z"/><path id="k" d="M548.2 739.8c-2.5-1.4 2.6 4.8-2.7 5.7-6.5 1.1-7.9 3.9-6.8 5.2 0 0-6.2.4-4.3 4.6 0 0-4.2 1.4-.7 5 0 0-4.5.8-1.2 4.2s24.9 2.5 27.6.3c2.8-2.2.1-3.5-1.5-3.5 0 0 2.5-4.7-2-6.5 0 0 1-3.9-3.3-4.2 2.8-1.1 2.8-6.4-5.1-10.8h0z"/><path id="l" d="M549.1 741.1c-.6.2 2.8 3.9 2.2 5.4s-7.3.5-8 1.2c-.8.7 6.9 2 9.4.9 2.7-1-2.3-8-3.6-7.5z"/><path id="m" d="M553.5 752c-.8.6-1.4 1.6-5.6 1.5-4.2 0-9.7-.1-9.9 1s15.7 1 17.1-.4c1.5-1.4-.6-2.9-1.6-2.1z"/><path id="n" d="M555.8 756.7c-.9.6-1.7 1.6-6.8 1.5-5.1 0-11.8-.1-12.1 1s19.1 1 20.8-.4c1.8-1.4-.6-2.8-1.9-2.1z"/><path id="o" d="M593.6 762.8l-1.4 1.5-17.5 18.2-.8.8.1.4.2.6 16.4-17 4.2-4.4v-.1z"/><path id="p" d="M580.2 786l-4.2 4.4.3 1 2.2-2.4 11.5-11.8 1.5-1.6.5-1.8-.3.3z"/><path id="q" d="M570.1 763.3h-1.2l12.6 12.1 8.1 7.8.2-1-7.9-7.6z"/><path id="r" d="M573.5 750.8s-6.2.4-4.3 4.6c0 0-4.2 1.4-.7 5 0 0-4.5.8-1.2 4.2s24.9 2.5 27.6.3c-4.2 1.9-17.5 1.6-22.5.9s-5-2.5-4.1-3.5c.7-.7 13.3.8 19.3-.1 6-.8 4.2-.9-7-.8s-12.7-2.5-12.4-3.2c.3-.8 2.3-1.2 11.9-.7s13.1-3 8.4-1.8-18.3.8-19-.8c-.8-1.5 1.2-2.9 5.9-3.2s9.7-1.4 4.3-1.4-6.1-1.6-4.6-3.1c-2 1.4-2.3 2.8-1.6 3.6z"/><path id="s" d="M590.5 756.7c-.9.6-1.7 1.6-6.8 1.5-5.1 0-11.8-.1-12.1 1s19.1 1 20.8-.4c1.8-1.4-.7-2.8-1.9-2.1z"/><path id="t" d="M570.7 763.8c-.6 1.1 21.8 1.8 23 .4s-22.4-1.5-23-.4z"/><path id="u" d="M351.2 588.8V613c0 11.6-9.5 21-21.1 21-11.7 0-21.1-9.4-21.1-21v-24.2h42.2z"/><path id="v" d="M351.2 563.9h42.3v24.9h-42.3z"/><path id="w" d="M218.6 956.9h-23.4a8.71 8.71 0 0 1-8.7-8.7V945a8.71 8.71 0 0 1 8.7-8.7h23.4a8.71 8.71 0 0 1 8.7 8.7v3.1c0 4.9-3.9 8.8-8.7 8.8z"/></defs><clipPath id="x"><use xlink:href="#P"/></clipPath><g clip-path="url(#x)"><linearGradient id="y" gradientUnits="userSpaceOnUse" x1="717.957" y1="1027.876" x2="717.957" y2="898.951"><stop offset="0" stop-color="#4fbbbf"/><stop offset="1" stop-color="#86d0d3"/></linearGradient><path fill="url(#y)" d="M163.5 882.6h1108.9v144.2H163.5z"/><linearGradient id="z" gradientUnits="userSpaceOnUse" x1="717.957" y1="1017.876" x2="717.957" y2="915.156"><stop offset="0" stop-color="#e283ad"/><stop offset="1" stop-color="#ecaec9"/></linearGradient><path fill="url(#z)" d="M163.5 918h1108.9v68.6H163.5z"/><g class="D"><path d="M163.5 910.6h1108.9v7.3H163.5zm0 75.9h1108.9v7.3H163.5z"/></g></g><linearGradient id="AA" gradientUnits="userSpaceOnUse" x1="619.185" y1="519.384" x2="619.185" y2="498.182"><stop offset="0" stop-color="#e283ad"/><stop offset="1" stop-color="#ecaec9"/></linearGradient><path fill="url(#AA)" d="M1072.8 523.5H165.5c5.1-14.8 19.1-25.4 35.7-25.4h836c15.9 0 30.2 10 35.5 25l.1.4z"/><linearGradient id="AB" gradientUnits="userSpaceOnUse" x1="1085.096" y1="588.876" x2="1085.096" y2="762.618"><stop offset=".113" stop-color="#566672"/><stop offset="1" stop-color="#98a2a9"/></linearGradient><path fill="url(#AB)" d="M1129.6 767.3c-1.9 2.7-4.9 4.2-8.2 4.2h-72.5a10.07 10.07 0 0 1-10.1-10.1V613.1a10.07 10.07 0 0 1 10.1-10.1h22c4.3 0 8.2 2.7 9.6 6.8l2.1 6.1 30 88 18.5 54.2c.9 3.2.4 6.5-1.5 9.2z"/><path opacity=".11" d="M1103.4 677.2l-39.5 94.3h-15a10.07 10.07 0 0 1-10.1-10.1v-43.9l42.6-101.5h1.2l20.8 61.2z" class="D"/><path d="M1070.8 607c2.6 0 4.9 1.7 5.8 4.1l50.5 148.3a6.29 6.29 0 0 1-.8 5.5c-1.2 1.6-3 2.5-4.9 2.5H1081h-32.1a6.06 6.06 0 0 1-6.1-6.1V613.1a6.06 6.06 0 0 1 6.1-6.1h21.9m0-8h-22c-7.8 0-14.1 6.3-14.1 14.1v148.3c0 7.8 6.3 14.1 14.1 14.1h32.1 40.4c9.7 0 16.5-9.5 13.4-18.7l-50.5-148.3c-2-5.7-7.3-9.5-13.4-9.5h0z" class="I"/><linearGradient id="AC" gradientUnits="userSpaceOnUse" x1="918.194" y1="584.344" x2="918.194" y2="747.549"><stop offset=".113" stop-color="#566672"/><stop offset="1" stop-color="#98a2a9"/></linearGradient><path fill="url(#AC)" d="M996.9 621.1v132.4a18.1 18.1 0 0 1-18.1 18.1H857.6c-9.6 0-17.5-7.5-18-17v-1.1-132.4a18.1 18.1 0 0 1 18.1-18.1h121.2a17.33 17.33 0 0 1 3.2.3c3.6.6 6.8 2.3 9.3 4.7 3.3 3.3 5.5 7.9 5.5 13.1z"/><path opacity=".11" d="M971.1 603l-70.6 168.5h-42.9c-9.6 0-17.5-7.5-18-17L903 603h68.1zm20.2 5l-68.5 163.5h-11.3L982 603.3c3.5.6 6.8 2.3 9.3 4.7z" class="D"/><path d="M978.8 607c7.7 0 14 6.3 14 14v132.4c0 7.7-6.3 14-14 14H857.6c-7.7 0-14-6.3-14-14V621.1c0-7.7 6.3-14 14-14h121.2m0-8.1H857.6c-12.2 0-22.1 9.9-22.1 22.1v132.4c0 12.2 9.9 22.1 22.1 22.1h121.2c12.2 0 22.1-9.9 22.1-22.1V621.1c0-12.2-9.9-22.1-22.1-22.1h0z" class="I"/><linearGradient id="AD" gradientUnits="userSpaceOnUse" x1="598.124" y1="635.699" x2="598.124" y2="796.531"><stop offset=".113" stop-color="#566672"/><stop offset="1" stop-color="#98a2a9"/></linearGradient><path fill="url(#AD)" d="M691.1 607H505.2c-10 0-18.2 8.2-18.2 18.2v173.1c0 10 8.2 18.2 18.2 18.2h185.9c10 0 18.2-8.2 18.2-18.2V625.2c-.1-10-8.2-18.2-18.2-18.2z"/><defs><path id="AE" d="M691.1 607H505.2c-10 0-18.2 8.2-18.2 18.2v173.1c0 10 8.2 18.2 18.2 18.2h185.9c10 0 18.2-8.2 18.2-18.2V625.2c-.1-10-8.2-18.2-18.2-18.2z"/></defs><clipPath id="AF"><use xlink:href="#AE"/></clipPath><g clip-path="url(#AF)"><g class="B"><use xlink:href="#Q" class="E"/><use xlink:href="#R" class="F"/></g><g class="C"><path d="M511.3 805.5l4.6-4.6.4-1.8-5.2 5.5zm5.4-42.5h-.4-.9l-12.8 13.3.3 1 13-13.5z"/><use xlink:href="#S"/><use xlink:href="#T"/><use xlink:href="#U"/><use xlink:href="#V"/><use xlink:href="#W"/><use xlink:href="#X"/><path d="M509.6 799.5l5.3 5.2.2-1-6.1-5.9z"/><use xlink:href="#Y"/><path d="M519.2 763v-.1l-1.3.1.9.8 5.3 5.1.3-1zm-9.1.1h-1.3l6.7 6.5 6.8 6.5.2-1-6.5-6.3z"/></g><g class="B G"><use xlink:href="#Z"/><use xlink:href="#a"/></g><use xlink:href="#b" fill="#eebcd6"/><use xlink:href="#c" fill="#e2a1c7"/><g fill="#f3d9e8"><use xlink:href="#d"/><use xlink:href="#e"/><use xlink:href="#f"/><use xlink:href="#g"/></g><g class="B"><path d="M533.2 763.3l12.9 43.1c.9 2.6 2.4 1.7 2.8 0l11.2-43.6-26.9.5z" class="E"/><path d="M533.2 763.3l26.9-.5-1 3.7c-3.4 1.7-7.8 2.7-12.7 2.8-4.5.1-8.7-.6-12-1.9l-1.2-4.1z" class="F"/></g><g class="C"><use xlink:href="#h"/><path d="M551.2 763h-.4-.9l-12.8 13.3.3 1 12.9-13.5z"/><use xlink:href="#i"/><path d="M540.8 763.2l-5.8 6 .3 1 6.8-7zm2.6 34.3l.3.8v.2l9.9-10.3.5-1.8-9.1 9.5zm2.2-11.5l-4.3 4.4.3 1 2.3-2.4 11.4-11.8 1.6-1.6.4-1.8-.3.3z"/><path d="M536.1 772.7l.5 1.8 7 6.7 9.5 9.2.2-1-9.3-9zm3.7 12.6l.5 1.7.1.1 10.8 10.4.3-1-10.7-10.2zm4.2 14.2l5.4 5.2.2-1-6.1-5.9zm-8.5-36.2h-1.3l12.6 12.1 8.1 7.8.3-1-7.9-7.6zm18.2-.3v-.1l-1.3.1.8.8 5.4 5.1.2-1z"/><use xlink:href="#j"/></g><g class="B G"><path d="M545 769.4h-1.2l6.1-6.3h1.3l-6.2 6.3zm10.1-1.3c-.5.2-1.1.3-1.7.4l5.5-5.7h1.2v.1l-5 5.2zm-14.3-4.9h1.3l-4.9 5.1-1-.3 4.6-4.8z"/><path d="M550.7 769c-.4.1-.8.1-1.2.1l-6.3-6h1.3l6.2 5.9zm7.3-1.9c-.3.1-.6.2-.9.4l-4.7-4.5h1.3l4.3 4.1zm-23.8-3.8h1.3l6.1 5.8c-.5-.1-1-.1-1.5-.2l-5.9-5.6z"/></g><use xlink:href="#k" fill="#8a3520"/><path fill="#772919" d="M538.8 750.8s-6.2.4-4.3 4.6c0 0-4.2 1.4-.7 5 0 0-4.5.8-1.2 4.2s24.9 2.5 27.6.3c-4.2 1.9-17.5 1.6-22.5.9s-5-2.5-4.1-3.5c.7-.7 13.3.8 19.3-.1 6-.8 4.2-.9-7-.8s-12.7-2.5-12.4-3.2c.3-.8 2.3-1.2 11.9-.7s13.1-3 8.4-1.8-18.3.8-19-.8 1.2-2.9 5.9-3.2 9.7-1.4 4.3-1.4-6.1-1.6-4.6-3.1c-2 1.4-2.3 2.8-1.6 3.6z"/><g fill="#a34c3c"><use xlink:href="#l"/><use xlink:href="#m"/><use xlink:href="#n"/><path d="M536 763.8c-.6 1.1 21.8 1.8 23 .4 1.3-1.4-22.3-1.5-23-.4z"/></g><g class="B"><path d="M567.9 763.3l12.9 43.1c.9 2.6 2.4 1.7 2.8 0l11.2-43.6-26.9.5z" class="E"/><path d="M567.9 763.3l26.9-.5-1 3.7c-3.4 1.7-7.8 2.7-12.7 2.8-4.5.1-8.7-.6-12-1.9l-1.2-4.1z" class="F"/></g><g class="C"><path d="M580.5 805.5l4.5-4.6.5-1.8-5.3 5.5zm5.3-42.5h-.3-1l-12.7 13.3.3 1 12.9-13.5z"/><use xlink:href="#o"/><path d="M575.5 763.2l-5.8 6 .3 1 6.7-7zm2.6 34.3l.2.8.1.2 9.9-10.3.4-1.8-9 9.5z"/><use xlink:href="#p"/><path d="M570.7 772.7l.5 1.8 7 6.7 9.5 9.2.3-1-9.3-9zm3.8 12.6l.5 1.7v.1l10.9 10.4.2-1-10.6-10.2zm4.2 14.2l5.3 5.2.3-1-6.1-5.9z"/><use xlink:href="#q"/><path d="M588.4 763l-.1-.1-1.3.1.9.8 5.3 5.1.3-1zm-9.2.1H578l6.7 6.5 6.7 6.5.3-1-6.6-6.3z"/></g><g class="B G"><path d="M579.7 769.4h-1.2l6.1-6.3h1.3l-6.2 6.3zm10.1-1.3c-.5.2-1.1.3-1.7.4l5.5-5.7h1.2v.1l-5 5.2zm-14.3-4.9h1.3l-4.9 5.1-1-.3 4.6-4.8z"/><path d="M585.4 769c-.4.1-.8.1-1.2.1l-6.3-6h1.3l6.2 5.9zm7.2-1.9c-.3.1-.6.2-.9.4L587 763h1.3l4.3 4.1zm-23.7-3.8h1.3l6.1 5.8c-.5-.1-1-.1-1.5-.2l-5.9-5.6z"/></g><path fill="#f7f8dc" d="M582.9 739.8c-2.5-1.4 2.6 4.8-2.7 5.7-6.5 1.1-7.9 3.9-6.8 5.2 0 0-6.2.4-4.3 4.6 0 0-4.2 1.4-.7 5 0 0-4.5.8-1.2 4.2s24.9 2.5 27.6.3c2.8-2.2.1-3.5-1.5-3.5 0 0 2.5-4.7-2-6.5 0 0 1-3.9-3.3-4.2 2.8-1.1 2.8-6.4-5.1-10.8h0z"/><use xlink:href="#r" fill="#e7e7c7"/><g class="D"><path d="M583.8 741.1c-.6.2 2.8 3.9 2.2 5.4s-7.3.5-8 1.2c-.8.7 6.9 2 9.4.9 2.6-1-2.4-8-3.6-7.5zm4.4 10.9c-.8.6-1.4 1.6-5.6 1.5-4.2 0-9.7-.1-9.9 1s15.7 1 17.1-.4-.6-2.9-1.6-2.1z"/><use xlink:href="#s"/><use xlink:href="#t"/></g><path fill="#ecece8" d="M493.2 772.7v48.5h108.7v-48.5H493.2zm71 41.8l-13.3-15.1h-.2-6.5-.2l-13.3 15.1h-1.3l-13.3-15.1h-.1-6.5-.2l-9.4 10.7v-30.6h95.3v30.7l-9.5-10.8h-.2-6.5-.2l-13.3 15.1h-1.3z"/><g fill="#ddddd7"><path d="M512.1 799.3l-5 15.9h-7.4V810l9.8-10.7zm35.4 0l-4.9 15.2h-11.8l13.2-15.2zm34.6 0l-4.8 15.2h-11.9l13.3-15.2z"/></g><g class="B"><path d="M600.8 763.3l12.9 43.1c.9 2.6 2.4 1.7 2.8 0l11.2-43.6-26.9.5z" class="E"/><path d="M600.8 763.3l26.9-.5-1 3.7c-3.4 1.7-7.8 2.7-12.7 2.8-4.5.1-8.7-.6-12-1.9l-1.2-4.1z" class="F"/></g><g class="C"><path d="M613.3 805.5l4.5-4.6.5-1.8-5.3 5.5zm5.4-42.5h-.4-.9l-12.8 13.3.3 1 13-13.5zm7.8-.2l-1.4 1.5-17.6 18.2-.8.8.1.4.2.6 16.4-17 4.3-4.4v-.1zm-18.2.4l-5.8 6 .3 1 6.8-7zm2.6 34.3l.3.8v.2l9.9-10.3.5-1.8-9.1 9.5zm2.2-11.5l-4.3 4.4.3 1 2.3-2.4 11.4-11.8 1.6-1.6.4-1.8-.3.3z"/><path d="M603.6 772.7l.5 1.8 7 6.7 9.5 9.2.2-1-9.3-9zm3.7 12.6l.5 1.7.1.1 10.8 10.4.3-1-10.7-10.2zm4.3 14.2l5.3 5.2.2-1-6.1-5.9zm-8.6-36.2h-1.3l12.6 12.1 8.1 7.8.3-1-7.9-7.6zm18.2-.3v-.1l-1.3.1.8.8 5.4 5.1.3-1zm-9.1.1h-1.3l6.7 6.5 6.7 6.5.3-1-6.5-6.3z"/></g><g class="B G"><path d="M612.5 769.4h-1.2l6.1-6.3h1.3l-6.2 6.3zm10.1-1.3c-.5.2-1.1.3-1.7.4l5.5-5.7h1.2v.1l-5 5.2zm-14.3-4.9h1.3l-4.9 5.1-1-.3 4.6-4.8z"/><path d="M618.2 769c-.4.1-.8.1-1.2.1l-6.3-6h1.3l6.2 5.9zm7.3-1.9c-.3.1-.6.2-.9.4l-4.7-4.5h1.3l4.3 4.1zm-23.8-3.8h1.3l6.1 5.8c-.5-.1-1-.1-1.5-.2l-5.9-5.6z"/></g><path fill="#eebcd6" d="M615.8 739.8c-2.5-1.4 2.6 4.8-2.7 5.7-6.5 1.1-7.9 3.9-6.8 5.2 0 0-6.2.4-4.3 4.6 0 0-4.2 1.4-.7 5 0 0-4.5.8-1.2 4.2s24.9 2.5 27.6.3c2.8-2.2.1-3.5-1.5-3.5 0 0 2.5-4.7-2-6.5 0 0 1-3.9-3.3-4.2 2.7-1.1 2.7-6.4-5.1-10.8h0z"/><path fill="#e2a1c7" d="M606.3 750.8s-6.2.4-4.3 4.6c0 0-4.2 1.4-.7 5 0 0-4.5.8-1.2 4.2s24.9 2.5 27.6.3c-4.2 1.9-17.5 1.6-22.5.9s-5-2.5-4.1-3.5c.7-.7 13.3.8 19.3-.1 6-.8 4.2-.9-7-.8s-12.7-2.5-12.4-3.2c.3-.8 2.3-1.2 11.9-.7s13.1-3 8.4-1.8-18.3.8-19-.8c-.8-1.5 1.2-2.9 5.9-3.2s9.7-1.4 4.3-1.4-6.1-1.6-4.6-3.1c-2 1.4-2.3 2.8-1.6 3.6z"/><g fill="#f3d9e8"><path d="M616.7 741.1c-.6.2 2.8 3.9 2.2 5.4s-7.3.5-8 1.2c-.8.7 6.9 2 9.4.9 2.6-1-2.4-8-3.6-7.5zM621 752c-.8.6-1.4 1.6-5.6 1.5-4.2 0-9.7-.1-9.9 1s15.7 1 17.1-.4c1.5-1.4-.6-2.9-1.6-2.1zm2.3 4.7c-.9.6-1.7 1.6-6.8 1.5-5.1 0-11.8-.1-12.1 1s19.1 1 20.8-.4c1.9-1.4-.6-2.8-1.9-2.1zm-19.8 7.1c-.6 1.1 21.8 1.8 23 .4 1.3-1.4-22.3-1.5-23-.4z"/></g><g class="B"><path d="M635.2 763.3l12.9 43.1c.9 2.6 2.4 1.7 2.8 0l11.2-43.6-26.9.5z" class="E"/><path d="M635.2 763.3l26.9-.5-1 3.7c-3.4 1.7-7.8 2.7-12.7 2.8-4.5.1-8.7-.6-12-1.9l-1.2-4.1z" class="F"/></g><g class="C"><path d="M647.8 805.5l4.5-4.6.5-1.8-5.3 5.5zm5.3-42.5h-.3-.9l-12.8 13.3.3 1 12.9-13.5zm7.9-.2l-1.4 1.5-17.6 18.2-.8.8.1.4.2.6 16.4-17 4.2-4.4.1-.1zm-18.2.4l-5.8 6 .3 1 6.8-7zm2.6 34.3l.3.8v.2l9.9-10.3.5-1.8-9.1 9.5zm2.2-11.5l-4.3 4.4.3 1 2.3-2.4 11.4-11.8 1.6-1.6.4-1.8-.3.3z"/><path d="M638.1 772.7l.5 1.8 7 6.7 9.4 9.2.3-1-9.3-9zm3.7 12.6l.5 1.7.1.1 10.8 10.4.3-1-10.7-10.2zm4.2 14.2l5.4 5.2.2-1-6.1-5.9zm-8.5-36.2h-1.3l12.6 12.1 8.1 7.8.3-1-7.9-7.6zm18.2-.3v-.1l-1.3.1.8.8 5.4 5.1.2-1zm-9.1.1h-1.3l6.7 6.5 6.7 6.5.3-1-6.5-6.3z"/></g><g class="B G"><path d="M647 769.4h-1.2l6.1-6.3h1.3l-6.2 6.3zm10.1-1.3c-.5.2-1.1.3-1.7.4l5.5-5.7h1.2v.1l-5 5.2zm-14.3-4.9h1.3l-4.9 5.1-1-.3 4.6-4.8z"/><path d="M652.7 769c-.4.1-.8.1-1.2.1l-6.3-6h1.3l6.2 5.9zm7.3-1.9c-.3.1-.6.2-.9.4l-4.7-4.5h1.3l4.3 4.1zm-23.8-3.8h1.3l6.1 5.8c-.5-.1-1-.1-1.5-.2l-5.9-5.6z"/></g><path fill="#8a3520" d="M650.2 739.8c-2.5-1.4 2.6 4.8-2.7 5.7-6.5 1.1-7.9 3.9-6.8 5.2 0 0-6.2.4-4.3 4.6 0 0-4.2 1.4-.7 5 0 0-4.5.8-1.2 4.2s24.9 2.5 27.6.3c2.8-2.2.1-3.5-1.5-3.5 0 0 2.5-4.7-2-6.5 0 0 1-3.9-3.3-4.2 2.8-1.1 2.8-6.4-5.1-10.8h0z"/><path fill="#772919" d="M640.8 750.8s-6.2.4-4.3 4.6c0 0-4.2 1.4-.7 5 0 0-4.5.8-1.2 4.2s24.9 2.5 27.6.3c-4.2 1.9-17.5 1.6-22.5.9s-5-2.5-4.1-3.5c.7-.7 13.3.8 19.3-.1 6-.8 4.2-.9-7-.8s-12.7-2.5-12.4-3.2c.3-.8 2.3-1.2 11.9-.7s13.1-3 8.4-1.8-18.3.8-19-.8c-.8-1.5 1.2-2.9 5.9-3.2s9.7-1.4 4.3-1.4-6.1-1.6-4.6-3.1c-2 1.4-2.3 2.8-1.6 3.6z"/><g fill="#a34c3c"><path d="M651.1 741.1c-.6.2 2.8 3.9 2.2 5.4s-7.3.5-8 1.2c-.8.7 6.9 2 9.4.9 2.7-1-2.3-8-3.6-7.5zm4.4 10.9c-.8.6-1.4 1.6-5.6 1.5-4.2 0-9.7-.1-9.9 1s15.7 1 17.1-.4-.6-2.9-1.6-2.1zm2.3 4.7c-.9.6-1.7 1.6-6.8 1.5-5.1 0-11.8-.1-12.1 1s19.1 1 20.8-.4c1.8-1.4-.6-2.8-1.9-2.1zm-19.8 7.1c-.6 1.1 21.8 1.8 23 .4 1.3-1.4-22.3-1.5-23-.4z"/></g><g class="B"><path d="M669.9 763.3l12.9 43.1c.9 2.6 2.4 1.7 2.8 0l11.2-43.6-26.9.5z" class="E"/><path d="M669.9 763.3l26.9-.5-1 3.7c-3.4 1.7-7.8 2.7-12.7 2.8-4.5.1-8.7-.6-12-1.9l-1.2-4.1z" class="F"/></g><g class="C"><path d="M682.5 805.5l4.5-4.6.5-1.8-5.3 5.5zm5.3-42.5h-.3-1l-12.7 13.3.3 1 12.9-13.5zm7.8-.2l-1.4 1.5-17.5 18.2-.8.8.1.4.2.6 16.4-17 4.2-4.4v-.1zm-18.2.4l-5.7 6 .2 1 6.8-7zm2.7 34.3l.2.8.1.2 9.9-10.3.4-1.8-9.1 9.5zm2.1-11.5l-4.2 4.4.3 1 2.2-2.4 11.5-11.8 1.5-1.6.5-1.8-.3.3z"/><path d="M672.7 772.7l.5 1.8 7 6.7 9.5 9.2.3-1-9.3-9zm3.7 12.6l.6 1.7v.1l10.9 10.4.2-1-10.6-10.2zm4.3 14.2l5.3 5.2.3-1-6.1-5.9zm-8.6-36.2h-1.2l12.6 12.1 8.1 7.8.2-1-7.9-7.6zm18.2-.3v-.1l-1.3.1.9.8 5.3 5.1.3-1zm-9.1.1H680l6.7 6.5 6.7 6.5.3-1-6.6-6.3z"/></g><g class="B G"><path d="M681.7 769.4h-1.2l6.1-6.3h1.3l-6.2 6.3zm10.1-1.3c-.5.2-1.1.3-1.7.4l5.5-5.7h1.2v.1l-5 5.2zm-14.4-4.9h1.3l-4.9 5.1-1-.3 4.6-4.8z"/><path d="M687.4 769c-.4.1-.8.1-1.2.1l-6.3-6h1.3l6.2 5.9zm7.2-1.9c-.3.1-.6.2-.9.4L689 763h1.3l4.3 4.1zm-23.7-3.8h1.3l6.1 5.8c-.5-.1-1-.1-1.5-.2l-5.9-5.6z"/></g><path fill="#f7f8dc" d="M684.9 739.8c-2.5-1.4 2.6 4.8-2.7 5.7-6.5 1.1-7.9 3.9-6.8 5.2 0 0-6.2.4-4.3 4.6 0 0-4.2 1.4-.7 5 0 0-4.5.8-1.2 4.2s24.9 2.5 27.6.3c2.8-2.2.1-3.5-1.5-3.5 0 0 2.5-4.7-2-6.5 0 0 1-3.9-3.3-4.2 2.8-1.1 2.7-6.4-5.1-10.8h0z"/><path fill="#e7e7c7" d="M675.4 750.8s-6.2.4-4.3 4.6c0 0-4.2 1.4-.7 5 0 0-4.5.8-1.2 4.2s24.9 2.5 27.6.3c-4.2 1.9-17.5 1.6-22.5.9s-5-2.5-4.1-3.5c.7-.7 13.3.8 19.3-.1 6-.8 4.2-.9-7-.8s-12.7-2.5-12.4-3.2c.3-.8 2.3-1.2 11.9-.7s13.1-3 8.4-1.8-18.3.8-19-.8 1.2-2.9 5.9-3.2 9.7-1.4 4.3-1.4-6.1-1.6-4.6-3.1c-1.9 1.4-2.2 2.8-1.6 3.6z"/><g class="D"><path d="M685.8 741.1c-.6.2 2.8 3.9 2.2 5.4s-7.3.5-8 1.2c-.8.7 6.9 2 9.4.9 2.6-1-2.4-8-3.6-7.5zm4.4 10.9c-.8.6-1.4 1.6-5.6 1.5-4.2 0-9.7-.1-9.9 1s15.7 1 17.1-.4-.6-2.9-1.6-2.1zm2.3 4.7c-.9.6-1.7 1.6-6.8 1.5-5.1 0-11.8-.1-12.1 1s19.1 1 20.8-.4c1.8-1.4-.7-2.8-1.9-2.1zm-19.8 7.1c-.6 1.1 21.8 1.8 23 .4s-22.4-1.5-23-.4z"/></g><path fill="#ecece8" d="M595.2 772.7v48.5h108.7v-48.5H595.2zm71 41.8l-13.3-15.1h-.2-6.5-.2l-13.3 15.1h-1.3l-13.3-15.1h-.1-6.5-.2l-9.4 10.7v-30.6h95.3v30.7l-9.5-10.8h-.2-6.5-.2l-13.3 15.1h-1.3z"/><g fill="#ddddd7"><path d="M614.1 799.3l-5 15.9h-7.4V810l9.8-10.7zm35.4 0l-4.9 15.2h-11.9l13.3-15.2zm34.6 0l-4.8 15.2h-11.9l13.3-15.2z"/></g></g><path d="M691.1 599H505.2c-14.5 0-26.2 11.7-26.2 26.2v173.1c0 14.5 11.7 26.2 26.2 26.2h185.9c14.5 0 26.2-11.7 26.2-26.2V625.2c0-14.5-11.7-26.2-26.2-26.2zm18.1 199.3c0 10-8.2 18.2-18.2 18.2H505.2c-10 0-18.2-8.2-18.2-18.2V625.2c0-10 8.2-18.2 18.2-18.2h185.9c10 0 18.2 8.2 18.2 18.2v173.1z" class="I"/><linearGradient id="AG" gradientUnits="userSpaceOnUse" x1="366.234" y1="610.935" x2="366.234" y2="776.7"><stop offset=".113" stop-color="#566672"/><stop offset="1" stop-color="#98a2a9"/></linearGradient><path fill="url(#AG)" d="M309.1 773.8c-12.1 0-21.9-9.8-21.9-21.9V627.1c0-12.1 9.8-21.9 21.9-21.9h114.2c12.1 0 21.9 9.8 21.9 21.9v124.7c0 12.1-9.8 21.9-21.9 21.9H309.1z"/><path d="M423.4 607c9.9 0 17.9 8 17.9 17.9v124.7c0 9.9-8 17.9-17.9 17.9H309.1c-9.9 0-17.9-8-17.9-17.9V624.9c0-9.9 8-17.9 17.9-17.9h114.3m0-8H309.1a25.91 25.91 0 0 0-25.9 25.9v124.7a25.91 25.91 0 0 0 25.9 25.9h114.2a25.91 25.91 0 0 0 25.9-25.9V624.9c.1-14.3-11.5-25.9-25.8-25.9h0z" class="I"/><linearGradient id="AH" gradientUnits="userSpaceOnUse" x1="287.824" y1="1017.876" x2="287.824" y2="915.156"><stop offset="0" stop-color="#e283ad"/><stop offset="1" stop-color="#ecaec9"/></linearGradient><path fill="url(#AH)" d="M309 588.8V613c0 11.6-9.5 21-21.1 21-11.7 0-21.1-9.4-21.1-21v-24.2H309z"/><path d="M266.7 563.9H309v24.9h-42.3z" class="H"/><use xlink:href="#u" class="J"/><path d="M309 563.9h42.3v24.9H309z" class="K"/><use xlink:href="#u" x="42.3" class="L"/><use xlink:href="#v" class="M"/><linearGradient id="AI" gradientUnits="userSpaceOnUse" x1="330.105" y1="1017.876" x2="330.105" y2="915.156"><stop offset="0" stop-color="#e283ad"/><stop offset="1" stop-color="#ecaec9"/></linearGradient><use xlink:href="#u" x="84.5" fill="url(#AI)"/><use xlink:href="#v" x="42.3" class="H"/><path d="M478 588.8V613c0 11.6-9.5 21-21.1 21-11.7 0-21.1-9.4-21.1-21v-24.2H478z" class="J"/><path d="M435.7 563.9H478v24.9h-42.3z" class="K"/><use xlink:href="#u" x="169.1" class="L"/><path d="M478 563.9h42.3v24.9H478z" class="M"/><linearGradient id="AJ" gradientUnits="userSpaceOnUse" x1="330.083" y1="1017.876" x2="330.083" y2="915.156"><stop offset="0" stop-color="#e283ad"/><stop offset="1" stop-color="#ecaec9"/></linearGradient><use xlink:href="#u" x="211.3" fill="url(#AJ)"/><use xlink:href="#v" x="169.1" class="H"/><use xlink:href="#u" x="253.6" class="J"/><use xlink:href="#v" x="211.3" class="K"/><path d="M647,588.8V613c0,11.6-9.5,21-21.1,21s-21.1-9.4-21.1-21v-24.2H647z" class="L"/><use xlink:href="#v" x="253.6" class="M"/><linearGradient id="AK" gradientUnits="userSpaceOnUse" x1="668.161" y1="1017.876" x2="668.161" y2="915.156"><stop offset="0" stop-color="#e283ad"/><stop offset="1" stop-color="#ecaec9"/></linearGradient><path fill="url(#AK)" d="M689.3 588.8V613c0 11.6-9.5 21-21.1 21s-21.1-9.4-21.1-21v-24.2h42.2z"/><path d="M647 563.9h42.3v24.9H647z" class="H"/><use xlink:href="#u" x="380.4" class="J"/><use xlink:href="#v" x="338.1" class="K"/><linearGradient id="AL" gradientUnits="userSpaceOnUse" x1="1278.662" y1="1068.16" x2="1278.662" y2="973.444"><stop offset=".043" stop-color="#8a959d"/><stop offset="1" stop-color="#d5d9dc"/></linearGradient><path fill="url(#AL)" d="M1287.2 1044.8h-17c-8.6 0-15.6-7-15.6-15.6v-41c0-8.6 7-15.6 15.6-15.6h17c8.6 0 15.6 7 15.6 15.6v41c0 8.6-7 15.6-15.6 15.6z"/><linearGradient id="AM" gradientUnits="userSpaceOnUse" x1="172.901" y1="1058.089" x2="172.901" y2="977.514"><stop offset=".043" stop-color="#8a959d"/><stop offset="1" stop-color="#d5d9dc"/></linearGradient><path fill="url(#AM)" d="M188.8 1044.8H157c-8.6 0-15.6-7-15.6-15.6v-41c0-8.6 7-15.6 15.6-15.6h31.8c8.6 0 15.6 7 15.6 15.6v41c0 8.6-7 15.6-15.6 15.6z"/><linearGradient id="AN" gradientUnits="userSpaceOnUse" x1="206.905" y1="955.364" x2="206.905" y2="937.236"><stop offset="0" stop-color="#ff8300"/><stop offset="1" stop-color="#ffae00"/></linearGradient><use xlink:href="#w" fill="url(#AN)"/><linearGradient id="AO" gradientUnits="userSpaceOnUse" x1="206.899" y1="955.364" x2="206.899" y2="937.236"><stop offset="0" stop-color="#ff8300"/><stop offset="1" stop-color="#ffae00"/></linearGradient><use xlink:href="#w" x="1027.2" fill="url(#AO)"/><g class="H"><path d="M219.3 846.8h-9.2l9.3-43.4c-5.6 2.3-8.9 7.1-8.9 13.9 0 3.3.8 3.8.9 4.3-4.4 0-6.8-1.6-6.8-6.2 0-8.5 11.8-16.6 22.4-16.6.9 0 1.7.1 2.6.1l-10.3 47.9zm27.3-26.6c0-1.6-.6-2.6-1.8-2.6-4 0-8.2 11.7-8.2 18.8 0 4.3 1.5 5.4 4.6 5.4 5 0 8.1-2.8 11.3-6.5h2.2c-3.6 5.9-9.1 11.8-17.6 11.8-6 0-10-2.9-10-10.2 0-7.4 4.2-22.8 17.2-22.8 5.7 0 7.1 2.9 7.1 5.9 0 3.1-1.5 4.7-3.4 4.7-.7 0-1.5-.3-2.2-.8.6-1.3.8-2.6.8-3.7z"/><path d="M265.1 841.1c2.4 0 5.5-1.6 7.5-3.4-1.3 7.3-5.9 9.5-11.1 9.5-5.9 0-9.9-2.9-9.9-10.2 0-7.4 4.2-22.8 17.3-22.8 5.7 0 7 2.9 7 6.1 0 7.4-7 13-14.7 13.5-.1.6-.1 1.3-.1 1.9 0 4.1 1.8 5.4 4 5.4zm4.3-23.5c-3.2 0-6.4 7.1-7.7 13.2 5-.3 9.3-5.2 9.3-10.5 0-1.7-.3-2.7-1.6-2.7zm53.9 18.3c-3.4 8.6-12.4 11.9-18.2 11.9-9.5 0-14-4.2-14-15.7 0-11.6 5.6-33.2 22.3-33.2 6 0 10.7 2.4 10.7 8.6 0 3.4-1.2 5.9-4.5 5.9-1 0-2.4-.3-3.6-1.7 1.5-.8 2.9-3.5 2.9-5.9 0-2-1-3.9-3.9-3.9-7 0-13.3 16.8-13.3 29.8 0 5.9 1.5 10 7.7 10 5 0 9.5-2.4 12.5-6.4l1.4.6z"/><path d="M335.1 814.8l-.8 4c2.2-1.9 4.7-4 7.7-4 2.9 0 4.4 2.4 4.4 4.8 0 2.2-1.5 4.7-4.6 4.7-3.6 0-1.8-4.2-3.7-4.2s-3.1 1-4.7 2.4l-5.1 24.3h-9.2l6.8-32h9.2zm23.8 27c5 0 8.1-2.8 11.3-6.5h2.2c-3.6 5.9-9.1 11.8-17.6 11.8-6 0-10-2.9-10-10.2 0-7.4 4.2-22.8 17.3-22.8 5.7 0 7 2.9 7 6.1 0 7.4-7 13-14.7 13.5-.1.9-.1 1.8-.1 2.6 0 4.5 1.5 5.5 4.6 5.5zm3.7-24.2c-3.3 0-6.4 6.8-7.7 13.2 4.9-.3 9.3-5.2 9.3-10.5 0-1.7-.4-2.7-1.6-2.7z"/><path d="M400.9 814.8l-4.6 21.7c-.2.8-.3 1.5-.3 2 0 1.8.8 2.7 2.6 2.7 2.5 0 4.2-2.8 5.2-6h2.7c-3.6 10.4-9.4 11.8-12.8 11.8-3.6 0-5.9-2-6.3-5.9-2 2.9-5 5.9-9.5 5.9-4.3 0-8.5-2.7-8.5-10.3 0-8.6 5.3-22.4 16.4-22.4 3.6 0 5.2 1.4 5.2 3.3v.4l.7-3.4h9.2zM378.8 836c0 4.9 2 5 3.2 5 1.9 0 4.5-1.9 5.3-5.6l3.1-14.4a2.45 2.45 0 0 0-2.6-2.4c-5.5-.2-9 11.4-9 17.4z"/><path d="M435.7 820.4c-2.3 0-4 2.7-5 5.9l-4.3 20.5h-9.2l4.7-22.1c.1-.5.2-1 .2-1.6 0-1.4-.5-2.8-1.9-2.8-2.5 0-4.2 2.7-5.2 5.9l-4.3 20.5h-9.2l6.8-32h9.2l-.7 3.3c2.7-3.1 5.6-3.6 7.8-3.6 3.4 0 5.9 1.5 6.6 5.5 3.1-4.7 6.5-5.4 8.9-5.4 4.1 0 7.1 2.1 7.1 7.2 0 5.2-3.1 12.9-3.1 16.5 0 1.6.6 2.7 2.6 2.7 1.1 0 1.7-.1 2.1-.4-.6 4.6-3.6 6.6-7 6.6-4.9 0-6.5-3.6-6.5-7.2 0-4.3 2.9-12.2 2.9-16.3-.2-2.1-1-3.2-2.5-3.2z"/></g></svg>