<svg xmlns="http://www.w3.org/2000/svg" xmlns:xlink="http://www.w3.org/1999/xlink" width="100" height="100" viewBox="0 0 1400 1400" xmlns:v="https://vecta.io/nano"><style><![CDATA[.B{clip-path:url(#B)}.C{fill:#2c4159}]]></style><defs><path id="A" d="M0 0h1400v1400H0z"/></defs><clipPath id="B"><use xlink:href="#A"/></clipPath><linearGradient id="C" gradientUnits="userSpaceOnUse" x1="700" y1="-10.872" x2="700" y2="634.255"><stop offset="0" stop-color="#43688d"/><stop offset=".09" stop-color="#476a8d"/><stop offset=".187" stop-color="#54718e"/><stop offset=".287" stop-color="#6a7b8f"/><stop offset=".39" stop-color="#888a90"/><stop offset=".494" stop-color="#af9d92"/><stop offset=".598" stop-color="#ddb494"/><stop offset=".663" stop-color="#ffc595"/><stop offset=".959" stop-color="#ffffea"/></linearGradient><path fill="url(#C)" d="M0 0h1400v1400H0z" class="B"/><linearGradient id="D" gradientUnits="userSpaceOnUse" x1="824.508" y1="508.872" x2="1366.747" y2="508.872"><stop offset="0" stop-color="#ffc595"/><stop offset=".959" stop-color="#ffffea"/></linearGradient><path fill="url(#D)" d="M1321.2 385.8c-26.4-11-53.7-22.1-82.3-21.7-28.4.4-56.4 12.9-75.7 33.7-12.4 13.4-22.8 31.1-40.5 35.8-21.3 5.6-42.7-10.4-64.7-9.4-41.7 1.9-63.6 61-105.4 62-15 .4-29.2-7.3-44.2-8.5-36.3-2.9-63.6 31.1-83.8 61.4 74.3 43 157.2 68.3 239.3 93.3 22.1 6.7 44.2 13.4 66.8 18.4 8.8 2 17.8 3.6 26.8 2.9 18.5-1.6 34.4-13.2 49.2-24.4l160.1-120.7-45.6-122.8z" class="B"/><linearGradient id="E" gradientUnits="userSpaceOnUse" x1="596.679" y1="295.884" x2="596.679" y2="738.886"><stop offset="0" stop-color="#9f9691"/><stop offset=".123" stop-color="#aa9b91"/><stop offset=".341" stop-color="#c8aa93"/><stop offset=".626" stop-color="#f8c295"/><stop offset=".663" stop-color="#ffc595"/><stop offset=".959" stop-color="#ffffea"/></linearGradient><path fill="url(#E)" d="M639.6 435.2l-1 .9-51 12L327 748.2l335.5 84 203.7-94.5c-37.9-54.1-77.1-106.1-118.7-161.9L639.6 435.2z" class="B"/><linearGradient id="F" gradientUnits="userSpaceOnUse" x1="858.106" y1="253.322" x2="858.106" y2="653.419"><stop offset="0" stop-color="#9f9691"/><stop offset=".123" stop-color="#aa9b91"/><stop offset=".341" stop-color="#c8aa93"/><stop offset=".626" stop-color="#f8c295"/><stop offset=".663" stop-color="#ffc595"/><stop offset=".959" stop-color="#ffffea"/></linearGradient><path fill="url(#F)" d="M1076.6 588.9c-9 3.3-376.6-209.7-376.6-209.7l-60.4 56.1c34.5 46.6 71.5 91.7 108 140.6l118.7 161.9 81.3-37.7 129-111.2z" class="B"/><linearGradient id="G" gradientUnits="userSpaceOnUse" x1="229.36" y1="801.962" x2="423.36" y2="513.962"><stop offset="0" stop-color="#ffc595"/><stop offset=".959" stop-color="#ffffea"/></linearGradient><path fill="url(#G)" d="M-12.8 582c-4.3-17.3 13.7-33.5 31.4-34.9 17.8-1.5 34.7 6.7 51.2 13.5s35.3 12.3 51.8 5.4c17.9-7.4 27.2-26.7 38-42.7 26.1-38.6 71.2-65.2 117.8-63.9s92.2 33 104.9 77.9c4.2 14.8 5 30.5 11.2 44.5 6.1 14 20.2 26.6 35.3 24 6.7-1.1 12.7-5.1 19.4-6.1 13.7-2.2 26.4 7.9 35.2 18.7s16.4 23.4 28.8 29.8c24 12.2 52.8-4.5 79.5-1.5 22.4 2.6 41.2 19.2 52.2 38.8s15.6 42.1 20.1 64.2c-188.2 1.3-371.9 53.2-556 92.2-46 9.8-98.4 17.6-136.5-10L-12.8 582z" class="B"/><linearGradient id="H" gradientUnits="userSpaceOnUse" x1="739.943" y1="515.87" x2="739.943" y2="862.678"><stop offset="0" stop-color="#9f9691"/><stop offset=".123" stop-color="#aa9b91"/><stop offset=".341" stop-color="#c8aa93"/><stop offset=".626" stop-color="#f8c295"/><stop offset=".663" stop-color="#ffc595"/><stop offset=".959" stop-color="#ffffea"/></linearGradient><path fill="url(#H)" d="M810 633.1l-5-38.6-4.7 36.2-44.8-11.4-61 32.5-8-61.8-9.1 70.9-10.7 5.7-5.4-41.7-6.2 47.8-51.2 27.3h-66.3l-5.3-28.2L527 700h-68.5L327 799.2l319.1 118.6 301.5-78.1 205.2-116.8c-14.6-5.9-237.4-63-342.8-89.8z" class="B"/><linearGradient id="I" gradientUnits="userSpaceOnUse" x1="339.872" y1="972.257" x2="339.872" y2="575.57"><stop offset="0" stop-color="#2c4159"/><stop offset=".444" stop-color="#43688d"/><stop offset=".519" stop-color="#47698c"/><stop offset=".601" stop-color="#546d8a"/><stop offset=".685" stop-color="#6a7486"/><stop offset=".771" stop-color="#887d81"/><stop offset=".858" stop-color="#af897a"/><stop offset=".945" stop-color="#dd9871"/><stop offset="1" stop-color="#ffa26b"/></linearGradient><path fill="url(#I)" d="M616.2 917.5l-3.1-15.7 73.4-62c-4.7 1.2-41.4-14.3-92.8-37.8l-9-46.2-7.5 38.6c-2.5-1.1-5-2.3-7.5-3.5l-14.5-74.3-12.1 62-117.3-55.7-9.3-48-7.7 39.8c-.9-.4-1.9-.9-2.8-1.3l-18.3-94.1-15.2 78-111-54-9.9-51.1-8.2 42.2-54.9-27-78.8 62.1L95 594.1 75.6 694.4l-9.2-47.3-13 66.7-60.2 47.5c111.2 76.9 216.4 140.9 333.4 217.5l111.1 71.2 156.9-132.6h21.6z" class="B"/><linearGradient id="J" gradientUnits="userSpaceOnUse" x1="202.618" y1="1148.839" x2="202.618" y2="560.178"><stop offset="0" stop-color="#2c4159"/><stop offset=".449" stop-color="#43688d"/><stop offset=".502" stop-color="#47698c"/><stop offset=".558" stop-color="#546d8a"/><stop offset=".617" stop-color="#6a7486"/><stop offset=".677" stop-color="#887d81"/><stop offset=".738" stop-color="#af897a"/><stop offset=".798" stop-color="#dd9871"/><stop offset=".837" stop-color="#ffa26b"/></linearGradient><path fill="url(#J)" d="M326.6 978.8L204.4 900l-14.9-116-12.7 98.3-60.9-39.2-8.3-64.6-7 54.6c-.1-.1-.2-.1-.3-.2L86.4 725.7l-11.7 90.6-81.6-55-17.7 13.9s-18 462 0 453 372-102 372-102l90.2-76.2c-36.5-22.4-73.1-46.2-111-71.2z" class="B"/><linearGradient id="K" gradientUnits="userSpaceOnUse" x1="1742.604" y1="889.033" x2="239.454" y2="1702.114"><stop offset="0" stop-color="#43688d"/><stop offset=".114" stop-color="#47698c"/><stop offset=".236" stop-color="#546d8a"/><stop offset=".362" stop-color="#6a7486"/><stop offset=".491" stop-color="#887d81"/><stop offset=".623" stop-color="#af897a"/><stop offset=".754" stop-color="#dd9871"/><stop offset=".837" stop-color="#ffa26b"/></linearGradient><path fill="url(#K)" d="M515.6 896.7s-51 375.1-39 372.1 183 279 183 279l1011.1 36c-9-9 84-342 45-369s-471-298.5-471-298.5l-435-78.1-294.1 58.5z" class="B"/><linearGradient id="L" gradientUnits="userSpaceOnUse" x1="1039.755" y1="1797.733" x2="768.823" y2="1099.236"><stop offset="0" stop-color="#43688d"/><stop offset=".058" stop-color="#47698c"/><stop offset=".119" stop-color="#546d8a"/><stop offset=".183" stop-color="#6a7486"/><stop offset=".249" stop-color="#887d81"/><stop offset=".315" stop-color="#af897a"/><stop offset=".382" stop-color="#dd9871"/><stop offset=".424" stop-color="#ffa26b"/><stop offset="1" stop-color="#ffeab6"/></linearGradient><path fill="url(#L)" d="M753.6 1194.8c-14-16-27-30-40-47-23-31-44-60-50-98-2.3-14.4-1.8-29.3 2-43-21.8 18.6-32.6 41.3-18.7 68.1 44.2 85.2 294.7 397.9 300.7 406.9 1.2 1.9 34 2.7 83.2 1.8-96.3-92.6-186.4-186.6-277.2-288.8z" class="B"/><linearGradient id="M" gradientUnits="userSpaceOnUse" x1="1187.174" y1="1905.007" x2="829.873" y2="983.84"><stop offset="0" stop-color="#43688d"/><stop offset=".058" stop-color="#47698c"/><stop offset=".119" stop-color="#546d8a"/><stop offset=".183" stop-color="#6a7486"/><stop offset=".249" stop-color="#887d81"/><stop offset=".315" stop-color="#af897a"/><stop offset=".382" stop-color="#dd9871"/><stop offset=".424" stop-color="#ffa26b"/><stop offset="1" stop-color="#ffeab6"/></linearGradient><path fill="url(#M)" d="M1117.6 1404.8c-27-18-47-38-73-57-59-44-109-86-165-132-21-18-42-32-61-51-34-33-83-60-85-109-.9-36.5 39-60.1 74.3-73.6 33.1-13.1 85.2-22.8 115.7-43.5 66-45-319.7-42-319.7-42 154.6 21.4 352.7 18 211.7 48-23.4 5-107.5 25.7-150 62-3.7 13.7-4.3 28.6-2 43 6 38 27 67 50 98 13 17 26 31 40 47 90.8 102.2 180.9 196.2 277.2 288.8 49.9-.9 116.7-3.5 184.9-8.5l-98.1-70.2z" class="B"/><linearGradient id="N" gradientUnits="userSpaceOnUse" x1="1400.479" y1="1756.058" x2="1151.721" y2="1114.728"><stop offset="0" stop-color="#43688d"/><stop offset=".058" stop-color="#47698c"/><stop offset=".119" stop-color="#546d8a"/><stop offset=".183" stop-color="#6a7486"/><stop offset=".249" stop-color="#887d81"/><stop offset=".315" stop-color="#af897a"/><stop offset=".382" stop-color="#dd9871"/><stop offset=".424" stop-color="#ffa26b"/><stop offset="1" stop-color="#ffeab6"/></linearGradient><path fill="url(#N)" d="M1481.7 1364.8c-193-103.1-434.7-185.1-594.1-269.3 47.6 32.3 94.4 50.1 143 80.3 87 55 166 105 255 154 60 33 110 73 169 109 1.1.7 2.2 1.4 3.3 2 63-18 86.2-42.7 23.8-76z" class="B"/><linearGradient id="O" gradientUnits="userSpaceOnUse" x1="1329.212" y1="1855.672" x2="1017.901" y2="1053.072"><stop offset="0" stop-color="#43688d"/><stop offset=".058" stop-color="#47698c"/><stop offset=".119" stop-color="#546d8a"/><stop offset=".183" stop-color="#6a7486"/><stop offset=".249" stop-color="#887d81"/><stop offset=".315" stop-color="#af897a"/><stop offset=".382" stop-color="#dd9871"/><stop offset=".424" stop-color="#ffa26b"/><stop offset="1" stop-color="#ffeab6"/></linearGradient><path fill="url(#O)" d="M1285.6 1329.8c-89-49-168-99-255-154-48.7-30.2-95.4-48-143-80.3-18.7-9.9-36.3-19.8-52.5-29.8-78.3-48.1-65.7-68.2-27.1-83.5-35.4 13.5-75.2 37.1-74.3 73.6 2 49 51 76 85 109 19 19 40 33 61 51 56 46 106 88 165 132 26 19 46 39 73 57l98 70.3c90.7-6.7 183.6-17.6 242.2-34.3-1.1-.7-2.2-1.3-3.3-2-59-36-109-76-169-109z" class="B"/><linearGradient id="P" gradientUnits="userSpaceOnUse" x1="612.145" y1="1145.667" x2="-920.779" y2="1820.633"><stop offset="0" stop-color="#2c4159"/><stop offset="1" stop-color="#43688d"/></linearGradient><path fill="url(#P)" d="M515.6 896.7l240 36-135.7 51.1-71.3 71.9 102 134.6-46.7 54.5 96.1 153.7-724.5 23.3v-262.6z" class="B"/><g class="B"><linearGradient id="Q" gradientUnits="userSpaceOnUse" x1="499.714" y1="890.325" x2="-1033.209" y2="1565.291"><stop offset="0" stop-color="#2c4159"/></linearGradient><path fill="url(#Q)" d="M43.3 870.1l8.4 438.6H34.9l6.5-431.8z"/><linearGradient id="R" gradientUnits="userSpaceOnUse" x1="418.831" y1="706.63" x2="-1114.092" y2="1381.596"><stop offset="0" stop-color="#2c4159"/></linearGradient><path fill="url(#R)" d="M43.3 855.8L31 884.5l11.9-4.4 8.8 4.4z"/><linearGradient id="S" gradientUnits="userSpaceOnUse" x1="436.415" y1="746.564" x2="-1096.509" y2="1421.531"><stop offset="0" stop-color="#2c4159"/></linearGradient><path fill="url(#S)" d="M63 937.1l-5.6-2-6.6-11.7-1.2 8.9-5.5-2c-.5-.2-2.7.4-5.6 1.4l-1-8.2-4.1 10-10.1 3.7 20-43.6L63 937.1z"/><linearGradient id="T" gradientUnits="userSpaceOnUse" x1="536.065" y1="972.88" x2="-996.859" y2="1647.847"><stop offset="0" stop-color="#2c4159"/></linearGradient><path fill="url(#T)" d="M102.6 1206.7l-24.1-39.1 8.6 39.7-51 2.2-44.3-2.2 14.3-39.7-29.4 38.9-45.1-2.3 110-78.6 116.5 78.6-55.5 2.5z"/><linearGradient id="U" gradientUnits="userSpaceOnUse" x1="516.309" y1="928.013" x2="-1016.614" y2="1602.98"><stop offset="0" stop-color="#2c4159"/></linearGradient><path fill="url(#U)" d="M78.7 1157.5L67.5 1136c.1.6 1.8 13.8 3 22.1l-30.9 2-3.6-.3 1.6-41.3-11.3 40.5-22-1.7 5.3-21.5-12.4 20.9-18.6-1.4 64.2-67.9 68 67.9-32.1 2.2z"/><linearGradient id="V" gradientUnits="userSpaceOnUse" x1="553.702" y1="1012.937" x2="-979.221" y2="1687.903"><stop offset="0" stop-color="#2c4159"/></linearGradient><path fill="url(#V)" d="M79.4 1258l-19.2-26.9 4.9 27.8-25.8 1.5-14.7-1 .2-32.6-15.6 31.5-35.3-2.5 68.8-67.9 72.9 67.9z"/><linearGradient id="W" gradientUnits="userSpaceOnUse" x1="504.749" y1="901.758" x2="-1028.175" y2="1576.725"><stop offset="0" stop-color="#2c4159"/></linearGradient><path fill="url(#W)" d="M94.1 1117.7c-6.5-9.6-19.1-27.3-19.1-27.3l4 27.9-41 1.8-20-1 4.9-31.6-17.1 31-10.5-.5 4.4-17.4-11.1 17-31.8-1.6 85.5-61.1 90.6 61.1-38.8 1.7z"/><linearGradient id="X" gradientUnits="userSpaceOnUse" x1="489.639" y1="867.443" x2="-1043.284" y2="1542.409"><stop offset="0" stop-color="#2c4159"/></linearGradient><path fill="url(#X)" d="M80 1072.9l-13.8-22.8 5.7 23.1-24.7 1.1-5.6-13.4-13.3 13.2-11.1-.6 10.3-22.8-18.6 22.4-26.9-1.4 61-43.6 64.6 43.6z"/><linearGradient id="Y" gradientUnits="userSpaceOnUse" x1="476.984" y1="838.703" x2="-1055.939" y2="1513.669"><stop offset="0" stop-color="#2c4159"/></linearGradient><path fill="url(#Y)" d="M72.9 1037.9l-15.7-22.7 10.7 23-26 1.4-15.6-.9 7.1-26.8c.4-.9-9.1 12.2-17.3 26.3l-25-1.4 50.5-36.1 53.5 36.1-22.2 1.1z"/><linearGradient id="Z" gradientUnits="userSpaceOnUse" x1="465.11" y1="811.736" x2="-1067.813" y2="1486.702"><stop offset="0" stop-color="#2c4159"/></linearGradient><path fill="url(#Z)" d="M73 1006.8l-16.7-20.3L63 1005l-10.6-2-7.6 1.6v-21.3l-6.4 22.6-3.6.7-28.8 2.8 39.1-43.6 41.4 43.6-13.5-2.6z"/><linearGradient id="a" gradientUnits="userSpaceOnUse" x1="454.423" y1="787.463" x2="-1078.501" y2="1462.429"><stop offset="0" stop-color="#2c4159"/></linearGradient><path fill="url(#a)" d="M70 981.7l-12.5-19c.2.5 4.3 12.7 6.3 18.1l-12.9-1.9-7.3-8.7-7.1 9.6-7.5 1.1.7-11.7-7.8 12.7-10.1 1.4 31.8-46.1 36.8 46.1-10.4-1.6z"/></g><linearGradient id="b" gradientUnits="userSpaceOnUse" x1="449.476" y1="1202.688" x2="-392.146" y2="1630.435"><stop offset="0" stop-color="#2c4159"/><stop offset=".449" stop-color="#43688d"/><stop offset=".502" stop-color="#47698c"/><stop offset=".558" stop-color="#546d8a"/><stop offset=".617" stop-color="#6a7486"/><stop offset=".677" stop-color="#887d81"/><stop offset=".738" stop-color="#af897a"/><stop offset=".798" stop-color="#dd9871"/><stop offset=".837" stop-color="#ffa26b"/></linearGradient><path fill="url(#b)" d="M548.6 1055.7L63 1268.8l-87.5 97.5v55.5l319.6-10.3 308.8-166.7 46.7-54.5z" class="B"/><linearGradient id="c" gradientUnits="userSpaceOnUse" x1="515.864" y1="899.213" x2="515.255" y2="899.517"><stop offset="0" stop-color="#2c4159"/><stop offset=".449" stop-color="#43688d"/><stop offset=".502" stop-color="#47698c"/><stop offset=".558" stop-color="#546d8a"/><stop offset=".617" stop-color="#6a7486"/><stop offset=".677" stop-color="#887d81"/><stop offset=".738" stop-color="#af897a"/><stop offset=".798" stop-color="#dd9871"/><stop offset=".837" stop-color="#ffa26b"/></linearGradient><path fill="url(#c)" d="M515.9 899.3h-.4.4z" class="B"/><linearGradient id="d" gradientUnits="userSpaceOnUse" x1="1183.791" y1="549.67" x2="-349.796" y2="1314.254"><stop offset="0" stop-color="#2c4159"/><stop offset=".449" stop-color="#43688d"/><stop offset=".502" stop-color="#47698c"/><stop offset=".558" stop-color="#546d8a"/><stop offset=".617" stop-color="#6a7486"/><stop offset=".677" stop-color="#887d81"/><stop offset=".738" stop-color="#af897a"/><stop offset=".798" stop-color="#dd9871"/><stop offset=".837" stop-color="#ffa26b"/></linearGradient><path fill="url(#d)" d="M1032.8 558.3l-20.4-104.6-26.7 136.9-68.2 46.5-10.2-52.1-13.3 68-3.6 2.4-14.6-74.7-19 97.5-95.1 64.1-6.1-31.4-8 40.9-11.1 7.4-12.4-63.4-16.1 82.3-80.1 52.9-8.1-41.4-10.4 53.5c-53.2 34.5-88.1 55.8-93.5 56.2l82.5.3 43 .1 203 .6c76.8-108.8 156.8-212.8 242.3-321.5l104.6-129.5-158.5 109z" class="B"/><linearGradient id="e" gradientUnits="userSpaceOnUse" x1="1457.261" y1="452.586" x2="-65.331" y2="1211.688"><stop offset="0" stop-color="#2c4159"/><stop offset=".449" stop-color="#43688d"/><stop offset=".502" stop-color="#47698c"/><stop offset=".558" stop-color="#546d8a"/><stop offset=".617" stop-color="#6a7486"/><stop offset=".677" stop-color="#887d81"/><stop offset=".738" stop-color="#af897a"/><stop offset=".798" stop-color="#dd9871"/><stop offset=".837" stop-color="#ffa26b"/></linearGradient><path fill="url(#e)" d="M1427.7 281.3c-.2 2.2-55.2 41.7-138.2 99.7l-11.2-86.6-13.4 103.7-5.7 4-9.6-74.9-11.5 89.6-46.9 32.5-62.9 77.2-16-123.8-22.1 171.6-3.6 4.5-91.9 118.1-13.8-107-18.5 143.8-12.9-72.4-22.3 125-82.8 114 121.3.4c12-10.6 453-181.4 453-181.4l9-438z" class="B"/><linearGradient id="f" gradientUnits="userSpaceOnUse" x1="1303.334" y1="1236.852" x2="1114.173" y2="709.257"><stop offset="0" stop-color="#2c4159"/><stop offset=".449" stop-color="#43688d"/><stop offset=".502" stop-color="#47698c"/><stop offset=".558" stop-color="#546d8a"/><stop offset=".617" stop-color="#6a7486"/><stop offset=".677" stop-color="#887d81"/><stop offset=".738" stop-color="#af897a"/><stop offset=".798" stop-color="#dd9871"/><stop offset=".837" stop-color="#ffa26b"/></linearGradient><path fill="url(#f)" d="M1118.6 1159.2l294.8 87.5c-28.9-131.4-52.4-264.1-90.5-392.8l-204.3 305.3z" class="B"/><linearGradient id="g" gradientUnits="userSpaceOnUse" x1="1485.182" y1="1023.874" x2="1191.182" y2="203.874"><stop offset="0" stop-color="#2c4159"/><stop offset=".449" stop-color="#43688d"/><stop offset=".502" stop-color="#47698c"/><stop offset=".558" stop-color="#546d8a"/><stop offset=".617" stop-color="#6a7486"/><stop offset=".677" stop-color="#887d81"/><stop offset=".738" stop-color="#af897a"/><stop offset=".798" stop-color="#dd9871"/><stop offset=".837" stop-color="#ffa26b"/></linearGradient><path fill="url(#g)" d="M1487.7 607.9L1322.9 854c38.1 128.7 61.6 261.3 90.5 392.8l74.2 22V607.9z" class="B"/><linearGradient id="h" gradientUnits="userSpaceOnUse" x1="1126.506" y1="1058.157" x2="984.013" y2="615.679"><stop offset="0" stop-color="#2c4159"/><stop offset=".449" stop-color="#43688d"/><stop offset=".502" stop-color="#47698c"/><stop offset=".558" stop-color="#546d8a"/><stop offset=".617" stop-color="#6a7486"/><stop offset=".677" stop-color="#887d81"/><stop offset=".738" stop-color="#af897a"/><stop offset=".798" stop-color="#dd9871"/><stop offset=".837" stop-color="#ffa26b"/></linearGradient><path fill="url(#h)" d="M1249.6 630.8l-401 373.9 227.3 80.7c19.5-53.5 37.3-108 58.7-161.6l115-293z" class="B"/><g class="B"><linearGradient id="i" gradientUnits="userSpaceOnUse" x1="1704.48" y1="319.1" x2="450.773" y2="871.123"><stop offset="0" stop-color="#2c4159"/></linearGradient><path fill="url(#i)" d="M1331.2 302.6l6.9 358.7h-13.8l5.3-353.2z"/><linearGradient id="j" gradientUnits="userSpaceOnUse" x1="1638.329" y1="168.864" x2="384.622" y2="720.888"><stop offset="0" stop-color="#2c4159"/></linearGradient><path fill="url(#j)" d="M1331.2 290.9l-10 23.4 9.7-3.6 7.2 3.6z"/><linearGradient id="k" gradientUnits="userSpaceOnUse" x1="1652.71" y1="201.525" x2="399.003" y2="753.548"><stop offset="0" stop-color="#2c4159"/></linearGradient><path fill="url(#k)" d="M1347.3 357.4l-4.6-1.7-5.4-9.6-1 7.3-4.5-1.7c-.4-.2-2.2.3-4.6 1.1l-.8-6.7-3.3 8.1-8.3 3.1 16.4-35.7 16.1 35.8z"/><linearGradient id="l" gradientUnits="userSpaceOnUse" x1="1734.209" y1="386.618" x2="480.502" y2="938.642"><stop offset="0" stop-color="#2c4159"/></linearGradient><path fill="url(#l)" d="M1379.7 577.9l-19.7-32 7 32.5-41.7 1.8-36.2-1.8 11.7-32.5-24 31.8-36.9-1.9 89.9-64.3 95.3 64.3-45.4 2.1z"/><linearGradient id="m" gradientUnits="userSpaceOnUse" x1="1718.052" y1="349.923" x2="464.345" y2="901.947"><stop offset="0" stop-color="#2c4159"/></linearGradient><path fill="url(#m)" d="M1360.1 537.6L1351 520c.1.5 1.5 11.3 2.5 18.1l-25.3 1.6-3-.2 1.3-33.8-9.2 33.2-18-1.4 4.4-17.5-10.1 17.1-15.2-1.1 52.5-55.6 55.6 55.6-26.4 1.6z"/><linearGradient id="n" gradientUnits="userSpaceOnUse" x1="1748.634" y1="419.379" x2="494.927" y2="971.402"><stop offset="0" stop-color="#2c4159"/></linearGradient><path fill="url(#n)" d="M1360.7 619.8l-15.7-22 4.1 22.7-21.2 1.3-12-.9.2-26.6-12.8 25.8-28.9-2.1 56.3-55.5 59.7 55.5z"/><linearGradient id="o" gradientUnits="userSpaceOnUse" x1="1708.597" y1="328.451" x2="454.89" y2="880.474"><stop offset="0" stop-color="#2c4159"/></linearGradient><path fill="url(#o)" d="M1372.7 505.1c-5.3-7.9-15.6-22.3-15.6-22.3l3.3 22.8-33.5 1.5-16.4-.8 4-25.8-14 25.3-8.6-.4 3.6-14.2-9 13.9-26-1.3 69.9-50 74.1 50-31.8 1.3z"/><linearGradient id="p" gradientUnits="userSpaceOnUse" x1="1696.24" y1="300.386" x2="442.533" y2="852.409"><stop offset="0" stop-color="#2c4159"/></linearGradient><path fill="url(#p)" d="M1361.2 468.4l-11.2-18.6 4.6 18.9-20.2.9-4.6-11-10.9 10.8-9-.5 8.4-18.7-15.2 18.4-22.1-1.2 49.9-35.6 52.9 35.6z"/><linearGradient id="q" gradientUnits="userSpaceOnUse" x1="1685.89" y1="276.881" x2="432.183" y2="828.904"><stop offset="0" stop-color="#2c4159"/></linearGradient><path fill="url(#q)" d="M1355.4 439.8l-12.8-18.6 8.7 18.8-21.3 1.2-12.7-.7 5.8-21.9c.3-.7-7.4 10-14.1 21.5l-20.5-1.2 41.3-29.5 43.7 29.5-18.1.9z"/><linearGradient id="r" gradientUnits="userSpaceOnUse" x1="1676.179" y1="254.825" x2="422.472" y2="806.849"><stop offset="0" stop-color="#2c4159"/></linearGradient><path fill="url(#r)" d="M1355.5 414.4l-13.6-16.6 5.4 15-8.6-1.6-6.2 1.3v-17.4l-5.3 18.5-2.9.6-23.5 2.2 31.9-35.7 33.8 35.7-11-2z"/><linearGradient id="s" gradientUnits="userSpaceOnUse" x1="1667.438" y1="234.974" x2="413.731" y2="786.997"><stop offset="0" stop-color="#2c4159"/></linearGradient><path fill="url(#s)" d="M1353.1 393.8l-10.2-15.6c.1.4 3.5 10.4 5.2 14.8l-10.5-1.6-6-7.1-5.8 7.9-6.1.9.6-9.6s-4.2 6.7-6.3 10.4l-8.2 1.2 26-37.7 30.1 37.7-8.8-1.3z"/></g><linearGradient id="t" gradientUnits="userSpaceOnUse" x1="1335.369" y1="806.751" x2="948.388" y2="371.773"><stop offset="0" stop-color="#2c4159"/><stop offset=".449" stop-color="#43688d"/><stop offset=".502" stop-color="#47698c"/><stop offset=".558" stop-color="#546d8a"/><stop offset=".617" stop-color="#6a7486"/><stop offset=".677" stop-color="#887d81"/><stop offset=".738" stop-color="#af897a"/><stop offset=".798" stop-color="#dd9871"/><stop offset=".837" stop-color="#ffa26b"/></linearGradient><path fill="url(#t)" d="M1249.6 630.8c-36.6 97.9-75.3 195.2-115 293-21.3 53.6-39.2 108-58.7 161.6l51.7 18.3L1400 683.4l87.6-99.1V407.7c.1 0-109.6 102.8-238 223.1z" class="B"/><linearGradient id="u" gradientUnits="userSpaceOnUse" x1="1334.862" y1="1123.262" x2="1250.862" y2="457.262"><stop offset="0" stop-color="#43688d"/><stop offset=".114" stop-color="#47698c"/><stop offset=".236" stop-color="#546d8a"/><stop offset=".362" stop-color="#6a7486"/><stop offset=".491" stop-color="#887d81"/><stop offset=".623" stop-color="#af897a"/><stop offset=".754" stop-color="#dd9871"/><stop offset=".837" stop-color="#ffa26b"/></linearGradient><path fill="url(#u)" d="M1487.7 584.3v23.6l-369.1 551.3 9-55.5L1400 683.4z" class="B"/><g class="B"><path d="M460.3 609.9l11.6 610.3h-23.3l9-600.9z" class="C"/><linearGradient id="v" gradientUnits="userSpaceOnUse" x1="443.189" y1="609.929" x2="471.946" y2="609.929"><stop offset="0" stop-color="#2c4159"/><stop offset=".449" stop-color="#43688d"/><stop offset=".502" stop-color="#47698c"/><stop offset=".558" stop-color="#546d8a"/><stop offset=".617" stop-color="#6a7486"/><stop offset=".677" stop-color="#887d81"/><stop offset=".738" stop-color="#af897a"/><stop offset=".798" stop-color="#dd9871"/><stop offset=".837" stop-color="#ffa26b"/></linearGradient><path fill="url(#v)" d="M460.2 590l-17 39.9 16.6-6.1 12.1 6.1z"/><linearGradient id="w" gradientUnits="userSpaceOnUse" x1="432.405" y1="672.797" x2="487.673" y2="672.797"><stop offset="0" stop-color="#2c4159"/><stop offset=".449" stop-color="#43688d"/><stop offset=".502" stop-color="#47698c"/><stop offset=".558" stop-color="#546d8a"/><stop offset=".617" stop-color="#6a7486"/><stop offset=".677" stop-color="#887d81"/><stop offset=".738" stop-color="#af897a"/><stop offset=".798" stop-color="#dd9871"/><stop offset=".837" stop-color="#ffa26b"/></linearGradient><path fill="url(#w)" d="M487.7 703.1l-7.8-2.8-9.2-16.3-1.6 12.4-7.6-2.8c-.7-.3-3.8.6-7.8 1.9l-1.4-11.4-5.7 13.9c-7.1 2.5-14.1 5.2-14.1 5.2l27.9-60.7 27.3 60.6z"/><linearGradient id="x" gradientUnits="userSpaceOnUse" x1="454.768" y1="1030.247" x2="477.827" y2="1167.011"><stop offset="0" stop-color="#2c4159"/><stop offset=".449" stop-color="#43688d"/><stop offset=".502" stop-color="#47698c"/><stop offset=".558" stop-color="#546d8a"/><stop offset=".617" stop-color="#6a7486"/><stop offset=".677" stop-color="#887d81"/><stop offset=".738" stop-color="#af897a"/><stop offset=".798" stop-color="#dd9871"/><stop offset=".837" stop-color="#ffa26b"/></linearGradient><path fill="url(#x)" d="M542.8 1078.3l-33.5-54.4 11.9 55.3-71 3.1-61.7-3.1 19.9-55.2-40.9 54.2-62.8-3.2 153-109.4L619.8 1075l-77 3.3z"/><linearGradient id="y" gradientUnits="userSpaceOnUse" x1="424.623" y1="962.878" x2="608.678" y2="962.878"><stop offset="0" stop-color="#2c4159"/><stop offset=".449" stop-color="#43688d"/><stop offset=".502" stop-color="#47698c"/><stop offset=".558" stop-color="#546d8a"/><stop offset=".617" stop-color="#6a7486"/><stop offset=".677" stop-color="#887d81"/><stop offset=".738" stop-color="#af897a"/><stop offset=".798" stop-color="#dd9871"/><stop offset=".837" stop-color="#ffa26b"/></linearGradient><path fill="url(#y)" d="M509.5 1009.8l-15.5-30 4.2 30.8-43 2.8-5.1-.4 2.2-57.4-15.7 56.4-30.7-2.3 7.4-29.9-17.2 29.1-25.9-1.9 89.4-94.5 94.7 94.5-44.8 2.8z"/><linearGradient id="z" gradientUnits="userSpaceOnUse" x1="431.624" y1="1102.552" x2="628.853" y2="1102.552"><stop offset="0" stop-color="#2c4159"/><stop offset=".449" stop-color="#43688d"/><stop offset=".502" stop-color="#47698c"/><stop offset=".558" stop-color="#546d8a"/><stop offset=".617" stop-color="#6a7486"/><stop offset=".677" stop-color="#887d81"/><stop offset=".738" stop-color="#af897a"/><stop offset=".798" stop-color="#dd9871"/><stop offset=".837" stop-color="#ffa26b"/></linearGradient><path fill="url(#z)" d="M510.5 1149.7l-26.7-37.4 6.8 38.5-35.9 2.2-20.4-1.4.2-45.4-21.6 43.9-49.2-3.5 95.8-94.5 101.4 94.5z"/><linearGradient id="AA" gradientUnits="userSpaceOnUse" x1="454.066" y1="895.7" x2="469.969" y2="1004.634"><stop offset="0" stop-color="#2c4159"/><stop offset=".449" stop-color="#43688d"/><stop offset=".502" stop-color="#47698c"/><stop offset=".558" stop-color="#546d8a"/><stop offset=".617" stop-color="#6a7486"/><stop offset=".677" stop-color="#887d81"/><stop offset=".738" stop-color="#af897a"/><stop offset=".798" stop-color="#dd9871"/><stop offset=".837" stop-color="#ffa26b"/></linearGradient><path fill="url(#AA)" d="M530.9 954.4c-9-13.4-26.6-37.9-26.6-37.9l5.6 38.8-57.1 2.5-27.9-1.4 6.9-44-23.8 43.1-14.7-.7 6.1-24.1-15.4 23.7-44.2-2.2 118.9-85 126 85-53.8 2.2z"/><linearGradient id="AB" gradientUnits="userSpaceOnUse" x1="394.847" y1="861.895" x2="569.61" y2="861.895"><stop offset="0" stop-color="#2c4159"/><stop offset=".449" stop-color="#43688d"/><stop offset=".502" stop-color="#47698c"/><stop offset=".558" stop-color="#546d8a"/><stop offset=".617" stop-color="#6a7486"/><stop offset=".677" stop-color="#887d81"/><stop offset=".738" stop-color="#af897a"/><stop offset=".798" stop-color="#dd9871"/><stop offset=".837" stop-color="#ffa26b"/></linearGradient><path fill="url(#AB)" d="M511.4 892.1l-19.2-31.8 7.9 32.3-34.5 1.5-7.7-18.7-18.6 18.3-15.3-.8 14.2-31.8-25.8 31.2-37.5-1.9 84.9-60.7 89.9 60.7z"/><linearGradient id="AC" gradientUnits="userSpaceOnUse" x1="457.31" y1="822.793" x2="466.057" y2="883.223"><stop offset="0" stop-color="#2c4159"/><stop offset=".449" stop-color="#43688d"/><stop offset=".502" stop-color="#47698c"/><stop offset=".558" stop-color="#546d8a"/><stop offset=".617" stop-color="#6a7486"/><stop offset=".677" stop-color="#887d81"/><stop offset=".738" stop-color="#af897a"/><stop offset=".798" stop-color="#dd9871"/><stop offset=".837" stop-color="#ffa26b"/></linearGradient><path fill="url(#AC)" d="M501.5 843.3l-21.8-31.6 14.8 32-36.2 2-21.7-1.2 9.9-37.3c.5-1.2-12.6 17-24 36.5l-34.8-2 70.2-50.2 74.4 50.2-30.8 1.6z"/><linearGradient id="AD" gradientUnits="userSpaceOnUse" x1="461.431" y1="757.07" x2="466.202" y2="833.403"><stop offset="0" stop-color="#2c4159"/><stop offset=".449" stop-color="#43688d"/><stop offset=".502" stop-color="#47698c"/><stop offset=".558" stop-color="#546d8a"/><stop offset=".617" stop-color="#6a7486"/><stop offset=".677" stop-color="#887d81"/><stop offset=".738" stop-color="#af897a"/><stop offset=".798" stop-color="#dd9871"/><stop offset=".837" stop-color="#ffa26b"/></linearGradient><path fill="url(#AD)" d="M501.6 800.2L478.4 772l9.2 25.6-14.7-2.8-10.6 2.2v-29.6l-9 31.5-5 1-40 3.8 54.3-60.7 57.6 60.7-18.6-3.5z"/><linearGradient id="AE" gradientUnits="userSpaceOnUse" x1="416.589" y1="735.228" x2="512.099" y2="735.228"><stop offset="0" stop-color="#2c4159"/><stop offset=".449" stop-color="#43688d"/><stop offset=".502" stop-color="#47698c"/><stop offset=".558" stop-color="#546d8a"/><stop offset=".617" stop-color="#6a7486"/><stop offset=".677" stop-color="#887d81"/><stop offset=".738" stop-color="#af897a"/><stop offset=".798" stop-color="#dd9871"/><stop offset=".837" stop-color="#ffa26b"/></linearGradient><path fill="url(#AE)" d="M497.5 765.2L480 738.7c.2.7 6 17.7 8.8 25.2l-17.9-2.7-10.2-12.1-9.8 13.4-10.5 1.5 1-16.3-10.8 17.7-14 2 44.3-64.2 51.2 64.2-14.6-2.2z"/><path d="M1053 492.2l-11.7 610.4h23.4l-9-601z" class="C"/><linearGradient id="AF" gradientUnits="userSpaceOnUse" x1="1070.075" y1="492.239" x2="1041.318" y2="492.239"><stop offset="0" stop-color="#2c4159"/><stop offset=".449" stop-color="#43688d"/><stop offset=".502" stop-color="#47698c"/><stop offset=".558" stop-color="#546d8a"/><stop offset=".617" stop-color="#6a7486"/><stop offset=".677" stop-color="#887d81"/><stop offset=".738" stop-color="#af897a"/><stop offset=".798" stop-color="#dd9871"/><stop offset=".837" stop-color="#ffa26b"/></linearGradient><path fill="url(#AF)" d="M1053.1 472.3l17 39.9-16.6-6.1-12.2 6.1z"/><linearGradient id="AG" gradientUnits="userSpaceOnUse" x1="1080.859" y1="555.106" x2="1025.591" y2="555.106"><stop offset="0" stop-color="#2c4159"/><stop offset=".449" stop-color="#43688d"/><stop offset=".502" stop-color="#47698c"/><stop offset=".558" stop-color="#546d8a"/><stop offset=".617" stop-color="#6a7486"/><stop offset=".677" stop-color="#887d81"/><stop offset=".738" stop-color="#af897a"/><stop offset=".798" stop-color="#dd9871"/><stop offset=".837" stop-color="#ffa26b"/></linearGradient><path fill="url(#AG)" d="M1025.6 585.4l7.8-2.8 9.2-16.3 1.6 12.4 7.6-2.8c.7-.3 3.8.6 7.8 1.9l1.4-11.4 5.7 13.9 14.1 5.2-27.9-60.7-27.3 60.6z"/><linearGradient id="AH" gradientUnits="userSpaceOnUse" x1="1058.496" y1="912.556" x2="1035.437" y2="1049.32"><stop offset="0" stop-color="#2c4159"/><stop offset=".449" stop-color="#43688d"/><stop offset=".502" stop-color="#47698c"/><stop offset=".558" stop-color="#546d8a"/><stop offset=".617" stop-color="#6a7486"/><stop offset=".677" stop-color="#887d81"/><stop offset=".738" stop-color="#af897a"/><stop offset=".798" stop-color="#dd9871"/><stop offset=".837" stop-color="#ffa26b"/></linearGradient><path fill="url(#AH)" d="M970.5 960.6l33.5-54.4-11.9 55.3 71 3.1 61.7-3.1-19.9-55.2 40.9 54.2 62.8-3.2-153-109.4-162.2 109.3 77.1 3.4z"/><linearGradient id="AI" gradientUnits="userSpaceOnUse" x1="1088.641" y1="845.187" x2="904.586" y2="845.187"><stop offset="0" stop-color="#2c4159"/><stop offset=".449" stop-color="#43688d"/><stop offset=".502" stop-color="#47698c"/><stop offset=".558" stop-color="#546d8a"/><stop offset=".617" stop-color="#6a7486"/><stop offset=".677" stop-color="#887d81"/><stop offset=".738" stop-color="#af897a"/><stop offset=".798" stop-color="#dd9871"/><stop offset=".837" stop-color="#ffa26b"/></linearGradient><path fill="url(#AI)" d="M1003.8 892.1l15.5-30-4.2 30.8 43 2.8 5.1-.4-2.2-57.4 15.7 56.4 30.7-2.3-7.4-29.9 17.2 29.1 25.9-1.9-89.4-94.5-94.7 94.5 44.8 2.8z"/><linearGradient id="AJ" gradientUnits="userSpaceOnUse" x1="1081.64" y1="984.861" x2="884.411" y2="984.861"><stop offset="0" stop-color="#2c4159"/><stop offset=".449" stop-color="#43688d"/><stop offset=".502" stop-color="#47698c"/><stop offset=".558" stop-color="#546d8a"/><stop offset=".617" stop-color="#6a7486"/><stop offset=".677" stop-color="#887d81"/><stop offset=".738" stop-color="#af897a"/><stop offset=".798" stop-color="#dd9871"/><stop offset=".837" stop-color="#ffa26b"/></linearGradient><path fill="url(#AJ)" d="M1002.8 1032l26.7-37.4-6.9 38.6 36 2.1 20.4-1.4-.2-45.4 21.6 43.9 49.2-3.5-95.8-94.5-101.5 94.5z"/><linearGradient id="AK" gradientUnits="userSpaceOnUse" x1="1059.198" y1="778.009" x2="1043.295" y2="886.943"><stop offset="0" stop-color="#2c4159"/><stop offset=".449" stop-color="#43688d"/><stop offset=".502" stop-color="#47698c"/><stop offset=".558" stop-color="#546d8a"/><stop offset=".617" stop-color="#6a7486"/><stop offset=".677" stop-color="#887d81"/><stop offset=".738" stop-color="#af897a"/><stop offset=".798" stop-color="#dd9871"/><stop offset=".837" stop-color="#ffa26b"/></linearGradient><path fill="url(#AK)" d="M982.3 836.7c9-13.4 26.6-37.9 26.6-37.9l-5.6 38.8 57.1 2.5 27.9-1.4-6.9-44 23.8 43.1 14.7-.7-6.1-24.1 15.4 23.7 44.2-2.2-118.9-85-126 85 53.8 2.2z"/><linearGradient id="AL" gradientUnits="userSpaceOnUse" x1="1118.418" y1="744.204" x2="943.655" y2="744.204"><stop offset="0" stop-color="#2c4159"/><stop offset=".449" stop-color="#43688d"/><stop offset=".502" stop-color="#47698c"/><stop offset=".558" stop-color="#546d8a"/><stop offset=".617" stop-color="#6a7486"/><stop offset=".677" stop-color="#887d81"/><stop offset=".738" stop-color="#af897a"/><stop offset=".798" stop-color="#dd9871"/><stop offset=".837" stop-color="#ffa26b"/></linearGradient><path fill="url(#AL)" d="M1001.9 774.4l19.2-31.8-7.9 32.3 34.4 1.5 7.8-18.7 18.5 18.3 15.4-.8-14.3-31.7 25.9 31.1 37.4-1.9-84.8-60.7-89.9 60.7z"/><linearGradient id="AM" gradientUnits="userSpaceOnUse" x1="1055.954" y1="705.102" x2="1047.207" y2="765.533"><stop offset="0" stop-color="#2c4159"/><stop offset=".449" stop-color="#43688d"/><stop offset=".502" stop-color="#47698c"/><stop offset=".558" stop-color="#546d8a"/><stop offset=".617" stop-color="#6a7486"/><stop offset=".677" stop-color="#887d81"/><stop offset=".738" stop-color="#af897a"/><stop offset=".798" stop-color="#dd9871"/><stop offset=".837" stop-color="#ffa26b"/></linearGradient><path fill="url(#AM)" d="M1011.8 725.6l21.8-31.6-14.8 32 36.2 2 21.7-1.2-9.9-37.3c-.5-1.2 12.6 17 24 36.5l34.8-2-70.2-50.2-74.5 50.2 30.9 1.6z"/><linearGradient id="AN" gradientUnits="userSpaceOnUse" x1="1051.833" y1="639.379" x2="1047.062" y2="715.712"><stop offset="0" stop-color="#2c4159"/><stop offset=".449" stop-color="#43688d"/><stop offset=".502" stop-color="#47698c"/><stop offset=".558" stop-color="#546d8a"/><stop offset=".617" stop-color="#6a7486"/><stop offset=".677" stop-color="#887d81"/><stop offset=".738" stop-color="#af897a"/><stop offset=".798" stop-color="#dd9871"/><stop offset=".837" stop-color="#ffa26b"/></linearGradient><path fill="url(#AN)" d="M1011.7 682.5l23.2-28.2-9.2 25.6 14.7-2.8 10.6 2.2v-29.6l9 31.5 5 1 40 3.8-54.3-60.7L993 686l18.7-3.5z"/><linearGradient id="AO" gradientUnits="userSpaceOnUse" x1="1096.675" y1="617.538" x2="1001.166" y2="617.538"><stop offset="0" stop-color="#2c4159"/><stop offset=".449" stop-color="#43688d"/><stop offset=".502" stop-color="#47698c"/><stop offset=".558" stop-color="#546d8a"/><stop offset=".617" stop-color="#6a7486"/><stop offset=".677" stop-color="#887d81"/><stop offset=".738" stop-color="#af897a"/><stop offset=".798" stop-color="#dd9871"/><stop offset=".837" stop-color="#ffa26b"/></linearGradient><path fill="url(#AO)" d="M1015.8 647.5l17.4-26.5c-.2.7-6 17.7-8.8 25.2l17.9-2.7 10.2-12.1 9.8 13.4 10.5 1.5-1-16.3 10.8 17.7 14 2-44.3-64.2-51.2 64.2 14.7-2.2z"/><path d="M286.7 441.6l19.7 1026.9h-39.3l15.1-1011.1z" class="C"/><linearGradient id="AP" gradientUnits="userSpaceOnUse" x1="258.01" y1="441.623" x2="306.397" y2="441.623"><stop offset="0" stop-color="#2c4159"/><stop offset=".449" stop-color="#43688d"/><stop offset=".502" stop-color="#47698c"/><stop offset=".558" stop-color="#546d8a"/><stop offset=".617" stop-color="#6a7486"/><stop offset=".677" stop-color="#887d81"/><stop offset=".738" stop-color="#af897a"/><stop offset=".798" stop-color="#dd9871"/><stop offset=".837" stop-color="#ffa26b"/></linearGradient><path fill="url(#AP)" d="M286.6 408.1l-28.6 67 27.9-10.1 20.5 10.1z"/><linearGradient id="AQ" gradientUnits="userSpaceOnUse" x1="239.865" y1="547.403" x2="332.858" y2="547.403"><stop offset="0" stop-color="#2c4159"/><stop offset=".449" stop-color="#43688d"/><stop offset=".502" stop-color="#47698c"/><stop offset=".558" stop-color="#546d8a"/><stop offset=".617" stop-color="#6a7486"/><stop offset=".677" stop-color="#887d81"/><stop offset=".738" stop-color="#af897a"/><stop offset=".798" stop-color="#dd9871"/><stop offset=".837" stop-color="#ffa26b"/></linearGradient><path fill="url(#AQ)" d="M332.9 598.4l-13.2-4.7-15.5-27.4-2.8 20.8-12.8-4.7c-1.1-.5-6.4 1-13.1 3.2l-2.3-19.3-9.6 23.3-23.7 8.8 46.9-102.1 46.1 102.1z"/><linearGradient id="AR" gradientUnits="userSpaceOnUse" x1="277.493" y1="1148.843" x2="316.291" y2="1378.96"><stop offset="0" stop-color="#2c4159"/><stop offset=".449" stop-color="#43688d"/><stop offset=".502" stop-color="#47698c"/><stop offset=".558" stop-color="#546d8a"/><stop offset=".617" stop-color="#6a7486"/><stop offset=".677" stop-color="#887d81"/><stop offset=".738" stop-color="#af897a"/><stop offset=".798" stop-color="#dd9871"/><stop offset=".837" stop-color="#ffa26b"/></linearGradient><path fill="url(#AR)" d="M425.6 1229.6l-56.4-91.5 20 93-119.5 5.2-103.8-5.3 33.5-93-68.8 91.2-105.5-5.2 257.5-184 272.7 184-129.7 5.6z"/><linearGradient id="AS" gradientUnits="userSpaceOnUse" x1="226.771" y1="1035.489" x2="536.459" y2="1035.489"><stop offset="0" stop-color="#2c4159"/><stop offset=".449" stop-color="#43688d"/><stop offset=".502" stop-color="#47698c"/><stop offset=".558" stop-color="#546d8a"/><stop offset=".617" stop-color="#6a7486"/><stop offset=".677" stop-color="#887d81"/><stop offset=".738" stop-color="#af897a"/><stop offset=".798" stop-color="#dd9871"/><stop offset=".837" stop-color="#ffa26b"/></linearGradient><path fill="url(#AS)" d="M369.6 1114.5l-26.1-50.5 7 51.7-72.3 4.6-8.5-.6 3.7-96.6L247 1118l-51.6-3.9 12.5-50.2-29 49-43.5-3.3 150.4-159 159.3 159-75.5 4.9z"/><linearGradient id="AT" gradientUnits="userSpaceOnUse" x1="238.55" y1="1270.503" x2="570.406" y2="1270.503"><stop offset="0" stop-color="#2c4159"/><stop offset=".449" stop-color="#43688d"/><stop offset=".502" stop-color="#47698c"/><stop offset=".558" stop-color="#546d8a"/><stop offset=".617" stop-color="#6a7486"/><stop offset=".677" stop-color="#887d81"/><stop offset=".738" stop-color="#af897a"/><stop offset=".798" stop-color="#dd9871"/><stop offset=".837" stop-color="#ffa26b"/></linearGradient><path fill="url(#AT)" d="M371.2 1349.8l-44.9-63 11.6 65-60.6 3.6-34.3-2.4.4-76.4-36.4 73.9-82.8-5.8 161.2-159.1 170.7 159.1z"/><linearGradient id="AU" gradientUnits="userSpaceOnUse" x1="276.312" y1="922.456" x2="303.07" y2="1105.747"><stop offset="0" stop-color="#2c4159"/><stop offset=".449" stop-color="#43688d"/><stop offset=".502" stop-color="#47698c"/><stop offset=".558" stop-color="#546d8a"/><stop offset=".617" stop-color="#6a7486"/><stop offset=".677" stop-color="#887d81"/><stop offset=".738" stop-color="#af897a"/><stop offset=".798" stop-color="#dd9871"/><stop offset=".837" stop-color="#ffa26b"/></linearGradient><path fill="url(#AU)" d="M405.6 1021.3c-15.2-22.5-44.8-63.8-44.8-63.8l9.4 65.3-96 4.2-46.9-2.4 11.5-74-40.1 72.5-24.7-1.3 10.3-40.6-25.9 39.8-74.4-3.8 200.1-143.1 212 143.1-90.5 4.1z"/><linearGradient id="AV" gradientUnits="userSpaceOnUse" x1="176.67" y1="865.577" x2="470.723" y2="865.577"><stop offset="0" stop-color="#2c4159"/><stop offset=".449" stop-color="#43688d"/><stop offset=".502" stop-color="#47698c"/><stop offset=".558" stop-color="#546d8a"/><stop offset=".617" stop-color="#6a7486"/><stop offset=".677" stop-color="#887d81"/><stop offset=".738" stop-color="#af897a"/><stop offset=".798" stop-color="#dd9871"/><stop offset=".837" stop-color="#ffa26b"/></linearGradient><path fill="url(#AV)" d="M372.7 916.3l-32.3-53.4 13.3 54.3-57.9 2.5-13.1-31.5-31.2 30.9-25.8-1.4 24-53.4-43.5 52.5-63.1-3.3 142.8-102 151.3 102z"/><linearGradient id="AW" gradientUnits="userSpaceOnUse" x1="281.77" y1="799.784" x2="296.487" y2="901.464"><stop offset="0" stop-color="#2c4159"/><stop offset=".449" stop-color="#43688d"/><stop offset=".502" stop-color="#47698c"/><stop offset=".558" stop-color="#546d8a"/><stop offset=".617" stop-color="#6a7486"/><stop offset=".677" stop-color="#887d81"/><stop offset=".738" stop-color="#af897a"/><stop offset=".798" stop-color="#dd9871"/><stop offset=".837" stop-color="#ffa26b"/></linearGradient><path fill="url(#AW)" d="M356.1 834.3l-36.7-53.2 25 53.9-60.9 3.3-36.4-2.1 16.7-62.8c.9-2.1-21.3 28.5-40.4 61.5l-58.6-3.4 118-84.5L408 831.5l-51.9 2.8z"/><linearGradient id="AX" gradientUnits="userSpaceOnUse" x1="288.703" y1="689.199" x2="296.731" y2="817.637"><stop offset="0" stop-color="#2c4159"/><stop offset=".449" stop-color="#43688d"/><stop offset=".502" stop-color="#47698c"/><stop offset=".558" stop-color="#546d8a"/><stop offset=".617" stop-color="#6a7486"/><stop offset=".677" stop-color="#887d81"/><stop offset=".738" stop-color="#af897a"/><stop offset=".798" stop-color="#dd9871"/><stop offset=".837" stop-color="#ffa26b"/></linearGradient><path fill="url(#AX)" d="M356.3 761.7l-39-47.5 15.5 43.1-24.7-4.7-17.9 3.7v-49.9l-15.1 53-8.4 1.8-67.3 6.4 91.4-102.1 96.9 102.1-31.4-5.9z"/><linearGradient id="AY" gradientUnits="userSpaceOnUse" x1="213.253" y1="652.449" x2="373.956" y2="652.449"><stop offset="0" stop-color="#2c4159"/><stop offset=".449" stop-color="#43688d"/><stop offset=".502" stop-color="#47698c"/><stop offset=".558" stop-color="#546d8a"/><stop offset=".617" stop-color="#6a7486"/><stop offset=".677" stop-color="#887d81"/><stop offset=".738" stop-color="#af897a"/><stop offset=".798" stop-color="#dd9871"/><stop offset=".837" stop-color="#ffa26b"/></linearGradient><path fill="url(#AY)" d="M349.4 702.8L320 658.3l14.8 42.4-30.2-4.5-17.2-20.4-16.5 22.5-17.6 2.5 1.7-27.4-18.2 29.8-23.6 3.3 74.5-108 86.2 108-24.5-3.7z"/></g><linearGradient id="AZ" gradientUnits="userSpaceOnUse" x1="754.44" y1="1314.409" x2="201.961" y2="1595.203"><stop offset="0" stop-color="#2c4159"/><stop offset=".114" stop-color="#324b66"/><stop offset=".449" stop-color="#43688d"/><stop offset=".502" stop-color="#47698c"/><stop offset=".558" stop-color="#546d8a"/><stop offset=".617" stop-color="#6a7486"/><stop offset=".677" stop-color="#887d81"/><stop offset=".738" stop-color="#af897a"/><stop offset=".798" stop-color="#dd9871"/><stop offset=".837" stop-color="#ffa26b"/></linearGradient><path fill="url(#AZ)" d="M603.9 1244.8l-352.3 286.1 488.3-63c-5.3-3.1-136-223.1-136-223.1z" class="B"/></svg>