<svg xmlns="http://www.w3.org/2000/svg" xmlns:xlink="http://www.w3.org/1999/xlink" width="100" height="100" viewBox="0 0 1400 1400" xmlns:v="https://vecta.io/nano"><defs><path id="A" d="M0 0h1400v1400H0z"/><path id="B" d="M1268.6 852.8v8l-578 335s-33-2-54-20l5-6s32-6 54-16 350-196.4 350-196.4l200.5-115 22.5 10.4z"/><path id="C" d="M638.5 547.7c-.7 7.9-5 16.1-10.3 18.9s-9.7-.7-10.3-7.9v-.7-1.2c0-.7 0-1.4.1-2.1 0-.3.1-.5.1-.8.7-5.6 3.2-11.3 6.5-14.9.1-.8.1-1.6.1-2.4v-1.1c-4.7 4.6-8.2 12.6-8.8 20.4v.7 1.4c0 .6 0 1.2.1 1.8 0 .2 0 .4.1.6.8 8.6 6.1 12.8 12.4 9.4s11.6-13.2 12.4-22.7c-1 .3-1.7.5-2.4.6z"/></defs><clipPath id="D"><use xlink:href="#A"/></clipPath><g clip-path="url(#D)"><linearGradient id="E" gradientUnits="userSpaceOnUse" x1="700" y1="1197.869" x2="700" y2="48.75"><stop offset="0" stop-color="#fff"/><stop offset=".498" stop-color="#84aada"/><stop offset=".596" stop-color="#7ea5d7"/><stop offset=".74" stop-color="#6e97cf"/><stop offset=".911" stop-color="#5382c2"/><stop offset="1" stop-color="#4076bb"/></linearGradient><path fill="url(#E)" d="M0 0h1400v1400H0z"/><radialGradient id="F" cx="1467.099" cy="-17.253" r="955.81" gradientUnits="userSpaceOnUse"><stop offset="0" stop-color="#fff"/><stop offset=".271" stop-color="#fff" stop-opacity=".815"/><stop offset="1" stop-color="#fff" stop-opacity="0"/></radialGradient><path fill="url(#F)" d="M1396.5 0v950.7C898.9 931 498.8 518.6 498.8 12.7l.1-12.7h897.6z"/><linearGradient id="G" gradientUnits="userSpaceOnUse" x1="149.394" y1="1497.343" x2="185.387" y2="321.578"><stop offset="0" stop-color="#fff"/><stop offset=".498" stop-color="#84aada"/><stop offset=".596" stop-color="#7ea5d7"/><stop offset=".74" stop-color="#6e97cf"/><stop offset=".911" stop-color="#5382c2"/><stop offset="1" stop-color="#4076bb"/></linearGradient><path fill="url(#G)" d="M687.4 1381.6l-53.8-208.2-36.3 140.4-89.7-74.1-45.6-177-24.5 94.9-45.4-176-34.6 133.8-171.4-141.7-34.3-132.8-22.2 86.1-19.1-15.8-45.9-177.6-29.7 115.1-190.4-157.4-53.1 608.2c2.5.6 11 1.2 24.7 1.6l-265 105.7c6.9 8.4 14.1 16.2 21.3 23.5h1180l-65-48.7z"/><linearGradient id="H" gradientUnits="userSpaceOnUse" x1="549.374" y1="1264.925" x2="545.607" y2="1445.753"><stop offset="0" stop-color="#283453"/><stop offset="1" stop-color="#6a7490"/></linearGradient><path fill="url(#H)" d="M516.9 1212.1h62.2v235.5h-62.2z"/><linearGradient id="I" gradientUnits="userSpaceOnUse" x1="648.654" y1="1324.461" x2="648.654" y2="1321.924"><stop offset="0" stop-color="#fff"/><stop offset=".665" stop-color="#c3d7ea"/></linearGradient><path fill="url(#I)" d="M648.7 1324.2c-1.1.6-.9-.2.1-1.9.7.8.7 1.5-.1 1.9z"/><linearGradient id="J" gradientUnits="userSpaceOnUse" x1="472.482" y1="1437.816" x2="472.482" y2="1076.206"><stop offset="0" stop-color="#fff"/><stop offset=".146" stop-color="#f5f7fc"/><stop offset=".358" stop-color="#e0e7f5"/><stop offset=".611" stop-color="#c0d1ec"/><stop offset=".892" stop-color="#96b5df"/><stop offset="1" stop-color="#84aada"/></linearGradient><path fill="url(#J)" d="M517 1035.2l163.4 179.2-1.1 6.1c-2.8 11.3 0 22.6-1.9 33.9-.9 1.9-2.8 3.8-5.7 2.8-23.6-17-48.1-28.3-70.7-45.3-7.5 14.1-10.4 30.2-14.1 45.3-20.7-13.2-33.9-34.9-53.8-48.1 0 2.8.9 5.7 0 8.5-16 33-31.1 64.1-43.4 99-.6 1.4-1.1 2.9-1.8 4.3l-17.8 9.8-4.3-44.6-80.2 44.6-10.5-51.2-110.7 38L517 1035.2z"/><linearGradient id="K" gradientUnits="userSpaceOnUse" x1="634.224" y1="1337.559" x2="634.224" y2="1115.274"><stop offset="0" stop-color="#fff"/><stop offset=".665" stop-color="#c3d7ea"/></linearGradient><path fill="url(#K)" d="M533.1 1217.7c.9-2.8 0-5.7 0-8.5 19.8 13.2 33 34.9 53.8 48.1 3.8-15.1 6.6-31.1 14.1-45.3 22.6 17 47.1 28.3 70.7 45.3 2.8.9 4.7-.9 5.7-2.8 1.9-11.3-.9-22.6 1.9-33.9.5-2 .8-4.1 1.1-6.1l100.1 109.8-100.8-39.6s-25.8 29.6-30.8 37.7c-4.8-6.2-43.6-22.9-43.6-22.9l-20.8 31.4-51.3-34.7L488 1321l1.8-4.3c12.2-34.9 27.3-66 43.3-99z"/><linearGradient id="L" gradientUnits="userSpaceOnUse" x1="639.094" y1="1186.414" x2="639.094" y2="818.472"><stop offset="0" stop-color="#fff"/><stop offset=".665" stop-color="#c3d7ea"/></linearGradient><path fill="url(#L)" d="M524.6 1169.6c0-.9 2.8-1.9 2.8-2.8-1.9-25.5 9.4-48.1 13.2-73.6 0-1.9 0-6.6 2.8-9.4 1.9-.9.9-4.7.9-7.5 12.3 13.2 23.6 27.3 36.8 39.6-.9-12.3 4.7-23.6 11.3-33.9.9-2.8 0-5.7 0-8.5 13.2 14.1 32.1 22.6 45.3 36.8 0-14.1.9-28.3 0-42.4h-2.8v-2.8c8.9.9 16.9 4.1 24.7 7.8l94.1 115.7-99.2-37.4-9.4 50.4-71.9-43.9-3.8 43.9-44.9-27.2c-.1-1.7-.1-3.3.1-4.8z"/><linearGradient id="M" gradientUnits="userSpaceOnUse" x1="409.448" y1="1195.209" x2="409.448" y2="1192.709"><stop offset="0" stop-color="#fff"/><stop offset=".665" stop-color="#c3d7ea"/></linearGradient><path fill="url(#M)" d="M409.4 1194.9c-.7-.4-.7-1-.1-1.9.9 1.7 1.1 2.5.1 1.9z"/><linearGradient id="N" gradientUnits="userSpaceOnUse" x1="475.464" y1="1282.764" x2="475.464" y2="926.49"><stop offset="0" stop-color="#fff"/><stop offset=".146" stop-color="#f5f7fc"/><stop offset=".358" stop-color="#e0e7f5"/><stop offset=".611" stop-color="#c0d1ec"/><stop offset=".892" stop-color="#96b5df"/><stop offset="1" stop-color="#84aada"/></linearGradient><path fill="url(#N)" d="M291.3 1194.9l236.2-284.7 132.2 162.5c-7.8-3.7-15.8-6.9-24.7-7.8v2.8h2.8c.9 14.1 0 28.3 0 42.4-13.2-14.1-32.1-22.6-45.3-36.8 0 2.8.9 5.7 0 8.5-6.6 10.4-12.3 21.7-11.3 33.9-13.2-12.3-24.5-26.4-36.8-39.6 0 2.8.9 6.6-.9 7.5-2.8 2.8-2.8 7.5-2.8 9.4-3.8 25.5-15.1 48.1-13.2 73.6 0 .9-2.8 1.9-2.8 2.8-.2 1.5-.2 3-.1 4.6l-11.5-7-46 34.2-18.6-30.9s-34.8 16.4-39.1 22.5c-4.5-8.1-27.6-37.2-27.6-37.2l-90.5 39.3z"/><linearGradient id="O" gradientUnits="userSpaceOnUse" x1="587.991" y1="1071.73" x2="587.991" y2="719.512"><stop offset="0" stop-color="#fff"/><stop offset=".665" stop-color="#c3d7ea"/></linearGradient><path fill="url(#O)" d="M510.5 915l2.8 2.8c0 1.9-.9 4.7 0 5.7 5.7 5.7 4.7 13.2 8.5 19.8h2.8c.9 1.9 0 3.8 0 5.7 5.7-13.2 15.1-24.5 17-39.6 18.9 3.8 32.1 23.6 48.1 33.9v-50.9c9.6 1 17.2 6 24.3 11.9l87.7 150.8-70.1-43.1s-17.9 32.2-21.4 41.1c-3.3-6.8-30.3-24.9-30.3-24.9l-14.4 34.2-35.7-37.7-43.7 37.7-3-48.5-9 7.8c10.3-39.4 17.5-79.1 36.3-115 .1 2.7.1 5.5.1 8.3z"/><linearGradient id="P" gradientUnits="userSpaceOnUse" x1="610.175" y1="1055.374" x2="610.175" y2="1052.611"><stop offset="0" stop-color="#fff"/><stop offset=".665" stop-color="#c3d7ea"/></linearGradient><path fill="url(#P)" d="M610.2 1055.1c-.8.6-.7-.2.1-2.1.5.9.5 1.6-.1 2.1z"/><linearGradient id="Q" gradientUnits="userSpaceOnUse" x1="478.648" y1="1159.434" x2="478.648" y2="765.779"><stop offset="0" stop-color="#fff"/><stop offset=".146" stop-color="#f5f7fc"/><stop offset=".358" stop-color="#e0e7f5"/><stop offset=".611" stop-color="#c0d1ec"/><stop offset=".892" stop-color="#96b5df"/><stop offset="1" stop-color="#84aada"/></linearGradient><path fill="url(#Q)" d="M518.7 740.5L614 904.3c-7.2-5.9-14.8-11-24.3-11.9v50.9c-16-10.4-29.2-30.2-48.1-33.9-1.9 15.1-11.3 26.4-17 39.6 0-1.9.9-3.8 0-5.7h-2.8c-3.8-6.6-2.8-14.1-8.5-19.8-.9-.9 0-3.8 0-5.7l-2.8-2.8v-8.5c-18.8 35.9-26 75.6-36.3 115l-46.7 40.7-7.3-55.7-76.9 41.3 175.4-307.3z"/><linearGradient id="R" gradientUnits="userSpaceOnUse" x1="467.626" y1="881.926" x2="467.626" y2="879.398"><stop offset="0" stop-color="#fff"/><stop offset=".665" stop-color="#c3d7ea"/></linearGradient><path fill="url(#R)" d="M467.6 881.6c-.3-.4-.3-1 0-1.9.4 1.7.5 2.5 0 1.9z"/><linearGradient id="S" gradientUnits="userSpaceOnUse" x1="466.978" y1="975.299" x2="466.978" y2="617.536"><stop offset="0" stop-color="#fff"/><stop offset=".146" stop-color="#f5f7fc"/><stop offset=".358" stop-color="#e0e7f5"/><stop offset=".611" stop-color="#c0d1ec"/><stop offset=".892" stop-color="#96b5df"/><stop offset="1" stop-color="#84aada"/></linearGradient><path fill="url(#S)" d="M410.3 881.6l113.4-285.8C506.2 684.7 512.5 776 509.8 866l-14.3 22.2-9-31.4s-16.9 16.7-19 22.9c-2.2-8.2-13.4-37.7-13.4-37.7l-43.8 39.6z"/><linearGradient id="T" gradientUnits="userSpaceOnUse" x1="572.317" y1="904.739" x2="572.317" y2="543.231"><stop offset="0" stop-color="#fff"/><stop offset=".665" stop-color="#c3d7ea"/></linearGradient><path fill="url(#T)" d="M524.9 592.8L634.8 875l-48.2-38-4.6 51.2-34.9-44.6-1.9 44.6-27.4-34.7-8 12.5c2.6-90-3.7-181.4 13.9-270.2l1.2-3z"/><linearGradient id="U" gradientUnits="userSpaceOnUse" x1="927.851" y1="1012.846" x2="922.433" y2="1272.906"><stop offset="0" stop-color="#283453"/><stop offset="1" stop-color="#6a7490"/></linearGradient><path fill="url(#U)" d="M881.2 936.8h89.4v338.7h-89.4z"/><linearGradient id="V" gradientUnits="userSpaceOnUse" x1="1070.632" y1="1098.468" x2="1070.632" y2="1094.819"><stop offset="0" stop-color="#fff"/><stop offset=".665" stop-color="#c3d7ea"/></linearGradient><path fill="url(#V)" d="M1070.8 1098c-1.6.8-1.4-.3.1-2.7.9 1.2 1 2.2-.1 2.7z"/><linearGradient id="W" gradientUnits="userSpaceOnUse" x1="817.268" y1="1261.491" x2="817.268" y2="741.437"><stop offset="0" stop-color="#fff"/><stop offset=".146" stop-color="#f5f7fc"/><stop offset=".358" stop-color="#e0e7f5"/><stop offset=".611" stop-color="#c0d1ec"/><stop offset=".892" stop-color="#96b5df"/><stop offset="1" stop-color="#84aada"/></linearGradient><path fill="url(#W)" d="M881.3 682.5l234.9 257.7-1.6 8.8c-4.1 16.3 0 32.5-2.7 48.8-1.4 2.7-4.1 5.4-8.1 4.1-33.9-24.4-69.2-40.7-101.7-65.1-10.8 20.3-14.9 43.4-20.3 65.1-29.8-19-48.8-50.2-77.3-69.2 0 4.1 1.4 8.1 0 12.2-23.1 47.5-44.8 92.2-62.4 142.4-.8 2.1-1.6 4.1-2.5 6.1l-25.5 14.1-6.2-64.1-115.3 64.1-15.1-73.6-159.2 54.6 363-406z"/><linearGradient id="X" gradientUnits="userSpaceOnUse" x1="1049.879" y1="1117.305" x2="1049.879" y2="797.624"><stop offset="0" stop-color="#fff"/><stop offset=".665" stop-color="#c3d7ea"/></linearGradient><path fill="url(#X)" d="M904.5 944.9c1.4-4.1 0-8.1 0-12.2 28.5 19 47.5 50.2 77.3 69.2 5.4-21.7 9.5-44.8 20.3-65.1 32.5 24.4 67.8 40.7 101.7 65.1 4.1 1.4 6.8-1.4 8.1-4.1 2.7-16.3-1.4-32.5 2.7-48.8.7-2.9 1.2-5.9 1.6-8.8l143.9 157.9-145-57s-37.1 42.5-44.3 54.3c-6.9-9-62.7-32.9-62.7-32.9l-29.9 45.1-73.8-49.9-65 35.8c.9-2 1.7-4.1 2.5-6.1 17.8-50.2 39.5-95 62.6-142.5z"/><linearGradient id="Y" gradientUnits="userSpaceOnUse" x1="1056.884" y1="899.934" x2="1056.884" y2="370.773"><stop offset="0" stop-color="#fff"/><stop offset=".665" stop-color="#c3d7ea"/></linearGradient><path fill="url(#Y)" d="M892.3 875.8c0-1.4 4.1-2.7 4.1-4.1-2.7-36.6 13.6-69.2 19-105.8 0-2.7 0-9.5 4.1-13.6 2.7-1.4 1.4-6.8 1.4-10.8 17.6 19 33.9 39.3 52.9 57-1.4-17.6 6.8-33.9 16.3-48.8 1.4-4.1 0-8.1 0-12.2 19 20.3 46.1 32.5 65.1 52.9 0-20.3 1.4-40.7 0-61h-4.1v-4.1c12.8 1.3 24.3 5.9 35.5 11.2L1222 902.9 1079.1 849l-13.5 72.5-103.4-63.2-5.5 63.2-64.6-39.1c-.2-2.2-.2-4.5.2-6.6z"/><linearGradient id="Z" gradientUnits="userSpaceOnUse" x1="726.616" y1="912.583" x2="726.616" y2="908.987"><stop offset="0" stop-color="#fff"/><stop offset=".665" stop-color="#c3d7ea"/></linearGradient><path fill="url(#Z)" d="M726.5 912.2c-1-.6-1-1.5-.1-2.7 1.3 2.4 1.5 3.5.1 2.7z"/><linearGradient id="a" gradientUnits="userSpaceOnUse" x1="821.556" y1="1038.501" x2="821.556" y2="526.122"><stop offset="0" stop-color="#fff"/><stop offset=".146" stop-color="#f5f7fc"/><stop offset=".358" stop-color="#e0e7f5"/><stop offset=".611" stop-color="#c0d1ec"/><stop offset=".892" stop-color="#96b5df"/><stop offset="1" stop-color="#84aada"/></linearGradient><path fill="url(#a)" d="M556.7 912.2l339.7-409.4 190.1 233.7c-11.2-5.3-22.8-9.9-35.5-11.2v4.1h4.1c1.4 20.3 0 40.7 0 61-19-20.3-46.1-32.5-65.1-52.9 0 4.1 1.4 8.1 0 12.2-9.5 14.9-17.6 31.2-16.3 48.8-19-17.6-35.3-38-52.9-57 0 4.1 1.4 9.5-1.4 10.8-4.1 4.1-4.1 10.8-4.1 13.6-5.4 36.6-21.7 69.2-19 105.8 0 1.4-4.1 2.7-4.1 4.1-.4 2.1-.3 4.4-.2 6.6l-16.6-10-66.2 49.1-26.8-44.5s-50 23.6-56.2 32.4c-6.5-11.6-39.7-53.5-39.7-53.5l-129.8 56.3z"/><linearGradient id="b" gradientUnits="userSpaceOnUse" x1="983.389" y1="735" x2="983.389" y2="228.453"><stop offset="0" stop-color="#fff"/><stop offset=".665" stop-color="#c3d7ea"/></linearGradient><path fill="url(#b)" d="M871.9 509.6l4.1 4.1c0 2.7-1.4 6.8 0 8.1 8.1 8.1 6.8 19 12.2 28.5h4.1c1.4 2.7 0 5.4 0 8.1 8.1-19 21.7-35.3 24.4-57 27.1 5.4 46.1 33.9 69.2 48.8V477c13.7 1.4 24.7 8.7 35 17.1L1147 711l-100.8-62s-25.7 46.3-30.8 59.1c-4.8-9.8-43.5-35.8-43.5-35.8l-20.8 49.1-51.3-54.3-62.8 54.3-4.3-69.8-12.9 11.3c14.8-56.7 25.1-113.8 52.2-165.4-.1 4-.1 8-.1 12.1z"/><linearGradient id="c" gradientUnits="userSpaceOnUse" x1="1015.294" y1="711.477" x2="1015.294" y2="707.504"><stop offset="0" stop-color="#fff"/><stop offset=".665" stop-color="#c3d7ea"/></linearGradient><path fill="url(#c)" d="M1015.4 711c-1.1.9-.9-.3.1-3 .6 1.4.7 2.4-.1 3z"/><linearGradient id="d" gradientUnits="userSpaceOnUse" x1="826.137" y1="861.132" x2="826.137" y2="294.992"><stop offset="0" stop-color="#fff"/><stop offset=".146" stop-color="#f5f7fc"/><stop offset=".358" stop-color="#e0e7f5"/><stop offset=".611" stop-color="#c0d1ec"/><stop offset=".892" stop-color="#96b5df"/><stop offset="1" stop-color="#84aada"/></linearGradient><path fill="url(#d)" d="M883.7 258.6l137.1 235.6c-10.3-8.5-21.3-15.8-35-17.1v73.2c-23.1-14.9-42-43.4-69.2-48.8-2.7 21.7-16.3 38-24.4 57 0-2.7 1.4-5.4 0-8.1h-4.1c-5.4-9.5-4.1-20.3-12.2-28.5-1.4-1.4 0-5.4 0-8.1l-4.1-4.1v-12.2c-27 51.6-37.4 108.7-52.2 165.4l-67.2 58.5-10.5-80.1-110.6 59.5 252.4-442.2z"/><linearGradient id="e" gradientUnits="userSpaceOnUse" x1="810.285" y1="462.031" x2="810.285" y2="458.395"><stop offset="0" stop-color="#fff"/><stop offset=".665" stop-color="#c3d7ea"/></linearGradient><path fill="url(#e)" d="M810.2 461.6c-.5-.6-.5-1.5-.1-2.7.7 2.4.8 3.5.1 2.7z"/><linearGradient id="f" gradientUnits="userSpaceOnUse" x1="809.353" y1="596.317" x2="809.353" y2="81.795"><stop offset="0" stop-color="#fff"/><stop offset=".146" stop-color="#f5f7fc"/><stop offset=".358" stop-color="#e0e7f5"/><stop offset=".611" stop-color="#c0d1ec"/><stop offset=".892" stop-color="#96b5df"/><stop offset="1" stop-color="#84aada"/></linearGradient><path fill="url(#f)" d="M727.8 461.6L891 50.6c-25.2 127.8-16.1 259.2-19.9 388.6l-20.6 31.9-13-45.1s-24.3 24-27.3 32.9c-3.2-11.7-19.3-54.3-19.3-54.3l-63.1 57z"/><linearGradient id="g" gradientUnits="userSpaceOnUse" x1="960.847" y1="494.839" x2="960.847" y2="-25.067"><stop offset="0" stop-color="#fff"/><stop offset=".665" stop-color="#c3d7ea"/></linearGradient><path fill="url(#g)" d="M892.7 46.2l158 405.9-69.3-54.6-6.6 73.6-50.1-64.1-2.7 64.1-39.4-49.9-11.6 18c3.8-129.5-5.3-260.8 19.9-388.6l1.8-4.4z"/><linearGradient id="h" gradientUnits="userSpaceOnUse" x1="700.57" y1="1103.338" x2="700.57" y2="-1060.332"><stop offset="0" stop-color="#6081b9"/><stop offset=".989" stop-color="#232642"/></linearGradient><path fill="url(#h)" d="M710 1046.3c0-5.1-34.2-876-34.2-876h17.1l32.5 890.6-15.4-14.6z"/><linearGradient id="i" gradientUnits="userSpaceOnUse" x1="594.823" y1="1183.542" x2="594.823" y2="-980.128"><stop offset="0" stop-color="#6081b9"/><stop offset=".989" stop-color="#232642"/></linearGradient><path fill="url(#i)" d="M602.4 1126.5c0-5.1-27.6-876-27.6-876h13.8l26.2 890.6-12.4-14.6z"/><linearGradient id="j" gradientUnits="userSpaceOnUse" x1="635.238" y1="503.812" x2="635.238" y2="290.968"><stop offset="0" stop-color="#6081b9"/><stop offset=".989" stop-color="#232642"/></linearGradient><path fill="url(#j)" d="M610.7 499.6c27.4-2.6 52.2-23.1 69.3-45.3 2.6-3.4 5.1-6.8 6.8-12 0-1 .8-1.5 1.9-1.9l-3.5-28.4c-24.9 35.4-103.5 56.1-103.5 56.1l1.8 19.2c5.5 2.5 11.1 4.5 16.1 7.2 4.3 1.7 8.6 5.1 11.1 5.1z"/><linearGradient id="k" gradientUnits="userSpaceOnUse" x1="595.385" y1="664.953" x2="595.385" y2="661.819"><stop offset="0" stop-color="#6081b9"/><stop offset=".989" stop-color="#232642"/></linearGradient><path fill="url(#k)" d="M594.8 664.5c.5.7.9.3 1.1-.9-.3.3-.7.6-1.1.9z"/><linearGradient id="l" gradientUnits="userSpaceOnUse" x1="580.868" y1="686.846" x2="666.416" y2="365.185"><stop offset="0" stop-color="#6081b9"/><stop offset=".989" stop-color="#232642"/></linearGradient><path fill="url(#l)" d="M641.5 577.5c-12.8-6-25.7-13.7-35.9-24 11.1 2.6 23.1 13.7 31.7 9.4 24.8-13.7 32.5-44.5 41.9-72.7 1.7-3.4 5.1-6.8 6.8-10.3 1.9-6.6 3.9-13 5.2-19.4l-2.5-20.2c-1.1.4-1.9.9-1.9 1.9-1.7 5.1-4.3 8.6-6.8 12-17.1 22.2-41.9 42.8-69.3 45.3-2.6 0-6.8-3.4-11.1-5.1-4.9-2.7-10.6-4.7-16.1-7.2l7.7 86.4c17.7 4 36 6 53.7 8 .9.2-5.1-.7-3.4-4.1z"/><linearGradient id="m" gradientUnits="userSpaceOnUse" x1="644.925" y1="405.602" x2="655.191" y2="778.591"><stop offset="0" stop-color="#6081b9"/><stop offset=".989" stop-color="#232642"/></linearGradient><path fill="url(#m)" d="M691.3 460.6c-1.4 6.4-3.3 12.8-5.2 19.4-1.7 3.4-5.1 6.8-6.8 10.3-9.4 28.2-17.1 59-41.9 72.7-8.6 4.3-20.5-6.8-31.7-9.4 10.3 10.3 23.1 18 35.9 24-1.7 3.4 4.3 4.3 3.4 4.3-17.7-2-36-4-53.7-8 3.5 42 6.2 82.2 4.7 89.9 70-58.8 112.6-63.9 112.6-63.9l-17.3-139.3z"/><linearGradient id="n" gradientUnits="userSpaceOnUse" x1="1356.981" y1="811.236" x2="427.551" y2="2214.26"><stop offset="0" stop-color="#fff"/><stop offset=".146" stop-color="#f5f7fc"/><stop offset=".358" stop-color="#e0e7f5"/><stop offset=".611" stop-color="#c0d1ec"/><stop offset=".892" stop-color="#96b5df"/><stop offset="1" stop-color="#84aada"/></linearGradient><path fill="url(#n)" d="M1516.8 806.6c-134.7 88.8-267.2 177.2-407.8 278.4-161.8 116.6-304.6 230.3-452 345.4h76.5L1537.1 977l-20.3-170.4z"/><linearGradient id="o" gradientUnits="userSpaceOnUse" x1="1561.266" y1="827.936" x2="793.538" y2="1986.862"><stop offset="0" stop-color="#fff"/><stop offset=".146" stop-color="#f5f7fc"/><stop offset=".358" stop-color="#e0e7f5"/><stop offset=".611" stop-color="#c0d1ec"/><stop offset=".892" stop-color="#96b5df"/><stop offset="1" stop-color="#84aada"/></linearGradient><path fill="url(#o)" d="M1537 977l-803.6 453.4h857.5L1537 977z"/><linearGradient id="p" gradientUnits="userSpaceOnUse" x1="1427.346" y1="444.519" x2="345.391" y2="2077.789"><stop offset="0" stop-color="#fff"/><stop offset=".146" stop-color="#f5f7fc"/><stop offset=".358" stop-color="#e0e7f5"/><stop offset=".611" stop-color="#c0d1ec"/><stop offset=".892" stop-color="#96b5df"/><stop offset="1" stop-color="#84aada"/></linearGradient><path fill="url(#p)" d="M1516.8 806.6l-7.1-60.1c-153.8 82.9-302.9 173.2-458.6 271.5-137 87-254 166-389 260L445 1430.4h27.3l8.8-4.4-8.8 4.4H657c147.5-115 290.2-228.8 452-345.4 140.6-101.2 273.1-189.6 407.8-278.4z"/><linearGradient id="q" gradientUnits="userSpaceOnUse" x1="1035.412" y1="659.03" x2="-377.729" y2="2792.243"><stop offset="0" stop-color="#fff"/><stop offset=".146" stop-color="#f5f7fc"/><stop offset=".358" stop-color="#e0e7f5"/><stop offset=".611" stop-color="#c0d1ec"/><stop offset=".892" stop-color="#96b5df"/><stop offset="1" stop-color="#84aada"/></linearGradient><path fill="url(#q)" d="M1488.9 572c-9 .3-1443.1 858.4-1443.1 858.4h183.1c410.1-273.6 836-522.8 1272.6-752.4l-12.6-106z"/><linearGradient id="r" gradientUnits="userSpaceOnUse" x1="1470.839" y1="501.941" x2="928.639" y2="1320.42"><stop offset="0" stop-color="#fff"/><stop offset=".146" stop-color="#f5f7fc"/><stop offset=".358" stop-color="#e0e7f5"/><stop offset=".611" stop-color="#c0d1ec"/><stop offset=".892" stop-color="#96b5df"/><stop offset="1" stop-color="#84aada"/></linearGradient><path fill="url(#r)" d="M1131.3 842.5C1139.6 833.9 1239 700 1239 700s0 48.4-1.1 40.6S1385.6 532 1385.6 532s-24 79.9-19.5 71.5S1501.5 442 1501.5 442l-39.4 245.3-337.5 201.2 6.7-46z"/><linearGradient id="s" gradientUnits="userSpaceOnUse" x1="1166.376" y1="639.943" x2="-76.205" y2="2515.688"><stop offset="0" stop-color="#fff"/><stop offset=".146" stop-color="#f5f7fc"/><stop offset=".358" stop-color="#e0e7f5"/><stop offset=".611" stop-color="#c0d1ec"/><stop offset=".892" stop-color="#96b5df"/><stop offset="1" stop-color="#84aada"/></linearGradient><path fill="url(#s)" d="M228.9 1430.4H445L662.1 1278c135-94 252-173 389-260 155.8-98.3 304.9-188.6 458.6-271.5l-8.1-68.5C1064.8 907.6 639 1156.8 228.9 1430.4z"/><linearGradient id="t" gradientUnits="userSpaceOnUse" x1="1352.148" y1="659.587" x2="894.226" y2="1350.845"><stop offset="0" stop-color="#fff"/><stop offset=".146" stop-color="#f5f7fc"/><stop offset=".358" stop-color="#e0e7f5"/><stop offset=".611" stop-color="#c0d1ec"/><stop offset=".892" stop-color="#96b5df"/><stop offset="1" stop-color="#84aada"/></linearGradient><path fill="url(#t)" d="M1028 965l107-105-9 22 88.6-64.9-17.9 25.4 97-81.8s-18.3 38.4-9 33.4C1294.1 789 1400 700 1400 700l-1.5 32.7 69.6-64.1-63.2 77.9-245 136.9c-6.8-.3-131.9 81.6-131.9 81.6z"/><linearGradient id="u" gradientUnits="userSpaceOnUse" x1="1288.288" y1="621.512" x2="1723.632" y2="621.512"><stop offset="0" stop-color="#fecb80"/><stop offset=".995" stop-color="#f37021"/></linearGradient><path fill="url(#u)" d="M1288.6 637l-.3-6 435-25 .3 6z"/><linearGradient id="v" gradientUnits="userSpaceOnUse" x1="795.179" y1="619.095" x2="1015.234" y2="619.095"><stop offset="0" stop-color="#fecb80"/><stop offset=".995" stop-color="#f37021"/></linearGradient><path fill="url(#v)" d="M1012.7 686.1L795.2 561.3l2.5-9.3 217.5 129.9z"/><linearGradient id="w" gradientUnits="userSpaceOnUse" x1="636.61" y1="1019.135" x2="1268.61" y2="1019.135"><stop offset="0" stop-color="#fecb80"/><stop offset=".995" stop-color="#f37021"/></linearGradient><use xlink:href="#B" fill="url(#w)"/><linearGradient id="x" gradientUnits="userSpaceOnUse" x1="759.606" y1="829.189" x2="1028.606" y2="1087.189"><stop offset="0" stop-color="#fecb80"/><stop offset=".995" stop-color="#f37021"/></linearGradient><path fill="url(#x)" d="M1268.6 852.8v8l-578 335s-33-2-54-20l5-6c35.8 12.2 50.8 12.2 50.8 12.2l576.2-329.2z"/><linearGradient id="y" gradientUnits="userSpaceOnUse" x1="691.276" y1="1111.418" x2="937.079" y2="1111.418"><stop offset="0" stop-color="#fff"/><stop offset=".146" stop-color="#f5f7fc"/><stop offset=".358" stop-color="#e0e7f5"/><stop offset=".611" stop-color="#c0d1ec"/><stop offset=".892" stop-color="#96b5df"/><stop offset="1" stop-color="#84aada"/></linearGradient><path fill="url(#y)" d="M691.3 1203.7c10.2-5.9 81.2-85.2 81.2-85.2s-17.8 27.1-9.5 22.3 98.5-80 98.5-80l-17.7 27.5 93.3-69.2s-41.4 58.9-45.4 59.7-200.4 124.9-200.4 124.9z"/><linearGradient id="z" gradientUnits="userSpaceOnUse" x1="923.75" y1="976.956" x2="1042.42" y2="976.956"><stop offset="0" stop-color="#6081b9"/><stop offset=".989" stop-color="#232642"/></linearGradient><path fill="url(#z)" d="M1042.4 963.3c0 2-9.3 24.7-11.3 26s-18.8 7.3-18.8 7.3l-28.5 30s-16.7 10-28.7 8.7-28.7-4.7-28.7-4.7l-2.7-12.7.4-.6 40.6-57.1 2.8-3.9 44.7-37.8c.1 0 30.2 42.8 30.2 44.8z"/><linearGradient id="AA" gradientUnits="userSpaceOnUse" x1="895.453" y1="968.073" x2="1000.453" y2="978.573"><stop offset="0" stop-color="#6081b9"/><stop offset=".989" stop-color="#232642"/></linearGradient><path fill="url(#AA)" d="M1042.4 963.3c0 2-9.3 24.7-11.3 26s-18.8 7.3-18.8 7.3l-28.5 30s-16.7 10-28.7 8.7-28.7-4.7-28.7-4.7l-2.7-12.7c0-.3.1-.5.4-.6 3.5-1.5 28.5 4.7 28.5 4.7s19.8-24 17.8-26.3-5.7-35.5-5.7-35.5l2.8-3.9 44.7-37.8c.1 0 30.2 42.8 30.2 44.8z"/><linearGradient id="AB" gradientUnits="userSpaceOnUse" x1="764.48" y1="937.37" x2="1396.48" y2="937.37"><stop offset="0" stop-color="#fecb80"/><stop offset=".995" stop-color="#f37021"/></linearGradient><path fill="url(#AB)" d="M1396.5 771v8l-578 335s-33-2-54-20l5-6s32-6 54-16 350-196.4 350-196.4l200.5-115 22.5 10.4z"/><linearGradient id="AC" gradientUnits="userSpaceOnUse" x1="958.115" y1="733.918" x2="1096.115" y2="957.918"><stop offset="0" stop-color="#fecb80"/><stop offset=".995" stop-color="#f37021"/></linearGradient><path fill="url(#AC)" d="M1396.5 771v8l-578 335s-33-2-54-20l5-6c27 14 50.3 15 50.3 15l576.7-332z"/><linearGradient id="AD" gradientUnits="userSpaceOnUse" x1="1014.501" y1="953.015" x2="1134.228" y2="885.281"><stop offset="0" stop-color="#6081b9"/><stop offset=".989" stop-color="#232642"/></linearGradient><path fill="url(#AD)" d="M1162.3 911.7l-7.3 6.7s-20 8.6-30.7 18c-10.7 9.3-26 23.3-26 23.3s-24.6 11.1-32.6 7.8c-7.9-3.3-34.5-11.3-35.3-11.5 0 0 .4-14.6 0-14.5s15.2-27.1 22.6-33.1c3.3-2.7 9.3-10.5 14.9-18.3a408.43 408.43 0 0 0 9.7-13.9c.1-.1.1-.2.2-.2l3-4.4 1.3-1.9h0l10.9-15.4 6.5.9 47.8 6.3c5.8 16.4 10.3 33.5 15 50.2z"/><linearGradient id="AE" gradientUnits="userSpaceOnUse" x1="1001.401" y1="879.994" x2="1124.401" y2="920.494"><stop offset="0" stop-color="#6081b9"/><stop offset=".989" stop-color="#232642"/></linearGradient><path fill="url(#AE)" d="M1162.3 911.7l-7.3 6.7s-20 8.6-30.7 18c-10.7 9.3-26 23.3-26 23.3s-24.6 11.1-32.6 7.8c-7.9-3.3-34.5-11.3-35.3-11.5l38.5 1.5 11.5-12.5 22.5-15.5-20-11s-9.9-21.7-15-28.4a408.43 408.43 0 0 0 9.7-13.9c1.7-1.7 3.1-3.9 4.5-6.5h0l10.9-15.4 6.5.9 47.8 6.3c5.8 16.4 10.3 33.5 15 50.2z"/><linearGradient id="AF" gradientUnits="userSpaceOnUse" x1="1171.959" y1="862.264" x2="1119.959" y2="947.264"><stop offset="0" stop-color="#6081b9"/><stop offset=".989" stop-color="#232642"/></linearGradient><path fill="url(#AF)" d="M1169.7 886.6l-17-24.2-5.4-.7c5.7 16.3 10.2 33.3 14.9 50.1l10.1-9.3-2.6-15.9z"/><linearGradient id="AG" gradientUnits="userSpaceOnUse" x1="957.79" y1="810.665" x2="1161.13" y2="810.665"><stop offset="0" stop-color="#6081b9"/><stop offset=".989" stop-color="#232642"/></linearGradient><path fill="url(#AG)" d="M1035.8 899.7c-1.3 2 3.3 6 3.3 6l-13.3 17.3 4 15.3-17.3 22-42 4.7-12.7-10.7 21.3-122 58-139.9v-14.1l10.5-4 105.5-18 8 6-92.7 169.3c-.7 2-31.3 66.1-32.6 68.1z"/><linearGradient id="AH" gradientUnits="userSpaceOnUse" x1="881.104" y1="704.768" x2="1125.104" y2="847.768"><stop offset="0" stop-color="#6081b9"/><stop offset=".989" stop-color="#232642"/></linearGradient><path fill="url(#AH)" d="M1035.8 899.7c-1.3 2 3.3 6 3.3 6l-13.3 17.3 4 15.3-17.3 22-42 4.7 12.6-46.5 21.3-8.7-9-16.8 9-10v-40.5l16.7-11.5 6.3-27 32-84-22.3-41.7 10.5-4 105.5-18 8 6-92.7 169.3c-.7 2-31.3 66.1-32.6 68.1z"/><linearGradient id="AI" gradientUnits="userSpaceOnUse" x1="1069.007" y1="888.335" x2="1069.17" y2="888.335"><stop offset="0" stop-color="#6081b9"/><stop offset=".989" stop-color="#232642"/></linearGradient><path fill="url(#AI)" d="M1069.1 888.2l.1.3c-.2-.2-.2-.3-.1-.3z"/><linearGradient id="AJ" gradientUnits="userSpaceOnUse" x1="956.909" y1="735.524" x2="1266.908" y2="775.524"><stop offset="0" stop-color="#6081b9"/><stop offset=".989" stop-color="#232642"/></linearGradient><path fill="url(#AJ)" d="M1247.8 715.7c.4 14.4-46.8 45-46.8 45l-71.9 9.6 6.7 9.3-.7 28.3s1.3 9 1.3 11 6.5 27.3 5.2 30 7.3-2 7.3-2 4.7 6 6 11.3-10 27.3-10 29.3-12.4 25.3-33.4 15.6c-17-7.9-37.2-14.3-41.6-15-.4-.1-.7-.1-.8-.1l-20.8-68.2-20.9-45-6.3-38s2-28 10.7-42c45.3-23.3 154.6-36.5 154.6-36.5l41.8-37 17.8 64.6c.7 2.2 1.7 27.4 1.8 29.8z"/><linearGradient id="AK" gradientUnits="userSpaceOnUse" x1="973.875" y1="537.427" x2="1174.087" y2="785.965"><stop offset="0" stop-color="#6081b9"/><stop offset=".989" stop-color="#232642"/></linearGradient><path fill="url(#AK)" d="M1247.8 715.7c.4 14.4-46.8 45-46.8 45l-71.9 9.6 6.7 9.3-.7 28.3s1.3 9 1.3 11 6.5 27.3 5.2 30 7.3-2 7.3-2 4.7 6 6 11.3-10 27.3-10 29.3-12.4 25.3-33.4 15.6c-17-7.9-37.2-14.3-41.6-15l33.5-9.3-17.1-15 17.1-21.5-17.1-7.5-26.8-83 10.1-19.3 33.8 16.3-15.5-24 140.2-15 .2-88.5 17.8 64.6c.6 2.2 1.6 27.4 1.7 29.8z"/><linearGradient id="AL" gradientUnits="userSpaceOnUse" x1="1261.991" y1="640.567" x2="1197.038" y2="716.437"><stop offset="0" stop-color="#6081b9"/><stop offset=".989" stop-color="#232642"/></linearGradient><path fill="url(#AL)" d="M1247.8 715.7L1228 710l.2-88.5 17.8 64.6c.7 2 1.7 27.2 1.8 29.6z"/><linearGradient id="AM" gradientUnits="userSpaceOnUse" x1="1280.248" y1="647.708" x2="1302.248" y2="679.708"><stop offset="0" stop-color="#6081b9"/><stop offset=".989" stop-color="#232642"/></linearGradient><path fill="url(#AM)" d="M1286 670l-10.2-13 18-5.4z"/><linearGradient id="AN" gradientUnits="userSpaceOnUse" x1="816.46" y1="478.545" x2="1013.953" y2="478.545"><stop offset="0" stop-color="#fff"/><stop offset=".146" stop-color="#f5f7fc"/><stop offset=".358" stop-color="#e0e7f5"/><stop offset=".611" stop-color="#c0d1ec"/><stop offset=".892" stop-color="#96b5df"/><stop offset="1" stop-color="#84aada"/></linearGradient><path fill="url(#AN)" d="M986.8 486l-26.7 19.5-17.2 7-61.5 27-7.4-3.5-6.4 3-23.1 11c-12.8-11.3-23-24.1-28-40l25.5-13.5 2.5-8L915 442l5.5-11.5h7l5-10s13.5-2.5 15-2.5 9-4.5 9-4.5c20.4-11 35.1-6.1 44.6 1.2 8 6.1 12.2 13.9 12.9 15.3 1.3 3-27.2 56-27.2 56z"/><linearGradient id="AO" gradientUnits="userSpaceOnUse" x1="804.617" y1="361.868" x2="968.617" y2="507.202"><stop offset="0" stop-color="#fff"/><stop offset=".146" stop-color="#f5f7fc"/><stop offset=".358" stop-color="#e0e7f5"/><stop offset=".611" stop-color="#c0d1ec"/><stop offset=".892" stop-color="#96b5df"/><stop offset="1" stop-color="#84aada"/></linearGradient><path fill="url(#AO)" d="M986.8 486l-26.7 19.5-17.2 7-61.5 27-7.4-3.5-6.4 3-10.3-23.7h19.2l60-36.8v-20l12.7 11-6.2-31 14.8 10.4 6.4-27.6s21.3-3.5 36.9-6.7c8 6.1 12.2 13.9 12.9 15.3 1.3 3.1-27.2 56.1-27.2 56.1z"/><linearGradient id="AP" gradientUnits="userSpaceOnUse" x1="1138.824" y1="379.024" x2="1067.824" y2="499.024"><stop offset="0" stop-color="#6081b9"/><stop offset=".989" stop-color="#232642"/></linearGradient><path fill="url(#AP)" d="M1134.5 401.9s39.6-4.8 47.1-1.8c.2.1.6.2 1.2.3l-45.4-20.2-2.4-1.2-42.1-7.4-13.1 11.5c16.6 10.1 35 17.8 53.7 25l1-6.2z"/><linearGradient id="AQ" gradientUnits="userSpaceOnUse" x1="1041.755" y1="4.999" x2="1148.25" y2="754.962"><stop offset="0" stop-color="#fecb80"/><stop offset=".995" stop-color="#f37021"/></linearGradient><path fill="url(#AQ)" d="M1247.8 591l-19.6 30.5-23.8 34.2-144 22.7-12.8-4 3.7-14-2.8-56.8L1017 526l-37.9-97 2.6-1.8 76.7-53.5 20.8 9.9c.2-.1.3-.3.5-.4 16.6 10.1 36 11.5 54.7 18.8l-1.1 7.3 78.5 37.1 1.1 12.3 6.9 73.7 22.9 34.7s-10.3 14-10.3 15 15.4 8.9 15.4 8.9z"/><linearGradient id="AR" gradientUnits="userSpaceOnUse" x1="985.374" y1="546.81" x2="1249.438" y2="582.414"><stop offset="0" stop-color="#fecb80"/><stop offset=".995" stop-color="#f37021"/></linearGradient><path fill="url(#AR)" d="M1059.5 634l66.5-12.5v30.1l-78.4 22.7 3.7-14-2.8-56.8L1017 526l-37.9-97 2.6-1.8 6.5 11.4 14.4 17.1 59 27.9 7.9 73.5 65 13.4-26 25.5z"/><linearGradient id="AS" gradientUnits="userSpaceOnUse" x1="1229.04" y1="512.997" x2="1136.397" y2="748.432"><stop offset="0" stop-color="#fecb80"/><stop offset=".995" stop-color="#f37021"/></linearGradient><path fill="url(#AS)" d="M1247.8 591l-19.6 30.5-23.8 34.2 2.7-46.7-12.8-13.3 12.8-20.7-18-18-7.6-48.9s14.3-37.8 22.9-44.4c2.2-1.7 5.1-3.4 8.5-5.1l6.9 73.7 22.9 34.7s-10.3 14-10.3 15 15.4 9 15.4 9z"/><linearGradient id="AT" gradientUnits="userSpaceOnUse" x1="1085.567" y1="286.208" x2="1040.712" y2="378.78"><stop offset="0" stop-color="#6081b9"/><stop offset=".989" stop-color="#232642"/></linearGradient><path fill="url(#AT)" d="M986.8,436l15.8,19.7l61.2-56.8c-9.7-27.4-16.5-55.7-25.2-83.4L986.8,436z"/><linearGradient id="AU" gradientUnits="userSpaceOnUse" x1="1071.691" y1="315.048" x2="1024.535" y2="412.37"><stop offset="0" stop-color="#6081b9"/><stop offset=".989" stop-color="#232642"/></linearGradient><path fill="url(#AU)" d="M1085 338.5l-37.4-26.2h-5.9-1.8l-1.4 3.2c8.7 27.7 15.5 56 25.2 83.4l.7-.6 20.6-59.8z"/><linearGradient id="AV" gradientUnits="userSpaceOnUse" x1="940.363" y1="297.918" x2="958.863" y2="327.918"><stop offset="0" stop-color="#6081b9"/><stop offset=".989" stop-color="#232642"/></linearGradient><path fill="url(#AV)" d="M917.7 365s5 5.3 15.8 5.3 94.5-25.9 94.5-25.9l-1.3-10.2-109 30.8z"/><linearGradient id="AW" gradientUnits="userSpaceOnUse" x1="1043.288" y1="307.755" x2="1017.954" y2="343.755"><stop offset="0" stop-color="#6081b9"/><stop offset=".989" stop-color="#232642"/></linearGradient><path fill="url(#AW)" d="M1013.9 366.7c-1.4.8-2.9 1.3-3.6 1.5-.3.1-.4.1-.4.1l-1.6-4.6-4.1-12.2-1.5-4.5 8-2.7s0 .1.1.3c0 .1 0 .1.1.2h0c.1.2.2.5.3.9l1.3 3.4c1.7 4.5 4 10.9 4.5 12.6.5 2.2-1.2 3.9-3.1 5z"/><linearGradient id="AX" gradientUnits="userSpaceOnUse" x1="1079.153" y1="284.146" x2="1016.487" y2="348.813"><stop offset="0" stop-color="#6081b9"/><stop offset=".989" stop-color="#232642"/></linearGradient><path fill="url(#AX)" d="M1048.5 324.3s-.4 1.5-1.6 4.1c-2.7 5.9-9.4 17.2-23.6 28.6-2 1.6-4.1 3.1-6.3 4.7l-4.5-12.6c-.5-1.4-1-2.6-1.2-3.4-.1-.4-.2-.7-.3-.9h0c0-.1 0-.1-.1-.2-.1-.2-.1-.3-.1-.3s5.4-3.2 11.8-9c7.3-6.6 15.8-16.5 19.3-28.8l6.6 17.8z"/><linearGradient id="AY" gradientUnits="userSpaceOnUse" x1="1017.508" y1="292.024" x2="970.508" y2="386.024"><stop offset="0" stop-color="#83b4e1"/><stop offset=".301" stop-color="#6081b9"/><stop offset=".989" stop-color="#232642"/></linearGradient><path fill="url(#AY)" d="M1036.6 319.5c4.1-7.4 5.2-13 5.2-13-10.2-16.2-30.5-29.4-47.7-33.1 20.6 9.1 33.4 26.5 42.5 46.1z"/><linearGradient id="AZ" gradientUnits="userSpaceOnUse" x1="996.593" y1="280.906" x2="938.293" y2="389.179"><stop offset="0" stop-color="#6081b9"/><stop offset=".989" stop-color="#232642"/></linearGradient><path fill="url(#AZ)" d="M994 273.4l-4-.7c-20 2-45.8 11-54.8 16.9-16.3 18.4-34 46.1-17.5 75.4 31.1-6.5 78.2-18.9 92.9-20.7 13.8-7.4 21.6-17.1 26-24.9-9.1-19.5-21.9-36.9-42.6-46z"/><linearGradient id="Aa" gradientUnits="userSpaceOnUse" x1="1082.608" y1="358.466" x2="997.274" y2="403.133"><stop offset="0" stop-color="#ffdfb4"/><stop offset=".184" stop-color="#fcd9af"/><stop offset=".391" stop-color="#f4caa2"/><stop offset=".609" stop-color="#ebb38f"/><stop offset=".833" stop-color="#de9678"/><stop offset="1" stop-color="#d37e65"/></linearGradient><path fill="url(#Aa)" d="M1023.2 390.5l-18.7 42.6-16.3 5.5-9.9 3.4-10.8-17.2-22.4-22.9-2.1-2.1 16.6-9.2 48.7-26.9.4-.2 3.3-1.8 1.9 5z"/><linearGradient id="Ab" gradientUnits="userSpaceOnUse" x1="955.816" y1="449.322" x2="993.816" y2="388.655"><stop offset="0" stop-color="#ffdfb4"/><stop offset=".184" stop-color="#fcd9af"/><stop offset=".391" stop-color="#f4caa2"/><stop offset=".609" stop-color="#ebb38f"/><stop offset=".833" stop-color="#de9678"/><stop offset="1" stop-color="#d37e65"/></linearGradient><path fill="url(#Ab)" d="M1023.2 390.5l-18.7 42.6-16.3 5.5-5.1-9.6h-6.7v-2.3l11.4-5.5 2.6-10.5-3-2.4-7.7 5.5-6.9 1.5-1.1-5.8-9.2 2.1-5.6-1.8-2.1-18.2-.1-2.2 53.5-25.7.4-.2 3.3-1.8 1.9 5 9.4 23.8z"/><linearGradient id="Ac" gradientUnits="userSpaceOnUse" x1="1055.238" y1="325.003" x2="1013.905" y2="385.003"><stop offset="0" stop-color="#6081b9"/><stop offset=".989" stop-color="#232642"/></linearGradient><path fill="url(#Ac)" d="M1029.5 376.7l-6.3 13.8-9.3-23.8c1.9-1.1 3.6-2.8 3-5 2.3-1.5 4.4-3.1 6.3-4.7l6.3 19.7z"/><linearGradient id="Ad" gradientUnits="userSpaceOnUse" x1="1069.454" y1="276.197" x2="1026.788" y2="369.531"><stop offset="0" stop-color="#6081b9"/><stop offset=".989" stop-color="#232642"/></linearGradient><path fill="url(#Ad)" d="M1046.1 347c-3.3 10.3-16.6 29.7-16.6 29.7l-6.3-19.7c14.3-11.4 20.9-22.7 23.6-28.6.8 4 1.6 11.6-.7 18.6z"/><linearGradient id="Ae" gradientUnits="userSpaceOnUse" x1="1122.762" y1="326.588" x2="1059.762" y2="435.588"><stop offset="0" stop-color="#6081b9"/><stop offset=".989" stop-color="#232642"/></linearGradient><path fill="url(#Ae)" d="M1135 379.1l-34.4 12.9-49.9 18.7 26-78h16.8l39.5 37.6z"/><linearGradient id="Af" gradientUnits="userSpaceOnUse" x1="773.96" y1="554.19" x2="844.46" y2="554.19"><stop offset="0" stop-color="#6081b9"/><stop offset=".989" stop-color="#232642"/></linearGradient><path fill="url(#Af)" d="M836 580l-39.4 11-22.6-28 8.5-28 36.8-17.6 11.3 14.6 13.9 18-19 22c.6-.1 9-1.6 10.5 8z"/><linearGradient id="Ag" gradientUnits="userSpaceOnUse" x1="862.604" y1="570.262" x2="826.253" y2="551.088"><stop offset="0" stop-color="#6081b9"/><stop offset=".989" stop-color="#232642"/></linearGradient><path fill="url(#Ag)" d="M844.5 550l-19 22-9-14.8s2.5-10.1 14.1-25.2l13.9 18z"/><linearGradient id="Ah" gradientUnits="userSpaceOnUse" x1="802.402" y1="543.939" x2="857.828" y2="543.939"><stop offset="0" stop-color="#6081b9"/><stop offset=".989" stop-color="#232642"/></linearGradient><path fill="url(#Ah)" d="M792 541.5l9 3.5-4.5 9.2-13 8.8v7.5l21-4.5 33.4-24.5-18.7-24.1-36.7 17.6z"/><linearGradient id="Ai" gradientUnits="userSpaceOnUse" x1="1223.42" y1="627.52" x2="1310.96" y2="627.52"><stop offset="0" stop-color="#6081b9"/><stop offset=".989" stop-color="#232642"/></linearGradient><path fill="url(#Ai)" d="M1311 631.5l-7 20.1-10.5 18.4h-7.5l2-11.5-20.8 8.3-10.2-1.3-14 4.5c-1.5.5-2.5-4.5-2.5-4.5s-12-3-12.5-4.5-4.5-22.6-4.5-22.6l28.8-40 25.3-13.5c7 2.5 13.6 7.9 19.5 18.5l13.9 28.1z"/><linearGradient id="Aj" gradientUnits="userSpaceOnUse" x1="973.46" y1="673.887" x2="1004.438" y2="673.887"><stop offset="0" stop-color="#6081b9"/><stop offset=".989" stop-color="#232642"/></linearGradient><path fill="url(#Aj)" d="M973.5 670l29.5-9.5c3.5 12.5.5 22.3-6 25.6s-19.2-.4-23.5-16.1z"/><linearGradient id="Ak" gradientUnits="userSpaceOnUse" x1="1715.748" y1="606.756" x2="1728.96" y2="606.756"><stop offset="0" stop-color="#6081b9"/><stop offset=".989" stop-color="#232642"/></linearGradient><path fill="url(#Ak)" d="M1721 621.5c-5.5-5.5-11-26 8-29.5-5.5 22.5-8 29.5-8 29.5z"/><linearGradient id="Al" gradientUnits="userSpaceOnUse" x1="870.068" y1="408.504" x2="1009.401" y2="363.837"><stop offset="0" stop-color="#6081b9"/><stop offset=".989" stop-color="#232642"/></linearGradient><path fill="url(#Al)" d="M917.7 372.1a2.16 2.16 0 0 1 1.8-2.5c4.5-.5 15.3-2.2 29.8-6.6l53.3-16 7.4 20.4c.9 2.5.6 5.4-.8 7.7-3.4 5.3-10.8 14.6-22.6 19.1-17 6.5-23.5-3.2-29.7-1.2s-1.3 7.7-10.8 8.8c-9.1 1.1-19.8-7.6-23.3-23-.2-1-1.2-1.6-2.2-1.5h0c-1 .1-2-.5-2.2-1.6l-.7-3.6z"/><linearGradient id="Am" gradientUnits="userSpaceOnUse" x1="908.874" y1="380.817" x2="982.795" y2="380.817"><stop offset="0" stop-color="#fecb80"/><stop offset=".995" stop-color="#f37021"/></linearGradient><path fill="url(#Am)" d="M997.8 370.2c-2.8-8-11-10.3-24.8-7.3-9.5 2.1-26 8-37.3 11.3-5.1 1.5-9.2 2.4-11.2 2.2.2.5.3 1.1.5 1.6 4.1 13.1 10.6 20.9 21 21.8.5 0 1 .1 1.5.1 1.7 0 1.8-3.7 2.3-7.6.5-4.3 1.5-8.7 5.4-8.7 7.5 0 13 13.1 26.3 7.6s19.1-13 16.3-21z"/><linearGradient id="An" gradientUnits="userSpaceOnUse" x1="925.07" y1="388.956" x2="946.112" y2="388.956"><stop offset="0" stop-color="#fecb80"/><stop offset=".995" stop-color="#f37021"/></linearGradient><path fill="url(#An)" d="M946.1 399.9c-8.2-5.7-15.1-13.4-21-21.8 4.1 13.1 10.5 20.9 21 21.8z"/><linearGradient id="Ao" gradientUnits="userSpaceOnUse" x1="945.911" y1="387.08" x2="971.198" y2="387.08"><stop offset="0" stop-color="#fecb80"/><stop offset=".995" stop-color="#f37021"/></linearGradient><path fill="url(#Ao)" d="M946.1 399.9c.5 0 1 .1 1.5.1 1.7 0 1.8-3.7 2.3-7.6-4.9-5.8-9.6-11.9-14.1-18.1-5.1 1.5-9.2 2.4-11.2 2.2.2.5.3 1.1.5 1.6 5.9 8.4 12.8 16.1 21 21.8z"/><linearGradient id="Ap" gradientUnits="userSpaceOnUse" x1="927.007" y1="380.255" x2="968.104" y2="380.255"><stop offset="0" stop-color="#fecb80"/><stop offset=".995" stop-color="#f37021"/></linearGradient><path fill="url(#Ap)" d="M955.6 368l-19.9 6.2c4.5 6.2 9.2 12.3 14.1 18.1.5-4.3 1.5-8.7 5.4-8.7 6.5 0 11.6 10 21.6 8.9-7.8-7.4-14.5-16.1-21.2-24.5z"/><linearGradient id="Aq" gradientUnits="userSpaceOnUse" x1="946.531" y1="377.073" x2="989.393" y2="377.073"><stop offset="0" stop-color="#fecb80"/><stop offset=".995" stop-color="#f37021"/></linearGradient><path fill="url(#Aq)" d="M997.8 370.2c-2.8-8-11-10.3-24.8-7.3-4.6 1-10.9 2.9-17.4 5 6.7 8.5 13.4 17.2 21.2 24.5 1.5-.2 3-.6 4.7-1.3 13.3-5.4 19.1-12.9 16.3-20.9z"/><linearGradient id="Ar" gradientUnits="userSpaceOnUse" x1="1246.372" y1="424.978" x2="1181.876" y2="597.47"><stop offset="0" stop-color="#fff"/><stop offset=".146" stop-color="#f5f7fc"/><stop offset=".358" stop-color="#e0e7f5"/><stop offset=".611" stop-color="#c0d1ec"/><stop offset=".892" stop-color="#96b5df"/><stop offset="1" stop-color="#84aada"/></linearGradient><path fill="url(#Ar)" d="M1330 494l-22 83-4.5 5-2 18-4.5 3.5s-6.5-8.5-11.5-10-13.5-2.5-13.5-2.5l-26.5 10-3-1.5 4.5-24.5-3-2.5 2.5-15-4-46-3.2-.2-57.8-3.2-55.5-52.4 8.4-53.8s39.6-4.8 47.1-1.8c.2.1.6.2 1.2.3l120.7 53.6 9.8 15.6 11.2 7.4 5.6 17z"/><linearGradient id="As" gradientUnits="userSpaceOnUse" x1="1193.024" y1="264.76" x2="1181.024" y2="521.247"><stop offset="0" stop-color="#fff"/><stop offset=".146" stop-color="#f5f7fc"/><stop offset=".358" stop-color="#e0e7f5"/><stop offset=".611" stop-color="#c0d1ec"/><stop offset=".892" stop-color="#96b5df"/><stop offset="1" stop-color="#84aada"/></linearGradient><path fill="url(#As)" d="M1239 472l2 39.5-60.9-3.4-55.5-52.4h50.4s9 19.8 10.5 26.3 16.5-10 16.5-10h37z"/><linearGradient id="At" gradientUnits="userSpaceOnUse" x1="1320.411" y1="455.348" x2="1294.411" y2="589.348"><stop offset="0" stop-color="#fff"/><stop offset=".146" stop-color="#f5f7fc"/><stop offset=".358" stop-color="#e0e7f5"/><stop offset=".611" stop-color="#c0d1ec"/><stop offset=".892" stop-color="#96b5df"/><stop offset="1" stop-color="#84aada"/></linearGradient><path fill="url(#At)" d="M1311.8 469.6c2.1 1.4-14.3 63.4-12.8 62.4s24-55 24-55l-11.2-7.4z"/><linearGradient id="Au" gradientUnits="userSpaceOnUse" x1="1208.526" y1="772.176" x2="1270.023" y2="434.693"><stop offset="0" stop-color="#fff"/><stop offset=".146" stop-color="#f5f7fc"/><stop offset=".358" stop-color="#e0e7f5"/><stop offset=".611" stop-color="#c0d1ec"/><stop offset=".892" stop-color="#96b5df"/><stop offset="1" stop-color="#84aada"/></linearGradient><path fill="url(#Au)" d="M1274.3 544l-6.8 26.5-22 4.5-3-2.5 2.5-15-4-46-2-39.5 31.5-16.3z"/><linearGradient id="Av" gradientUnits="userSpaceOnUse" x1="1266.616" y1="620.742" x2="1279.283" y2="552.075"><stop offset="0" stop-color="#6081b9"/><stop offset=".989" stop-color="#232642"/></linearGradient><path fill="url(#Av)" d="M1302 582l-2 18-4.5 3.5s-6.5-8.5-11.5-10-13.5-2.5-13.5-2.5l-19.8 7-3.6 5.5-4.1-6.5 2.5-22 22-4.5h13.5l21 11.5z"/><linearGradient id="Aw" gradientUnits="userSpaceOnUse" x1="815" y1="523.25" x2="872.5" y2="523.25"><stop offset="0" stop-color="#6081b9"/><stop offset=".989" stop-color="#232642"/></linearGradient><path fill="url(#Aw)" d="M872.5 536L843 550c-12.8-11.3-23-24.1-28-40l25.5-13.5 32 39.5z"/><linearGradient id="Ax" gradientUnits="userSpaceOnUse" x1="1078.83" y1="305.626" x2="1074.83" y2="388.293"><stop offset="0" stop-color="#6081b9"/><stop offset=".989" stop-color="#232642"/></linearGradient><path fill="url(#Ax)" d="M1099.2 392l-50 18.7 26-78h16.8l-17.5 41 23-1.2z"/><linearGradient id="Ay" gradientUnits="userSpaceOnUse" x1="1038.016" y1="226.107" x2="940.303" y2="358.719"><stop offset="0" stop-color="#6081b9"/><stop offset=".989" stop-color="#232642"/></linearGradient><path fill="url(#Ay)" d="M1009.1 344.3c-14.7 1.8-61.8 14.1-92.9 20.7-16.5-29.3 1.3-57 17.5-75.4 17.8-3 34.9-5.3 43.9 0l-6.3 29.3c-1.3 6.6 18.5 18.6 37.8 25.4z"/><linearGradient id="Az" gradientUnits="userSpaceOnUse" x1="1276.009" y1="726.572" x2="1264.509" y2="624.072"><stop offset="0" stop-color="#6081b9"/><stop offset=".989" stop-color="#232642"/></linearGradient><path fill="url(#Az)" d="M1309.5 631.5l-7 20.1L1292 670h-7.5l2-11.5-20.8 8.3-10.2-1.3-14 4.5c-1.5.5-2.5-4.5-2.5-4.5s-12-3-12.5-4.5-4.5-22.6-4.5-22.6l19-1.4 12.5-2.5 12.2 2.5 15.3-5.5h28.5z"/><linearGradient id="BA" gradientUnits="userSpaceOnUse" x1="1005.7" y1="885.914" x2="1106.195" y2="929.412"><stop offset="0" stop-color="#fff"/><stop offset="1" stop-color="#84aada"/></linearGradient><path fill="url(#BA)" d="M1112.3 915.7l-51.5-17.9-16.2 17.5-1.5 3.2 6.5-2.5 38.3 18 1.4 1.4c8.1-6 16.1-12.2 23.8-18.9l-.8-.8z"/><linearGradient id="BB" gradientUnits="userSpaceOnUse" x1="1098.141" y1="907.312" x2="1139.475" y2="992.645"><stop offset="0" stop-color="#6081b9"/><stop offset=".989" stop-color="#232642"/></linearGradient><path fill="url(#BB)" d="M1135 937.4l-21.8-20.8c-7.8 6.6-15.7 12.9-23.8 18.9l18.1 17.9 27.5-16z"/><linearGradient id="BC" gradientUnits="userSpaceOnUse" x1="850.102" y1="909.092" x2="1447.053" y2="909.092"><stop offset="0" stop-color="#fff"/><stop offset=".146" stop-color="#f5f7fc"/><stop offset=".358" stop-color="#e0e7f5"/><stop offset=".611" stop-color="#c0d1ec"/><stop offset=".892" stop-color="#96b5df"/><stop offset="1" stop-color="#84aada"/></linearGradient><path fill="url(#BC)" d="M850.1 1102.5c10.9-2.7 212.2-160 212.2-160l2 25 107.7-91.8s-17.3 36-12.9 29.9c4.4-6 133.3-99 133.3-99l-9.1 28.7L1447 715.6l-46.5 72.9-550.4 314z"/><linearGradient id="BD" gradientUnits="userSpaceOnUse" x1="1109.963" y1="737.69" x2="1099.387" y2="1254.168"><stop offset="0" stop-color="#fff"/><stop offset=".498" stop-color="#84aada"/><stop offset=".596" stop-color="#7ea5d7"/><stop offset=".74" stop-color="#6e97cf"/><stop offset=".911" stop-color="#5382c2"/><stop offset="1" stop-color="#4076bb"/></linearGradient><path fill="url(#BD)" d="M1043.2 884.8l34.8-75.4v20.3l56.5-83.2-18.2 44.9 65.2-88.7-65.2 127-4.1-12.9-76.8 101.7z"/><linearGradient id="BE" gradientUnits="userSpaceOnUse" x1="1116.667" y1="847.744" x2="1112.522" y2="1050.171"><stop offset="0" stop-color="#fff"/><stop offset=".498" stop-color="#84aada"/><stop offset=".596" stop-color="#7ea5d7"/><stop offset=".74" stop-color="#6e97cf"/><stop offset=".911" stop-color="#5382c2"/><stop offset="1" stop-color="#4076bb"/></linearGradient><path fill="url(#BE)" d="M1103.3 879l27.9-45.2s-21.7 51.2-9 38.7l26.6-25.5-66 71.5 20.5-39.5z"/><linearGradient id="BF" gradientUnits="userSpaceOnUse" x1="1147.626" y1="675.862" x2="1144.731" y2="817.246"><stop offset="0" stop-color="#fff"/><stop offset=".498" stop-color="#84aada"/><stop offset=".596" stop-color="#7ea5d7"/><stop offset=".74" stop-color="#6e97cf"/><stop offset=".911" stop-color="#5382c2"/><stop offset="1" stop-color="#4076bb"/></linearGradient><path fill="url(#BF)" d="M1133.2 702.7l30.4-36.5-12.4 28.9 17.6-10.6-43.6 40.8z"/><linearGradient id="BG" gradientUnits="userSpaceOnUse" x1="1400.8" y1="431.98" x2="1207.31" y2="683.597"><stop offset="0" stop-color="#fff"/><stop offset="1" stop-color="#fff" stop-opacity="0"/></linearGradient><path fill="url(#BG)" d="M1210.6 669.2c-.7-5.1 192-257.6 185.3-252.2S1291 577.2 1291 577.2l41.8-35.1-152.3 182.1 30.1-55z"/></g><g fill="#fff"><path d="M631.9 531.6c-.1 0-.3 0-.5.1a8.3 8.3 0 0 0-2.1.6c-.2.1-.3.1-.5.2l-.6.3c-.2.1-.4.2-.6.4 0 .6.1 1.2.1 1.8v1.3l.6-.3.6-.3c.2-.1.3-.1.5-.2.8-.3 1.5-.4 2.2-.5h.5c3.3.1 5.8 3.1 6.5 8.1.7 0 1.5-.1 2.2-.4-.7-7.3-4.2-11.5-8.9-11.1z"/><path d="M642.4 543.7v-1.3l-.6.3-.6.3c-.2.1-.3.1-.5.2-.8.3-1.5.4-2.2.5h-.5c-3.3-.1-5.8-3.1-6.5-8.1-.7 0-1.5.1-2.2.4.6 7.1 4.1 11.4 8.8 11 .1 0 .3 0 .5-.1a8.3 8.3 0 0 0 2.1-.6c.2-.1.3-.1.5-.2l.6-.3c.2-.1.4-.2.6-.4v-1.7zm-15.3-10.3c0-.2 0-.4-.1-.6-.8-8.6-6.1-12.8-12.4-9.4-6.9 3.7-12.5 15-12.5 25.2s5.6 15.6 12.5 11.9c.2-.1.4-.2.6-.4 0-.6-.1-1.2-.1-1.8V557l-.6.3c-5.7 3.1-10.4-1.4-10.4-9.8 0-8.5 4.7-17.9 10.4-20.9 5.3-2.8 9.7.7 10.3 7.9v.7 1.2c0 .7 0 1.4-.1 2.1 0 .3-.1.5-.1.8-.7 5.6-3.2 11.3-6.5 14.9-.1.8-.1 1.6-.1 2.4v1.1c4.7-4.6 8.2-12.6 8.8-20.4v-.7-1.4c.4-.7.4-1.3.3-1.8z"/><use xlink:href="#C"/><use xlink:href="#C" x="27.2" y="-14.4"/><path d="M654.3 518.9c0-.2 0-.4-.1-.6-.8-8.6-6.1-12.8-12.4-9.4s-11.6 13.2-12.4 22.7a8.3 8.3 0 0 1 2.1-.6c.7-7.9 5-16.1 10.3-18.9s9.7.7 10.3 7.9v.7 1.2c0 .7 0 1.4-.1 2.1 0 .3-.1.5-.1.8-.7 5.6-3.2 11.3-6.5 14.9-.1.8-.1 1.6-.1 2.4v1.1c4.7-4.6 8.2-12.6 8.8-20.4v-.7-1.4c.3-.6.2-1.2.2-1.8zm4.8-1.8c-.1 0-.3 0-.5.1a8.3 8.3 0 0 0-2.1.6c-.2.1-.3.1-.5.2l-.6.3c-.2.1-.4.2-.6.4 0 .6.1 1.2.1 1.8v1.3l.6-.3.6-.3c.2-.1.3-.1.5-.2.8-.3 1.5-.4 2.2-.5h.5c3.3.1 5.8 3.1 6.5 8.1.7 0 1.5-.1 2.2-.4-.7-7.2-4.2-11.5-8.9-11.1z"/><path d="M669 494.3c-6.3 3.4-11.6 13.2-12.4 22.7a8.3 8.3 0 0 1 2.1-.6c.7-7.9 5-16.1 10.3-18.9 5.7-3.1 10.4 1.4 10.4 9.8s-4.7 17.9-10.4 20.9l-.6.3c-.2.1-.3.1-.5.2-.8.3-1.5.4-2.2.5h-.5c-3.3-.1-5.8-3.1-6.5-8.1-.7 0-1.5.1-2.2.4.6 7.1 4.1 11.4 8.8 11 .1 0 .3 0 .5-.1a8.3 8.3 0 0 0 2.1-.6c.2-.1.3-.1.5-.2l.6-.3c6.9-3.7 12.5-15 12.5-25.2s-5.6-15.4-12.5-11.8zM199.7 129c-.5-.2-1-.3-1.5-.4a40.48 40.48 0 0 0-7.1-1.2c-.5 0-1-.1-1.5-.1-.7 0-1.4-.1-2.1-.1l-2.1.1.2 4.2-.1 3c.7 0 1.3-.1 2-.1s1.3 0 2 .1c.5 0 1 .1 1.5.1 2.5.3 5 .8 7.3 1.6l1.6.6c11 4.3 19.3 14 21.5 25.9 2.4.9 4.9 1.4 7.5 1.7-1.7-16.8-13.5-30.6-29.2-35.4zm34.9 40l.1-3-2 .1c-.7 0-1.3 0-2-.1-.5 0-1-.1-1.5-.1-2.5-.3-5-.8-7.3-1.6l-1.6-.6c-11-4.3-19.3-14-21.5-25.9-2.4-.9-4.9-1.4-7.5-1.7 1.9 16.7 13.6 30.5 29.3 35.3.5.2 1 .3 1.5.4a40.48 40.48 0 0 0 7.1 1.2c.5 0 1 .1 1.5.1.7 0 1.4.1 2.1.1s1.4 0 2.1-.1c-.2-1.3-.3-2.7-.3-4.1zm-50.7-41.6c0-.5-.1-1-.2-1.5-2.7-20.4-20.2-36.2-41.4-36.2-23 0-41.7 18.7-41.7 41.7s18.7 41.7 41.7 41.7c.7 0 1.4 0 2.1-.1-.1-1.4-.2-2.8-.2-4.2 0-1 0-2 .1-3-.7 0-1.3.1-2 .1-19.1 0-34.6-15.5-34.6-34.6s15.5-34.6 34.6-34.6c17.6 0 32.1 13.2 34.3 30.2.1.5.1 1 .2 1.5.1.9.1 1.9.1 2.8a37.08 37.08 0 0 1-.3 4.7l-.3 1.7c-2.2 11.9-10.5 21.6-21.5 25.9-.3 1.7-.4 3.5-.4 5.3 0 .8 0 1.6.1 2.4 15.7-4.8 27.4-18.6 29.3-35.3.1-.5.1-1 .1-1.6.1-1 .1-2 .1-3.1.1-1.1 0-2.5-.1-3.8zm37.9 46c-2.2 17-16.7 30.2-34.3 30.2s-32.1-13.2-34.3-30.2c-.1-.5-.1-1-.2-1.5-.1-.9-.1-1.9-.1-2.8a37.08 37.08 0 0 1 .3-4.7l.3-1.7c2.2-11.9 10.5-21.6 21.5-25.9.3-1.7.4-3.5.4-5.3 0-.8 0-1.6-.1-2.4-15.7 4.8-27.4 18.6-29.3 35.3-.1.5-.1 1-.1 1.6-.1 1-.1 2-.1 3.1 0 1.4.1 2.7.2 4.1 0 .5.1 1 .2 1.5 2.7 20.4 20.2 36.2 41.4 36.2 21.1 0 38.6-15.8 41.4-36.2-2.5-.4-4.9-.8-7.2-1.3zm90.4 0c-2.2 17-16.7 30.2-34.3 30.2s-32.1-13.2-34.3-30.2c-.1-.5-.1-1-.2-1.5-.1-.9-.1-1.9-.1-2.8a37.08 37.08 0 0 1 .3-4.7l.3-1.7c2.2-11.9 10.5-21.6 21.5-25.9.3-1.7.4-3.5.4-5.3 0-.8 0-1.6-.1-2.4-15.7 4.8-27.4 18.6-29.3 35.3-.1.5-.1 1-.1 1.6-.1 1-.1 2-.1 3.1 0 1.4.1 2.7.2 4.1 0 .5.1 1 .2 1.5 2.7 20.4 20.2 36.2 41.4 36.2 21.1 0 38.6-15.8 41.4-36.2-2.6-.4-4.9-.8-7.2-1.3zm-38-46c0-.5-.1-1-.2-1.5-2.7-20.4-20.2-36.2-41.4-36.2-21.1 0-38.6 15.8-41.4 36.2 2.4.2 4.8.6 7 1.2 2.2-17 16.7-30.2 34.3-30.2s32.1 13.2 34.3 30.2c.1.5.1 1 .2 1.5.1.9.1 1.9.1 2.8a37.08 37.08 0 0 1-.3 4.7l-.3 1.7c-2.2 11.9-10.5 21.6-21.5 25.9-.3 1.7-.4 3.5-.4 5.3 0 .8 0 1.6.1 2.4 15.7-4.8 27.4-18.6 29.3-35.3.1-.5.1-1 .1-1.6.1-1 .1-2 .1-3.1a13.41 13.41 0 0 0 0-4zm15.9 1.6c-.5-.2-1-.3-1.5-.4a40.48 40.48 0 0 0-7.1-1.2c-.5 0-1-.1-1.5-.1-.7 0-1.4-.1-2.1-.1l-2.1.1.2 4.2-.1 3c.7 0 1.3-.1 2-.1s1.3 0 2 .1c.5 0 1 .1 1.5.1 2.5.3 5 .8 7.3 1.6l1.6.6c11 4.3 19.3 14 21.5 25.9 2.4.9 4.9 1.4 7.5 1.7-1.8-16.8-13.6-30.6-29.2-35.4zM323 89.7c-21.1 0-38.6 15.8-41.4 36.2 2.4.2 4.8.6 7 1.2 2.2-17 16.7-30.2 34.3-30.2 19.1 0 34.6 15.5 34.6 34.6s-15.5 34.6-34.6 34.6c-.7 0-1.3 0-2-.1-.5 0-1-.1-1.5-.1-2.5-.3-5-.8-7.3-1.6-.5-.2-1.1-.4-1.6-.6-11-4.3-19.3-14-21.5-25.9-2.4-.9-4.9-1.4-7.5-1.7 1.9 16.7 13.6 30.5 29.3 35.3.5.2 1 .3 1.5.4a40.48 40.48 0 0 0 7.1 1.2c.5 0 1 .1 1.5.1.7 0 1.4.1 2.1.1 23 0 41.7-18.7 41.7-41.7S346.1 89.7 323 89.7z"/></g></svg>