<svg xmlns="http://www.w3.org/2000/svg" xmlns:xlink="http://www.w3.org/1999/xlink" width="100" height="100" viewBox="0 0 1400 1400" xmlns:v="https://vecta.io/nano"><style><![CDATA[.B{fill-rule:evenodd}]]></style><defs><path id="A" d="M0 0h1400v1400H0z"/></defs><clipPath id="B"><use xlink:href="#A"/></clipPath><g clip-path="url(#B)"><linearGradient id="C" gradientUnits="userSpaceOnUse" x1="700" y1="767" x2="700" y2="1397.507"><stop offset=".005" stop-color="#5531a4"/><stop offset=".989" stop-color="#00c7ff"/></linearGradient><path fill="url(#C)" d="M0 767h1400v633H0z"/><linearGradient id="D" gradientUnits="userSpaceOnUse" x1="700" y1="776.279" x2="700" y2="9.279"><stop offset="0" stop-color="#db4fff"/><stop offset=".955" stop-color="#2d278c"/><stop offset="1" stop-color="#252586"/></linearGradient><path fill="url(#D)" d="M0 0h1400v767H0z"/><linearGradient id="E" gradientUnits="userSpaceOnUse" x1="370.945" y1="547" x2="370.945" y2="923.563"><stop offset="0" stop-color="#6e36b7"/><stop offset="1" stop-color="#0f0f5f"/></linearGradient><path fill="url(#E)" d="M81 767.3h579.9c-35.6-57.1-119.6-97.2-218.2-97.4-47.4-.1-91.5 9.1-128.6 25-29.4 12.6-63.8 19.4-98.7 18.3-1.7-.1-3.5-.1-5.2-.1-48.3.2-95.7 22.9-129.2 54.2z"/><linearGradient id="F" gradientUnits="userSpaceOnUse" x1="370.945" y1="1068" x2="370.945" y2="739.743"><stop offset="0" stop-color="#250061"/><stop offset="1" stop-color="#250061" stop-opacity="0"/></linearGradient><path fill="url(#F)" d="M81 767h579.9c-35.6 57.1-119.6 97.2-218.2 97.4-47.4.1-91.5-9.1-128.6-25-29.4-12.6-63.8-19.4-98.7-18.3-1.7.1-3.5.1-5.2.1-48.3-.2-95.7-22.9-129.2-54.2z"/><linearGradient id="G" gradientUnits="userSpaceOnUse" x1="1232.153" y1="1005.659" x2="1232.153" y2="493.959"><stop offset="0" stop-color="#6e36b7"/><stop offset="1" stop-color="#0f0f5f"/></linearGradient><path fill="url(#G)" d="M1197.4 325.5L677.3 845.6 1787 905.5z"/><linearGradient id="H" gradientUnits="userSpaceOnUse" x1="1034.12" y1="1005.659" x2="1034.12" y2="493.959"><stop offset="0" stop-color="#6e36b7"/><stop offset="1" stop-color="#0f0f5f"/></linearGradient><path fill="url(#H)" d="M1034.1 368.3L1008.2 544h25.9 25.9z" class="B"/><linearGradient id="I" gradientUnits="userSpaceOnUse" x1="1328.105" y1="428.604" x2="1328.105" y2="869.209"><stop offset="0" stop-color="#6e36b7"/><stop offset="1" stop-color="#0f0f5f"/></linearGradient><path fill="url(#I)" d="M1328.1 469.7l-25.9 175.6h25.9l25.9.1z" class="B"/><linearGradient id="J" gradientUnits="userSpaceOnUse" x1="1258.071" y1="428.604" x2="1258.071" y2="869.209"><stop offset="0" stop-color="#6e36b7"/><stop offset="1" stop-color="#0f0f5f"/></linearGradient><path fill="url(#J)" d="M1258.1 542.9l-25.9 175.6h25.9l25.9.1z" class="B"/><linearGradient id="K" gradientUnits="userSpaceOnUse" x1="1226.773" y1="428.604" x2="1226.773" y2="869.209"><stop offset="0" stop-color="#6e36b7"/><stop offset="1" stop-color="#0f0f5f"/></linearGradient><path fill="url(#K)" d="M1226.8 596.9l-25.9 175.7h25.9 25.9z" class="B"/><linearGradient id="L" gradientUnits="userSpaceOnUse" x1="1000.437" y1="1005.659" x2="1000.437" y2="493.959"><stop offset="0" stop-color="#6e36b7"/><stop offset="1" stop-color="#0f0f5f"/></linearGradient><path fill="url(#L)" d="M1000.4 435.6l-25.9 175.7h25.9 26z" class="B"/><linearGradient id="M" gradientUnits="userSpaceOnUse" x1="840.826" y1="1005.659" x2="840.826" y2="493.959"><stop offset="0" stop-color="#6e36b7"/><stop offset="1" stop-color="#0f0f5f"/></linearGradient><path fill="url(#M)" d="M840.8 489.4l-38.9 263.5h38.9 38.9z" class="B"/><linearGradient id="N" gradientUnits="userSpaceOnUse" x1="1405.364" y1="428.604" x2="1405.364" y2="869.209"><stop offset="0" stop-color="#6e36b7"/><stop offset="1" stop-color="#0f0f5f"/></linearGradient><path fill="url(#N)" d="M1459.1 468.7l-366.9 366.8 626.3 90.7-172.5-390z" class="B"/><linearGradient id="O" gradientUnits="userSpaceOnUse" x1="1068.339" y1="518.543" x2="1068.339" y2="903.139"><stop offset="0" stop-color="#6e36b7"/><stop offset="1" stop-color="#0f0f5f"/></linearGradient><path fill="url(#O)" d="M1092.2 568v264c-68.4 0-58.6-171.9 0-264z"/><linearGradient id="P" gradientUnits="userSpaceOnUse" x1="1116.039" y1="401.301" x2="1116.039" y2="790.769"><stop offset="0" stop-color="#6e36b7"/><stop offset="1" stop-color="#0f0f5f"/></linearGradient><path fill="url(#P)" d="M1092.2 568v264c68.4 0 58.6-171.9 0-264z"/><linearGradient id="Q" gradientUnits="userSpaceOnUse" x1="974.52" y1="468.174" x2="974.52" y2="953.291"><stop offset="0" stop-color="#db4fff"/><stop offset=".955" stop-color="#2d278c"/><stop offset="1" stop-color="#252586"/></linearGradient><path fill="url(#Q)" d="M1876.8 969.8H72.2c12-7.1 24.7-14 38.1-20.5 3-1.5 6-2.9 9-4.3C310.6 855.9 639.4 823.1 965 823.1c326.4 0 668.8 30.4 864.7 121.9 13 6.1 25.4 12.5 37.1 19.1 3.5 1.9 6.8 3.8 10 5.7z"/><linearGradient id="R" gradientUnits="userSpaceOnUse" x1="634.816" y1="634.738" x2="634.816" y2="949.776"><stop offset="0" stop-color="#db4fff"/><stop offset=".955" stop-color="#2d278c"/><stop offset="1" stop-color="#252586"/></linearGradient><path fill="url(#R)" d="M797.9 630.7H607.1L471.7 872h190.9z" class="B"/><linearGradient id="S" gradientUnits="userSpaceOnUse" x1="797.912" y1="476.854" x2="797.912" y2="828.532"><stop offset="0" stop-color="#db4fff"/><stop offset=".955" stop-color="#2d278c"/><stop offset="1" stop-color="#252586"/></linearGradient><path fill="url(#S)" d="M797.9 630.7L933.2 872H662.6z" class="B"/><linearGradient id="T" gradientUnits="userSpaceOnUse" x1="799.53" y1="1109.509" x2="799.53" y2="930.964"><stop offset="0" stop-color="#6e36b7"/><stop offset="1" stop-color="#0f0f5f"/></linearGradient><g class="B"><path fill="url(#T)" d="M797.3 673.4L761.7 872h75.7z"/><g fill="#fff"><path d="M797.3 673.4L837.4 872l25.2-15.4c-25.2-54.5-49.7-118.6-65.3-183.2M435 847.7h5v23.5h-5z"/><path d="M440 871.2l170.5-240.5h-3.4L440 866.4zm187.4 0l170.5-240.5h-3.5l-167 235.7z"/><path d="M965 871.2L794.4 630.7h3.5L965 866.4zm-342.6-23.5h5v23.5h-5z"/></g></g><circle fill="#fff" cx="246.5" cy="242.7" r="73.5"/><linearGradient id="U" gradientUnits="userSpaceOnUse" x1="929.301" y1="880.582" x2="929.301" y2="711.581"><stop offset="0" stop-color="#6e36b7"/><stop offset="1" stop-color="#0f0f5f"/></linearGradient><path fill="url(#U)" d="M935.6 682.1l-15.9 14v172.1h6.5V696.1l12.7-11.5z" class="B"/><linearGradient id="V" gradientUnits="userSpaceOnUse" x1="1105.289" y1="880.582" x2="1105.289" y2="711.581"><stop offset="0" stop-color="#6e36b7"/><stop offset="1" stop-color="#0f0f5f"/></linearGradient><path fill="url(#V)" d="M1099 682.1l-3.3 2.5 12.7 11.5v172.1h6.5V696.1z" class="B"/><linearGradient id="W" gradientUnits="userSpaceOnUse" x1="1016.946" y1="880.582" x2="1016.946" y2="711.581"><stop offset="0" stop-color="#6e36b7"/><stop offset="1" stop-color="#0f0f5f"/></linearGradient><path fill="url(#W)" d="M904.8 684.7c37 4.3 74 7.1 111.1 7.1 37.7 0 75.4-2.7 113.2-7.1 1.4 0 2.5 1.1 2.5 2.5v.7c0 1.4-1.3 2.3-2.7 2.5-74.8 10.6-149.5 8.4-224.3 0-1.4 0-2.3-1.1-2.3-2.5v-.7c0-1.4 1.1-2.7 2.5-2.5" class="B"/><linearGradient id="X" gradientUnits="userSpaceOnUse" x1="1017.418" y1="832.582" x2="1017.418" y2="759.082"><stop offset="0" stop-color="#6e36b7"/><stop offset="1" stop-color="#0f0f5f"/></linearGradient><path fill="url(#X)" d="M977.3 757.3h80.2v24.8c0 13.6-11.2 24.8-24.8 24.8h-30.6c-13.6 0-24.8-11.2-24.8-24.8v-24.8z" class="B"/><linearGradient id="Y" gradientUnits="userSpaceOnUse" x1="973.482" y1="755.091" x2="1061.354" y2="755.091"><stop offset="0" stop-color="#6e36b7"/><stop offset="1" stop-color="#0f0f5f"/></linearGradient><path fill="url(#Y)" d="M973.5 752.9h87.9v4.4h-87.9z" class="B"/><linearGradient id="Z" gradientUnits="userSpaceOnUse" x1="1014.283" y1="691.082" x2="1014.283" y2="751.807"><stop offset="0" stop-color="#6e36b7"/><stop offset="1" stop-color="#0f0f5f"/></linearGradient><path fill="url(#Z)" d="M1000.4 757.3h2v-52.7c0-8.2 6.7-14.8 14.8-14.8 2.7 0 5.3.7 7.5 2h3.4c-2.9-2.5-6.7-4-10.9-4h0c-9.3 0-16.8 7.6-16.8 16.8v52.7z" class="B"/><linearGradient id="a" gradientUnits="userSpaceOnUse" x1="1032.2" y1="697.412" x2="1032.2" y2="757.292"><stop offset="0" stop-color="#6e36b7"/><stop offset="1" stop-color="#0f0f5f"/></linearGradient><path fill="url(#a)" d="M1034.1 704.6v52.7h-2v-52.7c0-2.6-.7-5-1.8-7.1h2.2c.4.9 1.6 4 1.6 7.1z" class="B"/><linearGradient id="b" gradientUnits="userSpaceOnUse" x1="1116.798" y1="880.582" x2="1116.798" y2="711.581"><stop offset="0" stop-color="#6e36b7"/><stop offset="1" stop-color="#0f0f5f"/></linearGradient><path fill="url(#b)" d="M1125.2 680.4l-4.1-3.2-12.7 18.9 4.4 1.8 2.1-1.8z" class="B"/><linearGradient id="c" gradientUnits="userSpaceOnUse" x1="917.792" y1="880.582" x2="917.792" y2="711.581"><stop offset="0" stop-color="#6e36b7"/><stop offset="1" stop-color="#0f0f5f"/></linearGradient><path fill="url(#c)" d="M909.4 680.4l4.1-3.2 12.7 18.9-4.4 1.8-2.1-1.8z" class="B"/><linearGradient id="d" gradientUnits="userSpaceOnUse" x1="1017.418" y1="891.172" x2="1017.418" y2="763.185"><stop offset=".043" stop-color="#fff"/><stop offset="1" stop-color="#f0f" stop-opacity="0"/></linearGradient><g class="B"><path fill="url(#d)" d="M1048.7 824l-4.1 10.3s-1.1-9.9-9.8-27.9l-4.4 7.3-12.9-25.7-12.9 25.7-4.4-7.3c-8.4 16.8-9.8 27.9-9.8 27.9l-4.1-10.3c-4.7 16.1-10.7 44.1 31.3 44.1 41.8.1 35.9-27.9 31.1-44.1z"/><path fill="#fff" d="M1030.8 835l-5.1 6.8-8.3-18.7-8.3 18.7-5.1-6.8s-13 33.1 13.3 33.1c26.5.1 13.5-33.1 13.5-33.1z"/></g><linearGradient id="e" gradientUnits="userSpaceOnUse" x1="1115.396" y1="383.5" x2="562.011" y2="383.5"><stop offset="0" stop-color="#250061"/><stop offset="1" stop-color="#250061" stop-opacity="0"/></linearGradient><path fill="url(#e)" d="M973.5 430.8H701.2c3.9-13.8 16.6-23.8 31.6-23.8h0c2.8 0 5.5-1.3 7.2-3.6 6.8-9.1 17.6-15 29.8-15h.3c4.2 0 7.9-2.6 9.2-6.6 8.6-26.5 33.5-45.6 62.9-45.6 23.8 0 44.7 12.6 56.4 31.5 4.5 7.4 12.5 11.9 21.1 11.7h.8c28.8 0 52.2 22.9 53 51.4z"/><linearGradient id="f" gradientUnits="userSpaceOnUse" x1="882.934" y1="188.302" x2="236.922" y2="188.302"><stop offset="0" stop-color="#250061"/><stop offset="1" stop-color="#250061" stop-opacity="0"/></linearGradient><path fill="url(#f)" d="M798.7 261.8H376c6.1-21.4 25.8-37 49.1-37h.1c4.4 0 8.6-2 11.2-5.6 10.5-14.1 27.3-23.3 46.2-23.3h.5c6.5.1 12.2-4.1 14.3-10.3 13.4-41.1 52.1-70.8 97.7-70.8 37 0 69.4 19.6 87.5 48.9 7 11.4 19.3 18.4 32.7 18.2h1.2c44.6.1 80.9 35.6 82.2 79.9z"/><radialGradient id="g" cx="1017.418" cy="836.915" r="61.778" gradientUnits="userSpaceOnUse"><stop offset="0" stop-color="#f0f" stop-opacity="0"/><stop offset="1" stop-color="#ffbfff" stop-opacity=".715"/></radialGradient><circle opacity=".15" fill="url(#g)" cx="1017.4" cy="836.9" r="61.8"/><radialGradient id="h" cx="1017.418" cy="836.915" r="99.38" gradientUnits="userSpaceOnUse"><stop offset="0" stop-color="#f0f" stop-opacity="0"/><stop offset="1" stop-color="#ffbfff" stop-opacity=".715"/></radialGradient><circle opacity=".15" fill="url(#h)" cx="1017.4" cy="836.9" r="99.4"/><linearGradient id="i" gradientUnits="userSpaceOnUse" x1="426.199" y1="1187" x2="426.199" y2="537.767"><stop offset="0" stop-color="#6e36b7"/><stop offset="1" stop-color="#0f0f5f"/></linearGradient><path fill="url(#i)" d="M424.5 562.3l18.8-14.2-13.3 19.4 2.5 2.4 32.3-24.5-23 33.4 32.7 31.1 19.8-15-14.1 20.5 42.7 40.5c-6.8-49.3-27.5-93.8-62.9-127.4s-80.9-52.1-130.5-56.4"/><linearGradient id="j" gradientUnits="userSpaceOnUse" x1="462.461" y1="1187" x2="462.461" y2="537.767"><stop offset="0" stop-color="#6e36b7"/><stop offset="1" stop-color="#0f0f5f"/></linearGradient><path fill="url(#j)" d="M329.5 472l80.6 6.6 8.1-32.6 2.6 33.4 39.4 3.2 5.7-22.9 1.8 23.5 3.5.3 9.7-39.4 3.1 40.4 45 3.7 6-24.1 1.9 24.8 58.7 4.8c-36.3-34.2-80.3-55.7-129-59.7s-95.8 10.2-137.1 38z"/><linearGradient id="k" gradientUnits="userSpaceOnUse" x1="259.151" y1="1187" x2="259.151" y2="537.767"><stop offset="0" stop-color="#6e36b7"/><stop offset="1" stop-color="#0f0f5f"/></linearGradient><path fill="url(#k)" d="M260.4 562.3l-13.6-14.2 9.7 19.4-1.8 2.4-23.5-24.5 16.7 33.4-23.9 31.1-14.4-15 10.2 20.5-31 40.5c4.9-49.3 20-93.8 45.8-127.4s58.8-52.1 94.9-56.4"/><linearGradient id="l" gradientUnits="userSpaceOnUse" x1="232.778" y1="1187" x2="232.778" y2="537.767"><stop offset="0" stop-color="#6e36b7"/><stop offset="1" stop-color="#0f0f5f"/></linearGradient><path fill="url(#l)" d="M329.5 472l-58.6 6.6L265 446l-1.9 33.4-78.7 8.8-4.3-24.1-1.4 24.8-42.7 4.8c26.4-34.2 58.4-55.7 93.8-59.7s69.7 10.2 99.7 38z"/><linearGradient id="m" gradientUnits="userSpaceOnUse" x1="376.016" y1="1187" x2="376.016" y2="537.767"><stop offset="0" stop-color="#6e36b7"/><stop offset="1" stop-color="#0f0f5f"/></linearGradient><path fill="url(#m)" d="M329.5 472l69.8-93.7-10.1-10.4 12.8 6.7 20.5-27.5c-28.1 7.4-52.5 22.5-69.5 45.3-16.9 22.9-24.5 50.6-23.5 79.6z"/><linearGradient id="n" gradientUnits="userSpaceOnUse" x1="350.734" y1="1187" x2="350.734" y2="537.767"><stop offset="0" stop-color="#6e36b7"/><stop offset="1" stop-color="#0f0f5f"/></linearGradient><path fill="url(#n)" d="M329.5 472c-47.6 128.6-34.7 303.6 15.2 423.6h57c-63-112.3-85.9-254.4-72.2-423.6z"/><linearGradient id="o" gradientUnits="userSpaceOnUse" x1="377.257" y1="313" x2="377.257" y2="858.311"><stop offset="0" stop-color="#6e36b7"/><stop offset="1" stop-color="#0f0f5f"/></linearGradient><path fill="url(#o)" d="M377.3 794l-15.2 102.5h15.2 15.1z" class="B"/><linearGradient id="p" gradientUnits="userSpaceOnUse" x1="401.671" y1="313" x2="401.671" y2="858.311"><stop offset="0" stop-color="#6e36b7"/><stop offset="1" stop-color="#0f0f5f"/></linearGradient><path fill="url(#p)" d="M401.7 825.7l-15.2 70.8h15.2 15.1z" class="B"/><linearGradient id="q" gradientUnits="userSpaceOnUse" x1="330.058" y1="313" x2="330.058" y2="858.311"><stop offset="0" stop-color="#6e36b7"/><stop offset="1" stop-color="#0f0f5f"/></linearGradient><path fill="url(#q)" d="M330.1 825.7l-15.2 70.8h15.2 15.1z" class="B"/><linearGradient id="r" gradientUnits="userSpaceOnUse" x1="314.928" y1="494.215" x2="314.928" y2="870.171"><stop offset="0" stop-color="#6e36b7"/><stop offset="1" stop-color="#0f0f5f"/></linearGradient><path fill="url(#r)" d="M314.9 847.7l-10.4 48.8h10.4 10.5z" class="B"/><linearGradient id="s" gradientUnits="userSpaceOnUse" x1="1330.159" y1="566.992" x2="1330.159" y2="951.827"><stop offset="0" stop-color="#6e36b7"/><stop offset="1" stop-color="#0f0f5f"/></linearGradient><path fill="url(#s)" d="M1354 616.4v264.3c-68.4 0-58.6-172 0-264.3z"/><linearGradient id="t" gradientUnits="userSpaceOnUse" x1="1377.889" y1="449.678" x2="1377.889" y2="839.387"><stop offset="0" stop-color="#6e36b7"/><stop offset="1" stop-color="#0f0f5f"/></linearGradient><path fill="url(#t)" d="M1354 616.4v264.3c68.5 0 58.7-172 0-264.3z"/><linearGradient id="u" gradientUnits="userSpaceOnUse" x1="1266.293" y1="648.069" x2="1266.293" y2="933.442"><stop offset="0" stop-color="#6e36b7"/><stop offset="1" stop-color="#0f0f5f"/></linearGradient><path fill="url(#u)" d="M1284 684.7v196c-50.8 0-43.5-127.6 0-196z"/><linearGradient id="v" gradientUnits="userSpaceOnUse" x1="1301.687" y1="561.075" x2="1301.687" y2="850.062"><stop offset="0" stop-color="#6e36b7"/><stop offset="1" stop-color="#0f0f5f"/></linearGradient><path fill="url(#v)" d="M1284 684.7v196c50.7 0 43.5-127.6 0-196z"/><linearGradient id="w" gradientUnits="userSpaceOnUse" x1="974.52" y1="758.352" x2="974.52" y2="1617.952"><stop offset="0" stop-color="#250061"/><stop offset="1" stop-color="#250061" stop-opacity="0"/></linearGradient><path fill="url(#w)" d="M1876.8 969.8H72.2c12 5.3 24.7 10.3 38.1 15.2l9 3.2c53 18.3 116.7 33.3 187.9 45.6l7.6 26.4 5.2-18 6.1 21.3c-33.9 84.9-37.8 192.4 3.2 274.4-11.2-102.6 2.2-191.7 42.1-266.2l5.6 28.3 11-54c1.7.2 3.4.4 5.1.7l8.6 29.7 8-27.6 25.4 3.1v8.3h5v-7.7c2.2.3 4.4.5 6.6.7l160.4 167.3h3.5 183.9 3.5l18.3-19 24.6 123.5 24.8-124.1 119.8 88.5 15 75.3 11.2-56 1.7 1.2 20.9 104.5 15.5-77.6 147.8 109.2 204.1-148.4 57.6 42.6 87-49.9 103.6-173.1 137.3-99.9-76 3c43.7-9.4 83.7-20 118.9-32.2 13.1-4.5 25.4-9.2 37.1-14.1l9.6-4.2zM811 1203.2l4.4-5.7.2 1-4.6 4.7zm-360.6-149.6l32.6 3.4 110.9 146.2-143.5-149.6z"/><linearGradient id="x" gradientUnits="userSpaceOnUse" x1="426.199" y1="758.352" x2="426.199" y2="1617.952"><stop offset="0" stop-color="#250061"/><stop offset="1" stop-color="#250061" stop-opacity="0"/></linearGradient><path fill="url(#x)" d="M443.3 1281.5l-13.3-14.3 2.5-1.8 32.3 18.1-23-24.7 32.7-23 19.8 11.1-14.1-15.1 42.7-30c-6.8 36.5-27.5 69.3-62.9 94.2s-80.9 38.5-130.5 41.7l95-66.7 18.8 10.5z"/><linearGradient id="y" gradientUnits="userSpaceOnUse" x1="462.46" y1="758.352" x2="462.46" y2="1617.952"><stop offset="0" stop-color="#250061"/><stop offset="1" stop-color="#250061" stop-opacity="0"/></linearGradient><path fill="url(#y)" d="M418.1 1357l2.6-24.7 39.4-2.4 5.7 16.9 1.8-17.3 3.5-.2 9.7 29.1 3.1-29.9 45-2.7 6 17.8 1.9-18.3 58.7-3.5c-36.3 25.2-80.3 41.2-129 44.1s-95.7-7.5-136.9-28.1l80.6-4.8 7.9 24z"/><linearGradient id="z" gradientUnits="userSpaceOnUse" x1="259.151" y1="758.352" x2="259.151" y2="1617.952"><stop offset="0" stop-color="#250061"/><stop offset="1" stop-color="#250061" stop-opacity="0"/></linearGradient><path fill="url(#z)" d="M234.6 1296.1c-25.8-24.9-40.9-57.7-45.8-94.2l31 30-10.2 15.1 14.4-11.1 23.8 23-16.7 24.7 23.5-18.1 1.8 1.8-9.7 14.3 13.6-10.5 69.1 66.7c-36-3.2-69.1-16.8-94.8-41.7z"/><linearGradient id="AA" gradientUnits="userSpaceOnUse" x1="232.778" y1="758.352" x2="232.778" y2="1617.952"><stop offset="0" stop-color="#250061"/><stop offset="1" stop-color="#250061" stop-opacity="0"/></linearGradient><path fill="url(#AA)" d="M180.1 1343.6l4.3-17.8 78.7 6.5 1.9 24.7 5.9-24.1 58.6 4.8c-30 20.6-64.2 31-99.6 28.1s-67.5-18.9-93.8-44.1l42.7 3.5 1.3 18.4z"/><linearGradient id="AB" gradientUnits="userSpaceOnUse" x1="376.016" y1="758.352" x2="376.016" y2="1617.952"><stop offset="0" stop-color="#250061"/><stop offset="1" stop-color="#250061" stop-opacity="0"/></linearGradient><path fill="url(#AB)" d="M389.2 1414.7l12.8-5 20.5 20.4c-28.1-5.4-52.5-16.6-69.5-33.5-17.1-16.9-24.6-37.3-23.6-58.8l69.8 69.2-10 7.7z"/></g></svg>