<svg xmlns="http://www.w3.org/2000/svg" xmlns:xlink="http://www.w3.org/1999/xlink" width="100" height="100" viewBox="0 0 1400 1400" xmlns:v="https://vecta.io/nano"><defs><path id="A" d="M0 0h1400v1400H0z"/></defs><clipPath id="B"><use xlink:href="#A"/></clipPath><g clip-path="url(#B)"><linearGradient id="C" gradientUnits="userSpaceOnUse" x1="700" y1="441.334" x2="700" y2="-191.23"><stop offset="0" stop-color="#fff"/><stop offset=".141" stop-color="#e7f6fd"/><stop offset="1" stop-color="#5bcbf5"/></linearGradient><path fill="url(#C)" d="M0 0h1400v949H0z"/><linearGradient id="D" gradientUnits="userSpaceOnUse" x1="889.855" y1="177.969" x2="889.855" y2="324.188"><stop offset="0" stop-color="#fff"/><stop offset="1" stop-color="#fff" stop-opacity="0"/></linearGradient><path fill="url(#D)" d="M1053.6 317.5H726.3l-.2-4.5c0-33.7 27.3-61 61-61h.2c8.9 0 17.2-4.6 21.4-12.5 16.7-31.2 49.6-52.5 87.4-52.5 48.2 0 88.3 34.4 97.2 80 1.7 8.8 8.2 15.8 16.8 18.4 18 5.4 33.3 16.9 43.5 32.1z"/><linearGradient id="E" gradientUnits="userSpaceOnUse" x1="1129.771" y1="449.462" x2="1129.771" y2="570.151"><stop offset="0" stop-color="#fff"/><stop offset="1" stop-color="#fff" stop-opacity="0"/></linearGradient><path fill="url(#E)" d="M1377.5 467c-1-62.7-52.5-113.8-115.2-114.4-46.7-.4-87.2 26.7-106 66.2-5 10.4-15.6 16.7-27.1 16.7h-.2c-30.8 0-59.3 9.7-82.7 26.1-9.4 6.6-21.8 7.3-31.8 1.5-13-7.4-28-11.7-44-11.7-46.8 0-85.1 36.2-88.4 82.1H1358c12.6-18.8 19.9-41.8 19.5-66.5z"/><linearGradient id="F" gradientUnits="userSpaceOnUse" x1="378.734" y1="475.804" x2="378.734" y2="33.732"><stop offset="0" stop-color="#fff"/><stop offset=".141" stop-color="#e7f6fd"/><stop offset="1" stop-color="#5bcbf5"/></linearGradient><path fill="url(#F)" d="M-256.8 635.2l162.4-162.4c48.7-48.7 114.9-76.1 183.8-76.1h0c68.9 0 135.1-27.4 183.8-76.1h0c23.2-23.2 54.6-36.2 87.4-36.2h10.2a148.2 148.2 0 0 1 104.8 43.4L604 456.2c32.5 32.5 76.5 50.7 122.5 50.7h0c51.5 0 100.4 22.9 133.3 62.6 68.8 82.9 185.5 216.3 206.8 195.1 30.5-30.5-997.8 187.2-997.1 182.9s-379.3-236.4-379.3-236.4l53-75.9z"/><linearGradient id="G" gradientUnits="userSpaceOnUse" x1="590.698" y1="408.611" x2="590.698" y2="501.524"><stop offset="0" stop-color="#fff"/><stop offset="1" stop-color="#fff" stop-opacity="0"/></linearGradient><path fill="url(#G)" d="M781.4 422.1c-.8-48.3-40.4-87.6-88.7-88-36-.3-67.1 20.6-81.6 51-3.8 8-12 12.9-20.9 12.9h-.2c-23.7 0-45.7 7.4-63.7 20.1a22.87 22.87 0 0 1-24.5 1.2c-10-5.7-21.6-9-33.9-9-36 0-65.5 27.9-68.1 63.2h366.4c9.9-14.7 15.5-32.4 15.2-51.4z"/><linearGradient id="H" gradientUnits="userSpaceOnUse" x1="712.029" y1="1112.36" x2="712.029" y2="94.198"><stop offset="0" stop-color="#fff"/><stop offset=".141" stop-color="#e7f6fd"/><stop offset="1" stop-color="#5bcbf5"/></linearGradient><path fill="url(#H)" d="M255.1 666.7L371.8 550c35-35 82.6-54.7 132.1-54.7h0c49.6 0 97.1-19.7 132.1-54.7h0c16.7-16.7 39.3-26 62.8-26h7.4c28.3 0 55.4 11.2 75.4 31.2L874 538c23.4 23.4 55 36.5 88.1 36.5h0c37 0 72.2 16.5 95.8 45 49.5 59.6 133.4 155.5 148.7 140.2 21.9-21.9-717.4 134.6-716.9 131.5S217 721.3 217 721.3l38.1-54.6z"/><linearGradient id="I" gradientUnits="userSpaceOnUse" x1="117.879" y1="873.747" x2="117.879" y2="45.487"><stop offset="0" stop-color="#006fba"/><stop offset=".215" stop-color="#008e9e"/><stop offset=".512" stop-color="#64be64"/><stop offset=".601" stop-color="#6dbf60"/><stop offset=".732" stop-color="#84c556"/><stop offset=".887" stop-color="#a6cf43"/><stop offset="1" stop-color="#c1d82f"/></linearGradient><path fill="url(#I)" d="M228.7 583.1l-61.3-136.6 30.7 9.9L117.9 306 37.7 456.4l30.7-9.9L7.1 583.1l41.6-10.9L7.1 679.5s87.1 14.4 110.8 14.4 110.8-14.4 110.8-14.4l-41.6-107.3 41.6 10.9z"/><linearGradient id="J" gradientUnits="userSpaceOnUse" x1="228.703" y1="844.441" x2="228.703" y2="263.593"><stop offset="0" stop-color="#006fba"/><stop offset=".215" stop-color="#008e9e"/><stop offset=".512" stop-color="#64be64"/><stop offset=".601" stop-color="#6dbf60"/><stop offset=".732" stop-color="#84c556"/><stop offset=".887" stop-color="#a6cf43"/><stop offset="1" stop-color="#c1d82f"/></linearGradient><path fill="url(#J)" d="M306.4 640.6l-43-95.8 21.5 6.9-56.2-105.5-56.2 105.5 21.5-6.9-43 95.8 29.1-7.6-29.1 75.2s61.1 10.1 77.7 10.1 77.7-10.1 77.7-10.1L277.3 633l29.1 7.6z"/><linearGradient id="K" gradientUnits="userSpaceOnUse" x1="770.72" y1="1302.879" x2="770.72" y2="583.883"><stop offset="0" stop-color="#006fba"/><stop offset=".215" stop-color="#008e9e"/><stop offset=".512" stop-color="#64be64"/><stop offset=".601" stop-color="#6dbf60"/><stop offset=".732" stop-color="#84c556"/><stop offset=".887" stop-color="#a6cf43"/><stop offset="1" stop-color="#c1d82f"/></linearGradient><path fill="url(#K)" d="M1531.3 536l-57.9 5-14.3-36.8 30.8 8.1-45.4-101.3 22.7 7.3-59.4-111.4-59.4 111.4 22.7-7.3-45.4 101.2 30.8-8.1-20.2 52.2c-177.3 23-346.4 56.9-501 95.2l-40.1-89.2 20.4 6.6-53.3-100.1-53.3 100 20.4-6.6-15.5 34.6-27.8-52.1-37.1 69.6 14.2-4.6-28.4 63.2 19.2-5-14 36.1C259.8 814.5 6.5 935.4 6.5 935.4s-14.6 156.2 0 152.2 1502.1-72.9 1524.8-72.9c22.8-.1 0-191.2 0-478.7zM832.5 652.1l-19.7 4.9-4.3-11.2 24 6.3z"/><linearGradient id="L" gradientUnits="userSpaceOnUse" x1="402.72" y1="1135.283" x2="402.72" y2="460.185"><stop offset="0" stop-color="#006fba"/><stop offset=".215" stop-color="#008e9e"/><stop offset=".512" stop-color="#64be64"/><stop offset=".601" stop-color="#6dbf60"/><stop offset=".732" stop-color="#84c556"/><stop offset=".887" stop-color="#a6cf43"/><stop offset="1" stop-color="#c1d82f"/></linearGradient><path fill="url(#L)" d="M762.7 905.1l-19-49 23 6-34-75.7 17 5.5-44.5-83.4-44.5 83.4 17-5.5-24.7 55.2C423.8 719.8 128.4 624.8-117 621.2v685.9c-1.3 13.5 81.8-75.8 1039.5-280.6-43-40.7-97.4-81.8-159.8-121.4z"/><linearGradient id="M" gradientUnits="userSpaceOnUse" x1="1397.963" y1="1048.756" x2="1397.963" y2="452.171"><stop offset="0" stop-color="#006fba"/><stop offset=".215" stop-color="#008e9e"/><stop offset=".512" stop-color="#64be64"/><stop offset=".601" stop-color="#6dbf60"/><stop offset=".732" stop-color="#84c556"/><stop offset=".887" stop-color="#a6cf43"/><stop offset="1" stop-color="#c1d82f"/></linearGradient><path fill="url(#M)" d="M1746.1 919.2c-10.4-47-30-90.4-56.8-128.4-54.6 20.5-108.5 43.1-161.8 68.3 46-32.5 80.6-77.2 120.6-116.8a356.39 356.39 0 0 0-97.9-68.4c-37 44-70.4 88.3-102.8 134.5 0-14.7 4-28 8-42.7 12.3-37.8 23.9-76.3 30.1-115-16.2-4.1-32.8-7.1-49.7-8.8-12.4-1.3-25-2-37.8-2-16.5 0-32.7 1.1-48.5 3.3l.6 33.9c.7 33.2 1.7 66.5 3.8 99.4l-32.6-87.2-13.8-37.7c-25.6 6.7-50 16.2-73 28 15.2 45.5 32.5 90.2 48.9 135-33.2-35.8-71.6-65.4-109.5-95.4-23.2 18.8-44 40.4-61.9 64.4-3.7 4.9-7.2 9.9-10.6 15 21.9 18 45 33.9 65.8 54.7 6.7 6.7 12 14.7 22.7 17.4-38.6-7.1-74.9-18.9-111.2-32.9-12.7 25.6-22.5 52.9-28.8 81.6h696.2z"/><linearGradient id="N" gradientUnits="userSpaceOnUse" x1="321.839" y1="1320.993" x2="321.839" y2="694.504"><stop offset="0" stop-color="#006fba"/><stop offset=".215" stop-color="#008e9e"/><stop offset=".512" stop-color="#64be64"/><stop offset=".601" stop-color="#6dbf60"/><stop offset=".732" stop-color="#84c556"/><stop offset=".887" stop-color="#a6cf43"/><stop offset="1" stop-color="#c1d82f"/></linearGradient><path fill="url(#N)" d="M687.5 1185c-10.9-49.3-31.5-95-59.7-134.8-57.3 21.5-114 45.2-169.9 71.7 48.3-34.1 84.7-81.1 126.6-122.7-29.8-29.4-64.5-53.8-102.8-71.9-38.8 46.2-73.9 92.7-107.9 141.3 0-15.4 4.2-29.4 8.4-44.9 12.8-39.7 25-80.1 31.6-120.7-17-4.3-34.4-7.4-52.2-9.3-13-1.4-26.3-2.1-39.7-2.1a373.37 373.37 0 0 0-51 3.5l.6 35.5c.7 34.9 1.7 69.8 4 104.3l-34.3-91.6-14.5-39.6c-26.8 7-52.5 17-76.7 29.5 16 47.8 34.1 94.8 51.3 141.7-34.9-37.6-75.2-68.7-115-100.2-24.4 19.7-46.2 42.5-65 67.6-3.8 5.2-7.6 10.4-11.1 15.8 22.9 18.9 47.3 35.6 69.1 57.4 7 7 12.6 15.4 23.8 18.2-40.5-7.5-78.7-19.8-116.8-34.6-13.4 26.9-23.7 55.6-30.3 85.7h731.5z"/><linearGradient id="O" gradientUnits="userSpaceOnUse" x1="541.36" y1="1569.906" x2="541.36" y2="1067.564"><stop offset="0" stop-color="#006fba"/><stop offset=".215" stop-color="#008e9e"/><stop offset=".512" stop-color="#64be64"/><stop offset=".601" stop-color="#6dbf60"/><stop offset=".732" stop-color="#84c556"/><stop offset=".887" stop-color="#a6cf43"/><stop offset="1" stop-color="#c1d82f"/></linearGradient><path fill="url(#O)" d="M1400 875.7V1400H342.7h-660c45.1-30 108.4-64.7 185.1-101.7 47.5-22.9 100.2-46.6 156.8-70.7l21.5-9.1 64.2-26.3c393.4-157.9 931.5-316.5 1289.7-316.5z"/><linearGradient id="P" gradientUnits="userSpaceOnUse" x1="1378.057" y1="957.649" x2="1196.559" y2="957.649"><stop offset="0" stop-color="#fecb80"/><stop offset=".502" stop-color="#faa434"/><stop offset="1" stop-color="#da741c"/></linearGradient><path fill="url(#P)" d="M1183.3 789.5c0 178.2 64.1 336.3 212.6 336.3-83.5 0-234.5-15.1-234.5-286.1.1-29.8 21.9-50.2 21.9-50.2h0z"/><linearGradient id="Q" gradientUnits="userSpaceOnUse" x1="1002.753" y1="153.185" x2="1029.755" y2="1050.275"><stop offset="0" stop-color="#fecb80"/><stop offset=".502" stop-color="#faa434"/><stop offset="1" stop-color="#da741c"/></linearGradient><path fill="url(#Q)" d="M1129.8 1137.8h-94.3l-8.8-108.2c-.6-7.9-7.2-13.9-15.1-13.9-3.8 0-7.3 1.4-9.9 3.7-2.7 2.3-4.6 5.6-5.1 9.3L981 1137.8h-96.6s-30.5-362.3-25.6-432.4l30.8-411.7c4.9 3.4 10.6 5.7 16.6 6.8l1.7.3h0c.5.1 1.1.1 1.6.2h.2c.5 0 1 .1 1.5.1h.3 1.8H995c29 0 56.7-11.5 77.2-32l9.6-9.6 17.3-17.3 1.8 6.5c1.6 6.3 3.3 13.3 4.9 20.7 12.2 54.7 24.4 131.5 24.4 131.5l50.3 335c16.7 104.9-50.7 401.9-50.7 401.9z"/><linearGradient id="R" gradientUnits="userSpaceOnUse" x1="983.13" y1="301.12" x2="983.13" y2="157.95"><stop offset=".084" stop-color="#faa434"/><stop offset=".176" stop-color="#fcb354"/><stop offset=".277" stop-color="#fdc170"/><stop offset=".364" stop-color="#fec97f"/><stop offset=".424" stop-color="#fecc85"/><stop offset="1" stop-color="#faa434"/></linearGradient><path fill="url(#R)" d="M1099.3 242.3l-26.9 26.9c-20.5 20.5-48.3 32-77.2 32h-81.7c-8.8 0-17-2.7-23.8-7.4L867 238.5v-1.2-1.1-1.2c0-.3 0-.6.1-1 0-.4.1-.8.1-1.2.1-1.4.3-2.7.5-3.8.1-.4.1-.7.2-1.1 0-.2.1-.3.1-.5v-.2c.1-.5.3-1 .4-1.4a27.68 27.68 0 0 1 .6-1.6c.1-.3.2-.5.3-.8.2-.5.5-1 .7-1.4 0-.1.1-.1.1-.2.2-.4.4-.7.6-1.1.2-.2.3-.5.5-.7s.3-.4.5-.7c.2-.2.3-.4.5-.6.3-.4.6-.9 1-1.3.3-.4.7-.9 1.1-1.3v-.1c.3-.4.7-.8 1-1.2 1.6-1.9 3.4-4.1 5.4-6.8 3.8-5.3 13.6-15.5 23.5-25.4 15.7-15.8 37.1-24.6 59.4-24.6h54.1c30.1 0 66.6 34.5 81.6 84.3z"/><linearGradient id="S" gradientUnits="userSpaceOnUse" x1="986.485" y1="154.118" x2="986.485" y2="250.16"><stop offset="0" stop-color="#fecb80"/><stop offset="1" stop-color="#faa434"/></linearGradient><path fill="url(#S)" d="M1101.1 248.7l-1.8-6.5c-2.2-7.2-4.8-14.1-7.8-20.6-17.6-38.5-48.1-63.8-73.8-63.8h-54.1c-22.3 0-43.7 8.8-59.4 24.6-9.8 9.9-19.7 20.1-23.5 25.4-2 2.8-3.8 4.9-5.4 6.8-.3.4-.7.8-1 1.2v.1c-.4.4-.7.9-1.1 1.3l-1 1.3c-.2.2-.3.4-.5.6s-.3.4-.5.7c-.2.2-.3.5-.5.7-.2.3-.4.7-.6 1.1l-.1.2c-.3.5-.5.9-.7 1.4-.1.3-.2.5-.3.8h0c-.2.5-.4 1-.6 1.6-.1.5-.3.9-.4 1.4v.2c-.1.2-.1.3-.1.5-.1.3-.2.7-.2 1.1-.2 1.2-.4 2.4-.5 3.8 0 .4-.1.8-.1 1.2 0 .3 0 .6-.1 1v1.2 1.1 1.2l5.3 28.4c.8 4 2.1 7.9 3.9 11.4a42.72 42.72 0 0 0 13.5 15.4c6.8 4.7 15 7.4 23.8 7.4h81.7c24.5 0 48.1-8.2 67.2-23.1l19.6 7.5v-25.9l24 9.9c-1.6-7.3-3.3-14.2-4.9-20.6z"/><linearGradient id="T" gradientUnits="userSpaceOnUse" x1="980.586" y1="230.141" x2="913.919" y2="261.474"><stop offset="0" stop-color="#ffddac"/><stop offset="1" stop-color="#fdbe6e"/></linearGradient><path fill="url(#T)" d="M889.2 256.2h0c0 13.6 11.1 24.7 24.7 24.7h16.2c12 0 23.5-4.8 32-13.3h0a24.99 24.99 0 0 0 0-35.4h0c-6.6-6.6-16.4-9-25.3-6.1l-47.6 15.2v14.9z"/><linearGradient id="U" gradientUnits="userSpaceOnUse" x1="949.024" y1="229.711" x2="951.024" y2="272.461"><stop offset="0" stop-color="#fecb80"/><stop offset="1" stop-color="#faa434"/></linearGradient><circle fill="url(#U)" cx="949.3" cy="236.3" r="2.7"/><linearGradient id="V" gradientUnits="userSpaceOnUse" x1="959.091" y1="229.24" x2="961.091" y2="271.99"><stop offset="0" stop-color="#fecb80"/><stop offset="1" stop-color="#faa434"/></linearGradient><circle fill="url(#V)" cx="960" cy="248.7" r="2.7"/><linearGradient id="W" gradientUnits="userSpaceOnUse" x1="950.549" y1="229.64" x2="952.549" y2="272.39"><stop offset="0" stop-color="#fecb80"/><stop offset="1" stop-color="#faa434"/></linearGradient><circle fill="url(#W)" cx="952" cy="260.7" r="2.7"/><linearGradient id="X" gradientUnits="userSpaceOnUse" x1="939.135" y1="230.174" x2="941.135" y2="272.924"><stop offset="0" stop-color="#fecb80"/><stop offset="1" stop-color="#faa434"/></linearGradient><circle fill="url(#X)" cx="940" cy="248.7" r="2.7"/><linearGradient id="Y" gradientUnits="userSpaceOnUse" x1="924.827" y1="230.843" x2="926.827" y2="273.593"><stop offset="0" stop-color="#fecb80"/><stop offset="1" stop-color="#faa434"/></linearGradient><circle fill="url(#Y)" cx="925.3" cy="241.7" r="2.7"/><linearGradient id="Z" gradientUnits="userSpaceOnUse" x1="927.805" y1="230.704" x2="929.805" y2="273.454"><stop offset="0" stop-color="#fecb80"/><stop offset="1" stop-color="#faa434"/></linearGradient><circle fill="url(#Z)" cx="929.3" cy="263.3" r="2.7"/><linearGradient id="a" gradientUnits="userSpaceOnUse" x1="847.544" y1="248.658" x2="882.877" y2="259.658"><stop offset="0" stop-color="#ffddac"/><stop offset="1" stop-color="#fdbe6e"/></linearGradient><path fill="url(#a)" d="M889.9 241.3v14.9c0 9.7-5.6 18-13.7 22.1-1.8-3.5-3.2-7.4-3.9-11.4l-5.3-28.4c0-1.6 0-3.1.1-4.5l22.8 7.3z"/><linearGradient id="b" gradientUnits="userSpaceOnUse" x1="872" y1="443.134" x2="967.047" y2="443.134"><stop offset="0" stop-color="#ffdeae"/><stop offset="1" stop-color="#faa434"/></linearGradient><path fill="url(#b)" d="M884.2,366.7c-34.2,54.5-39.1,79.9-39.1,116.4s39.1,36.5,39.1,36.5V366.7z"/><linearGradient id="c" gradientUnits="userSpaceOnUse" x1="983.13" y1="215" x2="983.13" y2="829.117"><stop offset="0" stop-color="#ffddac"/><stop offset="1" stop-color="#fdbe6e"/></linearGradient><path fill="url(#c)" d="M1069.2 687.4c0 157.9-38.6 285.9-86.1 285.9-12.1 0-23.6-8.3-34-23.2-30.7-43.8-52.1-145-52.1-262.8 0-113.4 19.9-211.4 48.7-257.6 11.3-18.1 24-28.3 37.4-28.3 47.6.1 86.1 128.1 86.1 286z"/><linearGradient id="d" gradientUnits="userSpaceOnUse" x1="889.747" y1="218" x2="889.747" y2="255.53"><stop offset="0" stop-color="#fecb80"/><stop offset=".67" stop-color="#a56535"/><stop offset="1" stop-color="#75471f"/></linearGradient><path fill="url(#d)" d="M889.7 231.4h-13.4c-3.9 0-7 3.1-7 7h0c0 1.8.7 3.6 2 4.9l8.3 8.6c5.5 5.8 14.8 5.8 20.3 0l8.3-8.6c1.3-1.3 2-3 2-4.9h0c0-3.9-3.1-7-7-7h-13.5z"/><linearGradient id="e" gradientUnits="userSpaceOnUse" x1="889.232" y1="266.048" x2="889.232" y2="248.851"><stop offset="0" stop-color="#fecb80"/><stop offset=".67" stop-color="#a56535"/><stop offset="1" stop-color="#75471f"/></linearGradient><path fill="url(#e)" d="M898.7 241.2h0a2.69 2.69 0 0 1-2.7 2.7h-6.8-6.8a2.69 2.69 0 0 1-2.7-2.7h0a2.69 2.69 0 0 0-2.7-2.7h-1.5c-1.3 0-2 1.6-1 2.5l8.7 8.7c1.6 1.6 3.7 2.5 6 2.5h0 0c2.2 0 4.4-.9 6-2.5l8.7-8.7c.9-.9.3-2.5-1-2.5h-1.5a2.69 2.69 0 0 0-2.7 2.7z"/><linearGradient id="f" gradientUnits="userSpaceOnUse" x1="979.365" y1="214.321" x2="979.365" y2="205.51"><stop offset="0" stop-color="#fecb80"/><stop offset=".67" stop-color="#a56535"/><stop offset="1" stop-color="#75471f"/></linearGradient><path fill="url(#f)" d="M979 203.8c.1 1.3.3 2.6.8 3.8-.5-1-.8-2.1-.8-3.3v-.5z"/><linearGradient id="g" gradientUnits="userSpaceOnUse" x1="1032.903" y1="184.423" x2="977.403" y2="208.923"><stop offset="0" stop-color="#fecb80"/><stop offset=".67" stop-color="#a56535"/><stop offset="1" stop-color="#75471f"/></linearGradient><path fill="url(#g)" d="M1015.7 200.4c0 3.1-1.3 5.9-3.3 7.9s-4.8 3.3-7.9 3.3h-1.6a13.49 13.49 0 0 0 3.1-8.6c0-7.5-6-13.5-13.5-13.5-.6 0-1.3 0-1.9.1l2.7-2.7a9.69 9.69 0 0 1 13.8.1l5.4 5.5c2 2.1 3.2 5 3.2 7.9z"/><linearGradient id="h" gradientUnits="userSpaceOnUse" x1="1065.757" y1="247" x2="1065.757" y2="195.439"><stop offset="0" stop-color="#fecb80"/><stop offset=".67" stop-color="#a56535"/><stop offset="1" stop-color="#75471f"/></linearGradient><path fill="url(#h)" d="M1056.9 191.4v42.1h0c12.1 0 20.6-11.9 16.6-23.4l-2-5.6c-1.5-4.2-4.5-7.7-8.5-9.8l-6.1-3.3z"/><linearGradient id="i" gradientUnits="userSpaceOnUse" x1="1075.693" y1="425" x2="1075.693" y2="538.335"><stop offset="0" stop-color="#fecb80"/><stop offset=".502" stop-color="#faa434"/><stop offset="1" stop-color="#da741c"/></linearGradient><path fill="url(#i)" d="M1110 523.3l-80 .7v-13.9l-14 13.9v-14.2l-13.5 13.5v-12.7l-12.7 12.7c.8-.8.8-16.8.6-32.4l-.6-29.5 101.5-75.5c49.8 22.3 60.9 40.9 67.7 80.3.6 3.2 1.1 6.6 1.6 10.1 6.9 46.4-33.3 47-50.6 47z"/><linearGradient  gradientUnits="userSpaceOnUse" x1="989.903" y1="510.92" x2="989.903" y2="510.92"><stop offset="0" stop-color="#6081b9"/><stop offset=".989" stop-color="#232642"/></linearGradient><linearGradient id="k" gradientUnits="userSpaceOnUse" x1="1070.977" y1="1137.85" x2="1070.977" y2="1113.713"><stop offset=".005" stop-color="#eb7370"/><stop offset="1" stop-color="#631821"/></linearGradient><path fill="url(#k)" d="M1028.7 1113.7h84.6a16.52 16.52 0 0 1 16.5 16.5v7.6h-117.6v-7.6a16.52 16.52 0 0 1 16.5-16.5z"/><linearGradient id="l" gradientUnits="userSpaceOnUse" x1="922.694" y1="1137.85" x2="922.694" y2="1113.713"><stop offset=".005" stop-color="#eb7370"/><stop offset="1" stop-color="#631821"/></linearGradient><path fill="url(#l)" d="M880.4 1113.7H965a16.52 16.52 0 0 1 16.5 16.5v7.6H863.9v-7.6a16.52 16.52 0 0 1 16.5-16.5z"/><linearGradient id="m" gradientUnits="userSpaceOnUse" x1="886.932" y1="523.991" x2="886.932" y2="451.507"><stop offset="0" stop-color="#fecb80"/><stop offset=".67" stop-color="#a56535"/><stop offset="1" stop-color="#75471f"/></linearGradient><path fill="url(#m)" d="M877.8 451.5l12.1 12.1c14.6 14.6 22.8 34.3 22.8 55v5.4h-19.9c-7.4 0-14.5-2.9-19.7-8.1h0c-14.4-14.4-15.9-37.3-3.5-53.5l8.2-10.9z"/><linearGradient id="n" gradientUnits="userSpaceOnUse" x1="1177.216" y1="384.393" x2="989.216" y2="529.726"><stop offset="0" stop-color="#fecb80"/><stop offset="1" stop-color="#faa434"/></linearGradient><path fill="url(#n)" d="M1159.1 466.2l-22.8 4.8-17.3 10v-10l-19.7 13.3V471l-24.7 16.8v-13.2L990.5 491l-.6-29.5 101.5-75.5c49.8 22.2 60.9 40.8 67.7 80.2z"/><linearGradient id="o" gradientUnits="userSpaceOnUse" x1="929.979" y1="309" x2="929.979" y2="1095.064"><stop offset="0" stop-color="#fecc85"/><stop offset="1" stop-color="#faa434"/></linearGradient><path fill="url(#o)" d="M949.1 950.2c-30.7-43.8-52.1-145-52.1-262.8 0-113.4 19.9-211.4 48.7-257.6l9.2-99.2c-5-3-10-6.2-15-9.5-1.5 5.9-3 11.9-5 17.9-2.2-10.4-14.5-31.5-16.1-32.5-1.2 5.8-3 11.4-5.9 16.5l-10.6-23.4c-4.5-1.3-8.8-3.2-12.6-5.9l-30.8 411.7c-4.9 70.1 25.6 432.4 25.6 432.4H981l15.5-109.1c.5-3.8 2.4-7 5.1-9.3-27.5 0-43.3-31.2-52.5-69.2z"/><linearGradient id="p" gradientUnits="userSpaceOnUse" x1="924.55" y1="411" x2="924.55" y2="1153.606"><stop offset="0" stop-color="#ffddac"/><stop offset="1" stop-color="#fdbe6e"/></linearGradient><path fill="url(#p)" d="M949.1 950.2c-30.7-43.8-52.1-145-52.1-262.8 0-113.4 19.9-211.4 48.7-257.6C935.4 559.1 929.3 700 929.3 700h21.3l-21.3 39.7h14.6l-14.6 34.1h22.8l-15 40.2c0 .1-2.2 76.5 12 136.2z"/><linearGradient id="q" gradientUnits="userSpaceOnUse" x1="922.448" y1="479.748" x2="1045.948" y2="525.748"><stop offset="0" stop-color="#fecb80"/><stop offset=".67" stop-color="#a56535"/><stop offset="1" stop-color="#75471f"/></linearGradient><path fill="url(#q)" d="M989.9 473.5v-12.1c-15.1 0-29.5 6-40.1 16.6l-3.6 3.6c-11.6 11.6-18.3 27-19 43.3 13.3-23.7 36.6-42.2 62.7-51.4z"/><linearGradient id="r" gradientUnits="userSpaceOnUse" x1="922.55" y1="461.357" x2="969.55" y2="524.857"><stop offset="0" stop-color="#fecb80"/><stop offset=".67" stop-color="#a56535"/><stop offset="1" stop-color="#75471f"/></linearGradient><path fill="url(#r)" d="M927.7 527.6H943c17.1 0 33.7-5.9 46.9-16.7V493c-20.2 12.7-41.7 23-62.2 34.6z"/><linearGradient id="s" gradientUnits="userSpaceOnUse" x1="939.677" y1="473.558" x2="974.177" y2="523.058"><stop offset="0" stop-color="#fecb80"/><stop offset=".67" stop-color="#a56535"/><stop offset="1" stop-color="#75471f"/></linearGradient><path fill="url(#s)" d="M989.9 473.5c-26.1 9.3-49.4 27.7-62.8 51.5 0 .9-.1 1.8-.1 2.7h0 .6c20.6-11.6 42.1-21.9 62.2-34.6v-19.6z"/><linearGradient id="t" gradientUnits="userSpaceOnUse" x1="1123.164" y1="1004.398" x2="1123.164" y2="1158.929"><stop offset="0" stop-color="#fecb80"/><stop offset=".67" stop-color="#a56535"/><stop offset="1" stop-color="#75471f"/></linearGradient><path fill="url(#t)" d="M983.4 1053.7c7.3 0 14.3 1.2 21 3.2 11.9 3.7 25 .6 33.9-8.2 19.7-19.7 47-31.8 77-31.8 37.4 0 70.4 18.8 90.1 47.5 6.5 9.4 17.2 15 28.6 14.8h1.8c43.9 0 81.8 25.4 99.9 62.3h-112.4-311.2c-1.1-5.2-1.7-10.7-1.6-16.3.5-39.7 33.3-71.8 72.9-71.5z"/><linearGradient id="u" gradientUnits="userSpaceOnUse" x1="983.643" y1="859.626" x2="983.643" y2="1139.544"><stop offset="0" stop-color="#fecb80"/><stop offset=".67" stop-color="#a56535"/><stop offset="1" stop-color="#75471f"/></linearGradient><path fill="url(#u)" d="M1205.1 1141.4h-443C772.8 1066 837.6 1008 916 1008c33.6 0 64.6 10.6 90 28.7 25.7 18.3 57 27.1 88.4 24.1 3.3-.3 6.6-.5 10-.5 49.4.1 90.7 34.8 100.7 81.1z"/><linearGradient id="v" gradientUnits="userSpaceOnUse" x1="745.445" y1="1004.398" x2="745.445" y2="1158.929"><stop offset="0" stop-color="#fecb80"/><stop offset=".67" stop-color="#a56535"/><stop offset="1" stop-color="#75471f"/></linearGradient><path fill="url(#v)" d="M885.2 1053.7c-7.3 0-14.3 1.2-21 3.2-11.9 3.7-25 .6-33.9-8.2-19.7-19.7-47-31.8-77-31.8-37.4 0-70.4 18.8-90.1 47.5-6.5 9.4-17.2 15-28.6 14.8h-1.8c-43.9 0-81.8 25.4-99.9 62.3h112.4 311.2c1.1-5.2 1.7-10.7 1.6-16.3-.5-39.7-33.3-71.8-72.9-71.5z"/><linearGradient id="w" gradientUnits="userSpaceOnUse" x1="1275.778" y1="631.412" x2="1275.778" y2="1566.851"><stop offset="0" stop-color="#00325f"/><stop offset=".441" stop-color="#00633a"/><stop offset="1" stop-color="#5dbf8b"/></linearGradient><path fill="url(#w)" d="M1306 1243c-11-100-30-194-42-294-2-14 0-28 3-42 1-2 3-4 3-6 1-11 5-21 9-32 1-3-1-7 0-10 1.3-5.1 2.9-10 4.7-14.7-16 19.6-30.5 40.6-38.6 60-25.5 61 52.4 364 49 417.6s-12.5 266.7-12.5 266.7l23.5-30.5c5.3-9.3-4-123.6 2.5-197.4-.1.1-.3.1-.5.2.2-.1.3-.1.5-.2 1-11.1 2.3-21.2 4.1-30 .6-29.2-2.6-57.8-5.7-87.7z"/><linearGradient id="x" gradientUnits="userSpaceOnUse" x1="1327.798" y1="605.561" x2="1327.798" y2="1314.26"><stop offset="0" stop-color="#00325f"/><stop offset=".441" stop-color="#00633a"/><stop offset="1" stop-color="#5dbf8b"/></linearGradient><path fill="url(#x)" d="M1386.7 1025.1c-25.8-190-27.5-258.2-27.5-258.2s-41.2 35.5-75.4 77.5c-1.8 4.7-3.4 9.6-4.7 14.7-1 3 1 7 0 10-4 11-8 21-9 32 0 2-2 4-3 6-3 14-5 28-3 42 12 100 31 194 42 294 3.1 29.9 6.3 58.5 5.5 87.8 1.9-9.5 4.4-17.4 7.6-23 25.2-45.2 93.2-92.8 67.5-282.8z"/><linearGradient id="y" gradientUnits="userSpaceOnUse" x1="1036.966" y1="184.485" x2="982.966" y2="206.152"><stop offset="0" stop-color="#fecb80"/><stop offset=".67" stop-color="#a56535"/><stop offset="1" stop-color="#522f0a"/></linearGradient><path fill="url(#y)" d="M1006 203c0 3.3-1.2 6.2-3.1 8.6h-16.7c-2.8 0-5.3-1.6-6.5-4-.4-1.2-.7-2.5-.8-3.8a7.04 7.04 0 0 1 2.1-4.7l9.5-9.5c.6-.1 1.2-.1 1.9-.1 7.6 0 13.6 6 13.6 13.5z"/><linearGradient id="z" gradientUnits="userSpaceOnUse" x1="722.183" y1="1308.713" x2="1193.911" y2="1308.713"><stop offset="0" stop-color="#00325f"/><stop offset=".441" stop-color="#00633a"/><stop offset="1" stop-color="#5dbf8b"/></linearGradient><path fill="url(#z)" d="M1193.9 1491.7s-139.7-282-471.7-378c240 138 354.3 276 398.1 390 51.9 0 73.6-12 73.6-12z"/><linearGradient id="AA" gradientUnits="userSpaceOnUse" x1="991.731" y1="1133.249" x2="1374.734" y2="1201.609"><stop offset="0" stop-color="#00325f"/><stop offset=".441" stop-color="#00633a"/><stop offset="1" stop-color="#5dbf8b"/></linearGradient><path fill="url(#AA)" d="M1254.7 1515.4c17.1-255-204.9-707-204.9-707 132.8 165.9 295.2 560.6 267.1 718.1l-62.2-11.1z"/><linearGradient id="AB" gradientUnits="userSpaceOnUse" x1="1683.655" y1="1442.996" x2="756.562" y2="1352.987"><stop offset="0" stop-color="#00325f"/><stop offset=".441" stop-color="#00633a"/><stop offset="1" stop-color="#5dbf8b"/></linearGradient><path fill="url(#AB)" d="M1468.6 1475.9c-5.3-5.6-260-263.8-575.1-184.2 49.3 35.9 36.7 45.3 111.5 110.7 74.8 65.5 245.6 49.2 291.8-20.3 105.9 37.3 144.2 141.4 144.2 141.4l27.6-47.6z"/><linearGradient id="AC" gradientUnits="userSpaceOnUse" x1="1294.712" y1="1406.048" x2="832.665" y2="862.993"><stop offset="0" stop-color="#00325f"/><stop offset=".441" stop-color="#00633a"/><stop offset="1" stop-color="#5dbf8b"/></linearGradient><path fill="url(#AC)" d="M1370.9 1426.3c-2.4-7.3-124.6-348.8-443.9-409.4 29.6 53.3 14.2 56.5 54.4 147.4s202 148.1 273.2 104.5c80.3 78.5 71.1 189 71.1 189l45.2-31.5z"/><linearGradient id="AD" gradientUnits="userSpaceOnUse" x1="1072.288" y1="1502.085" x2="752.997" y2="1126.813"><stop offset="0" stop-color="#00325f"/><stop offset=".441" stop-color="#00633a"/><stop offset="1" stop-color="#5dbf8b"/></linearGradient><path fill="url(#AD)" d="M1205.1 1447c4.3-12-227.8-358-483-132 218.8-128 365.8 34 439.3 158 21.3-1.5 43.7-26 43.7-26z"/><linearGradient id="AE" gradientUnits="userSpaceOnUse" x1="129.273" y1="1563.7" x2="129.273" y2="809.747"><stop offset="0" stop-color="#00325f"/><stop offset=".441" stop-color="#00633a"/><stop offset="1" stop-color="#5dbf8b"/></linearGradient><path fill="url(#AE)" d="M569.3 1400h-880c13.9-63.2 41.1-121.4 78.6-171.6 60.2-80.7 146.8-140.6 247.1-166.9l17.5 47.6 41.2 110.2c-2.8-41.5-4-83.6-4.9-125.6l-.8-42.8c20.1-2.7 40.5-4.2 61.3-4.2 16.1 0 32.1.9 47.8 2.5 21.4 2.2 42.4 6 62.9 11.2-7.8 48.9-22.5 97.5-38.1 145.3-5.1 18.6-10.1 35.4-10.1 54 40.9-58.5 83.1-114.4 129.9-170 46.1 21.8 87.9 51.2 123.8 86.5-50.5 50-94.3 106.6-152.4 147.6 67.3-31.9 135.5-60.5 204.5-86.3 33.8 48.2 58.6 103.2 71.7 162.5z"/><linearGradient id="AF" gradientUnits="userSpaceOnUse" x1="295.656" y1="66.515" x2="295.656" y2="246.549"><stop offset="0" stop-color="#fff"/><stop offset="1" stop-color="#fff" stop-opacity="0"/></linearGradient><path fill="url(#AF)" d="M495.7 238.3H95.9l-.3-6.8c0-48.9 39.6-88.5 88.5-88.5 2.9 0 5.8.1 8.6.4 16.5-38.7 54.8-65.8 99.4-65.8 52.5 0 96.2 37.4 106 87 20 5.9 36.3 20.1 45 38.7 2.2-.3 4.4-.5 6.7-.5 22.1.1 40.6 15.1 45.9 35.5z"/></g><linearGradient  gradientUnits="userSpaceOnUse" x1="1054.333" y1="217.667" x2="1054.333" y2="217.667"><stop offset="0" stop-color="#fff"/><stop offset=".141" stop-color="#e7f6fd"/><stop offset="1" stop-color="#5bcbf5"/></linearGradient></svg>